{"glyphs":{"0":{"ha":831,"x_min":0,"x_max":0,"o":"m 688 847 b 831 468 778 760 831 622 b 440 -11 831 203 690 -11 b 292 15 385 -11 335 -3 b 182 88 250 32 213 57 b 49 468 93 175 49 313 b 440 947 49 733 194 947 b 578 921 490 947 536 938 b 688 847 618 903 656 878 m 314 354 b 321 349 315 351 318 349 b 325 351 322 349 324 350 l 497 718 b 503 744 501 726 503 735 b 443 807 503 776 478 806 l 440 807 b 308 468 356 807 308 656 b 314 354 308 439 311 389 m 440 129 b 571 468 524 129 571 281 b 564 604 571 506 568 567 b 561 607 564 607 563 607 b 558 606 560 607 558 607 l 376 193 b 374 178 374 189 374 183 b 382 156 374 169 376 161 b 440 129 399 139 418 129 "},"1":{"ha":388,"x_min":0,"x_max":0,"o":"m 326 249 b 374 107 326 197 342 146 b 388 65 382 96 388 81 b 326 1 388 32 361 3 l 322 0 l 114 0 l 110 1 b 49 65 76 3 49 32 b 63 107 49 81 54 96 b 110 249 94 146 110 197 l 110 668 b 63 767 110 718 94 726 b 49 807 54 778 49 792 b 79 861 50 829 64 849 b 121 888 92 872 106 881 l 235 932 b 267 939 246 936 257 939 b 326 879 301 939 326 913 "},"2":{"ha":758,"x_min":0,"x_max":0,"o":"m 671 358 b 758 250 728 358 758 311 l 758 94 b 664 1 758 43 717 1 l 149 1 b 54 96 94 1 54 46 b 50 140 54 97 50 115 b 211 392 50 201 71 313 b 489 678 211 392 489 542 l 489 689 b 396 775 482 758 436 775 b 351 769 379 775 363 772 b 293 711 332 765 306 747 b 169 581 268 635 229 581 b 121 590 154 581 139 583 b 57 660 96 600 69 621 b 49 708 51 675 49 692 b 83 807 49 743 61 778 b 385 957 131 868 217 957 b 425 956 399 957 411 957 b 719 721 425 956 688 947 b 722 690 721 711 722 701 b 321 247 722 451 321 247 b 290 221 299 238 290 228 b 299 215 290 218 293 215 l 450 215 b 567 264 494 215 553 222 b 661 358 585 311 604 354 "},"3":{"ha":807,"x_min":0,"x_max":0,"o":"m 553 579 b 807 294 699 543 807 465 b 417 -12 807 125 632 -12 b 50 242 186 -12 67 99 b 49 256 49 246 49 251 b 93 344 49 301 86 339 b 126 365 104 354 115 360 b 142 371 132 368 136 369 b 194 379 160 376 178 379 b 222 376 204 379 214 379 b 264 351 242 372 254 363 b 288 294 285 326 288 294 b 417 118 288 197 344 118 b 564 294 489 118 564 197 b 435 468 564 383 501 457 b 424 469 432 469 429 469 b 417 471 421 469 419 471 b 354 474 401 472 379 474 b 288 540 317 474 288 504 b 307 589 288 560 294 576 l 446 724 l 356 724 b 258 693 282 724 265 707 b 251 676 256 688 253 682 b 163 581 231 614 217 586 l 153 581 b 65 689 96 581 65 629 l 65 846 b 158 939 65 897 107 939 l 665 939 b 731 913 692 939 714 929 b 758 847 749 894 758 871 b 731 779 758 822 749 799 l 549 594 b 546 588 547 593 546 590 b 553 579 546 583 549 581 "},"4":{"ha":794,"x_min":0,"x_max":0,"o":"m 757 424 b 794 386 778 424 794 407 l 794 332 b 757 294 794 311 778 294 b 735 272 744 294 735 283 l 735 249 b 781 107 735 197 749 146 b 794 65 789 96 794 81 b 735 1 794 32 768 3 l 517 1 b 457 65 483 3 457 32 b 471 107 457 81 461 96 b 517 249 503 146 517 197 b 472 294 517 274 497 294 l 131 294 b 49 376 85 294 49 331 l 49 385 b 68 457 49 410 56 436 l 326 881 b 432 939 349 917 389 939 l 646 939 b 735 850 694 939 735 900 l 735 446 b 757 424 735 435 744 424 m 517 699 b 499 714 517 708 508 714 b 467 692 489 714 476 708 l 319 451 b 317 442 318 449 317 444 b 335 424 317 432 324 424 l 481 424 b 517 469 506 424 517 444 "},"5":{"ha":814,"x_min":0,"x_max":0,"o":"m 604 567 b 814 294 728 526 814 447 b 424 -12 814 125 640 -12 b 161 61 310 -12 222 15 b 57 242 100 107 65 171 b 56 256 56 246 56 250 b 101 346 56 301 94 339 b 135 365 111 354 122 360 b 149 371 139 368 144 369 b 201 379 167 376 185 379 b 231 376 213 379 222 379 b 271 351 249 372 261 363 b 290 314 282 339 288 325 b 294 294 293 303 294 294 b 424 118 294 197 353 118 b 572 294 496 118 572 197 b 443 468 572 383 508 457 b 431 469 440 469 436 469 b 424 471 429 471 426 471 l 401 471 b 225 450 342 471 286 461 b 207 449 219 449 213 449 b 99 557 147 449 99 496 l 107 854 b 135 913 108 876 118 897 b 200 939 151 929 174 939 l 672 939 b 765 846 724 939 765 897 l 765 689 b 678 581 765 629 735 581 l 668 581 b 574 675 611 586 596 606 b 475 724 574 675 554 724 l 361 724 b 319 694 346 724 321 719 b 317 613 317 667 317 635 b 342 588 317 599 328 588 l 346 588 b 444 597 369 592 406 597 b 533 588 474 597 504 594 b 556 582 542 586 549 585 b 604 567 572 578 589 572 "},"6":{"ha":831,"x_min":0,"x_max":0,"o":"m 499 611 b 831 335 678 611 831 504 b 443 -8 831 171 738 -8 l 413 -8 b 49 472 163 1 49 229 b 440 951 49 736 194 951 b 724 811 567 951 654 910 b 743 740 735 794 743 768 b 657 639 743 694 721 647 b 639 638 650 639 644 638 b 533 717 563 638 544 693 b 440 810 525 732 513 810 b 294 561 388 810 294 725 l 294 550 b 300 543 294 544 297 543 b 307 546 303 543 306 544 b 499 611 344 572 418 611 m 460 133 b 588 299 532 133 588 201 b 449 468 588 396 521 468 b 308 300 399 468 308 424 b 460 133 308 203 376 133 "},"7":{"ha":753,"x_min":0,"x_max":0,"o":"m 557 482 b 496 239 507 397 496 303 b 501 165 496 200 500 172 b 510 114 507 147 510 131 b 386 -8 510 39 454 -8 b 364 -7 379 -8 371 -8 b 221 194 274 6 221 93 b 229 261 221 215 224 239 b 486 692 276 460 364 515 b 490 708 489 696 490 703 b 479 724 490 717 488 724 l 339 724 b 240 676 294 724 254 718 l 240 675 b 146 564 218 606 203 568 l 136 564 b 49 672 79 564 49 611 l 49 846 b 142 939 49 897 90 939 l 657 939 b 753 844 713 939 753 894 b 739 797 753 829 749 813 "},"8":{"ha":797,"x_min":0,"x_max":0,"o":"m 692 511 b 797 297 757 456 797 381 b 424 -8 797 128 654 -8 b 49 297 217 -8 49 128 b 154 511 49 381 89 456 b 163 531 160 515 163 522 b 154 550 163 538 160 544 b 72 707 103 593 72 647 b 424 951 72 842 229 951 b 774 707 617 951 774 842 b 692 550 774 647 743 593 b 683 531 686 544 683 538 b 692 511 683 522 686 515 m 424 810 b 293 707 342 810 293 764 b 418 604 293 651 340 606 l 428 604 b 553 707 507 606 553 651 b 424 810 553 764 504 810 m 419 126 b 558 294 496 126 558 201 b 419 463 558 388 496 463 b 281 294 343 463 281 388 b 419 126 281 201 343 126 "},"9":{"ha":831,"x_min":0,"x_max":0,"o":"m 467 950 b 831 471 717 940 831 714 b 439 -8 831 206 685 -8 b 156 131 313 -8 225 32 b 136 203 144 147 136 174 b 222 303 136 249 158 296 b 243 304 229 304 236 304 b 346 226 318 304 335 250 b 439 132 354 210 367 132 b 576 381 492 132 576 206 l 576 393 b 571 400 576 397 574 400 b 567 399 569 400 568 400 b 381 332 528 371 461 332 b 49 607 201 332 49 438 b 433 951 49 771 140 951 b 467 950 444 951 456 950 m 439 475 b 574 642 511 475 574 519 b 432 810 574 739 518 810 b 292 643 361 810 292 740 b 439 475 292 546 367 475 "}," ":{"ha":408,"x_min":0,"x_max":0,"o":""},"!":{"ha":269,"x_min":0,"x_max":0,"o":"m 160 221 b 269 110 221 221 269 172 b 160 0 269 49 221 0 b 49 110 99 0 49 49 b 160 221 49 172 99 221 m 56 874 l 56 878 b 115 939 56 911 82 939 l 203 939 b 264 876 236 939 264 910 l 264 874 l 226 313 b 186 274 225 290 207 274 l 132 274 b 92 313 111 274 93 290 "},"\"":{"ha":529,"x_min":0,"x_max":0,"o":"m 404 990 b 515 879 465 990 515 942 l 515 868 b 400 688 515 835 507 738 b 393 686 397 686 394 686 b 375 704 383 686 375 694 b 376 710 375 706 376 708 b 388 743 378 714 388 728 b 363 776 388 756 382 768 b 293 881 322 794 293 833 l 293 888 b 399 990 297 943 343 989 m 163 990 b 274 879 224 990 274 942 l 274 868 b 158 688 274 835 265 738 b 151 686 156 686 153 686 b 133 704 142 686 133 694 b 135 710 133 706 135 708 b 146 743 136 714 146 728 b 121 776 146 756 140 768 b 51 881 81 794 51 833 l 51 888 b 157 990 56 943 101 989 "},"#":{"ha":1168,"x_min":0,"x_max":0,"o":"m 1115 683 b 1161 638 1140 683 1161 663 b 1158 624 1161 633 1160 628 l 1150 600 b 1085 553 1140 572 1114 553 l 928 553 b 844 493 890 553 856 529 l 829 449 b 826 432 828 443 826 438 b 874 385 826 407 847 385 l 1014 385 b 1058 340 1039 385 1058 364 b 1056 325 1058 335 1057 331 l 1047 301 b 982 254 1038 274 1011 254 l 804 254 b 749 214 779 254 757 239 l 690 46 b 625 0 681 18 654 0 l 600 0 b 554 44 574 0 554 21 b 557 58 554 49 556 53 l 608 208 b 610 219 610 213 610 215 b 575 254 610 238 594 254 l 504 254 b 428 200 469 254 439 232 l 375 46 b 310 0 365 18 339 0 l 283 0 b 239 43 258 0 239 21 b 242 58 239 49 240 53 l 292 206 b 293 218 293 210 293 214 b 257 254 293 238 278 254 l 101 254 b 57 299 76 254 57 275 b 60 314 57 303 58 308 l 68 338 b 133 385 78 365 103 385 l 290 385 b 374 444 328 385 361 408 l 389 489 b 392 506 390 494 392 500 b 343 553 392 531 371 553 l 204 553 b 158 599 179 553 158 574 b 161 613 158 603 160 608 l 169 636 b 236 683 179 665 206 683 l 413 683 b 469 724 439 683 461 700 l 526 892 b 592 939 536 919 563 939 l 618 939 b 663 894 643 939 663 918 b 660 879 663 889 661 885 l 610 732 b 608 719 608 728 608 724 b 644 683 608 700 624 683 l 726 683 b 786 725 753 683 776 700 l 843 892 b 908 939 851 919 878 939 l 933 939 b 979 893 958 939 979 918 b 976 879 979 889 978 883 l 925 732 b 924 721 924 728 924 725 b 960 683 924 701 939 683 m 711 507 b 713 517 713 510 713 514 b 678 553 713 536 697 553 l 600 553 b 532 504 569 553 542 533 l 507 432 b 504 419 506 428 504 424 b 540 385 504 401 519 385 l 617 385 b 686 433 649 385 675 404 "},"$":{"ha":799,"x_min":0,"x_max":0,"o":"m 581 524 b 793 288 581 524 788 450 l 793 274 b 547 -3 793 117 703 22 b 511 -47 526 -7 511 -25 l 511 -103 b 463 -150 511 -129 489 -150 l 428 -150 b 381 -103 401 -150 381 -129 l 381 -47 b 343 -4 381 -26 364 -7 b 103 236 161 24 103 125 b 206 375 103 333 158 375 b 263 332 233 375 257 360 b 381 185 281 240 336 201 b 444 172 415 172 444 172 b 511 182 471 172 493 176 b 574 260 557 197 574 228 b 560 307 574 276 568 293 b 511 358 547 328 531 344 b 381 417 474 386 426 403 b 269 453 340 429 301 440 b 97 688 178 493 97 578 b 124 799 97 722 106 760 b 343 943 171 892 253 929 b 381 986 364 946 381 965 l 381 1040 b 428 1088 381 1067 401 1088 l 463 1088 b 511 1040 489 1088 511 1067 l 511 972 b 540 931 511 953 522 936 b 583 911 554 925 568 919 b 622 903 596 906 608 903 b 650 907 631 903 640 904 b 693 914 663 911 678 914 b 758 882 725 914 744 899 b 778 821 771 864 778 843 l 778 683 b 668 563 778 683 774 563 b 528 722 581 563 528 722 b 511 757 528 722 522 739 b 432 808 496 781 471 808 b 381 786 413 808 396 800 b 365 768 375 781 371 775 b 351 721 365 768 351 750 b 381 647 351 701 358 675 b 511 554 404 618 444 586 b 581 524 532 544 554 533 "},"%":{"ha":944,"x_min":0,"x_max":0,"o":"m 714 939 b 744 908 732 939 744 925 b 742 897 744 906 743 901 l 396 40 b 335 0 386 15 361 0 l 281 0 b 250 29 263 0 250 14 b 253 40 250 32 251 36 l 599 897 b 660 939 608 922 633 939 m 414 726 b 231 503 414 603 349 503 b 163 515 206 503 182 507 b 111 549 142 524 125 535 b 49 726 69 590 49 654 b 231 950 49 850 117 950 b 296 938 254 950 276 946 b 346 903 314 929 332 918 b 414 726 389 863 414 799 m 172 674 b 175 671 172 672 174 671 b 178 672 176 671 178 671 l 258 843 b 261 854 260 847 261 851 b 232 885 261 869 249 883 l 231 885 b 169 726 192 885 169 814 b 172 674 169 713 171 690 m 231 568 b 292 726 271 568 292 639 b 289 790 292 744 290 772 b 288 792 289 792 289 792 l 286 790 l 201 599 b 200 592 200 597 200 594 b 204 581 200 589 201 585 b 231 568 211 572 221 568 m 826 429 b 878 394 846 421 863 410 b 944 218 919 354 944 290 b 763 -6 944 94 879 -6 b 693 7 736 -6 714 -1 b 642 40 674 15 657 26 b 581 218 600 81 581 146 b 763 442 581 342 649 442 b 826 429 786 442 807 438 m 704 165 b 707 163 704 164 706 163 b 708 164 708 163 708 163 l 789 335 b 792 347 790 339 792 343 b 764 376 792 361 781 375 l 763 376 b 701 218 724 376 701 306 b 704 165 701 204 703 181 m 763 60 b 824 218 801 60 824 131 b 821 282 824 236 822 264 l 819 283 b 818 282 818 283 818 283 l 733 90 b 732 82 732 88 732 85 b 736 72 732 78 733 75 b 763 60 743 64 753 60 "},"&":{"ha":1096,"x_min":0,"x_max":0,"o":"m 943 756 b 1074 626 1019 756 1074 697 b 1065 581 1074 613 1071 596 b 857 383 1031 481 926 417 b 797 290 819 367 797 331 l 797 289 b 424 -18 797 119 654 -18 b 49 289 217 -18 49 119 b 171 515 49 379 96 460 b 174 522 174 518 174 519 b 171 529 174 525 174 528 b 72 699 110 572 72 632 b 424 943 72 833 229 943 b 774 699 617 943 774 833 b 771 665 774 688 774 676 l 771 664 b 707 575 764 626 742 593 b 553 518 669 556 626 542 b 353 433 478 494 431 486 l 353 432 b 281 286 310 404 281 349 b 419 118 281 193 343 118 b 558 231 479 118 542 164 l 558 238 b 528 268 558 254 544 268 b 510 261 522 268 515 265 b 507 258 508 260 507 260 b 467 244 496 250 481 244 b 428 260 453 244 439 250 b 410 300 415 271 410 285 b 415 329 410 310 411 319 b 510 414 425 351 453 385 b 633 458 542 431 582 446 b 663 465 643 460 653 463 b 681 469 668 467 674 468 b 715 481 693 474 704 478 b 721 483 717 482 719 482 b 842 628 825 525 840 606 l 842 633 b 939 756 847 660 843 751 m 424 801 b 293 699 342 801 293 756 l 293 692 b 379 617 297 646 336 617 b 393 618 383 617 389 618 b 514 653 453 626 490 638 b 547 714 536 667 547 690 b 531 758 547 729 542 746 b 424 801 510 785 472 801 "},"'":{"ha":288,"x_min":0,"x_max":0,"o":"m 163 990 b 274 879 224 990 274 942 l 274 868 b 158 688 274 835 265 738 b 151 686 156 686 153 686 b 133 704 142 686 133 694 b 135 710 133 706 135 708 b 146 743 136 714 146 728 b 121 776 146 756 140 768 b 51 881 81 794 51 833 l 51 888 b 157 990 56 943 101 989 "},"(":{"ha":472,"x_min":0,"x_max":0,"o":"m 424 0 b 472 -50 450 0 472 -22 l 472 -82 b 424 -131 472 -108 450 -131 l 358 -131 b 118 110 197 -131 118 110 b 67 469 83 228 67 349 b 118 828 67 590 83 711 b 358 1068 118 828 192 1068 l 424 1068 b 472 1019 450 1068 472 1046 l 472 988 b 424 939 472 961 450 939 b 286 679 349 939 308 804 b 267 453 274 604 267 528 b 283 251 267 385 272 318 b 424 0 304 129 344 0 "},")":{"ha":472,"x_min":0,"x_max":0,"o":"m 97 0 b 236 251 176 0 217 129 b 253 456 247 319 253 388 b 233 679 253 531 246 606 b 97 939 213 804 172 939 b 49 988 71 939 49 961 l 49 1019 b 97 1068 49 1046 71 1068 l 163 1068 b 403 828 329 1068 403 828 b 456 469 438 711 456 590 b 403 110 456 349 438 228 b 163 -131 403 110 322 -131 l 97 -131 b 49 -82 71 -131 49 -108 l 49 -50 b 97 0 49 -22 71 0 "},"*":{"ha":633,"x_min":0,"x_max":0,"o":"m 625 996 b 628 981 626 990 628 986 b 593 933 628 960 614 940 l 469 893 b 458 876 463 890 458 883 b 461 865 458 872 458 868 l 538 761 b 547 732 543 753 547 742 b 526 692 547 717 540 701 l 501 674 b 472 664 493 667 482 664 b 432 685 457 664 442 671 l 356 789 b 342 796 353 794 347 796 b 326 789 336 796 331 794 l 250 683 b 210 664 240 671 225 664 b 181 674 200 664 189 667 l 156 692 b 135 732 142 701 135 717 b 144 761 135 742 139 753 l 221 865 b 224 876 224 868 224 872 b 213 893 224 883 219 890 l 89 933 b 54 981 68 940 54 960 b 57 996 54 986 56 990 l 67 1025 b 114 1060 74 1046 93 1060 b 129 1057 119 1060 124 1058 l 253 1017 l 257 1017 b 276 1033 267 1017 276 1024 l 276 1164 b 325 1214 276 1192 299 1214 l 357 1214 b 406 1164 385 1214 406 1192 l 406 1035 b 425 1017 406 1024 415 1017 l 429 1017 l 553 1057 b 568 1060 558 1058 563 1060 b 615 1025 589 1060 608 1046 "},"+":{"ha":558,"x_min":0,"x_max":0,"o":"m 508 535 b 558 485 536 535 558 513 l 558 453 b 508 404 558 426 536 404 l 415 404 b 368 357 389 404 368 383 l 368 264 b 319 214 368 236 346 214 l 288 214 b 238 264 260 214 238 236 l 238 357 b 192 404 238 383 217 404 l 97 404 b 49 453 71 404 49 426 l 49 485 b 97 535 49 513 71 535 l 192 535 b 238 581 217 535 238 556 l 238 674 b 288 724 238 701 260 724 l 319 724 b 368 675 346 724 368 701 l 368 581 b 415 535 368 556 389 535 "},",":{"ha":288,"x_min":0,"x_max":0,"o":"m 163 221 b 274 110 224 221 274 172 l 274 99 b 158 -82 274 65 265 -32 b 151 -83 156 -83 153 -83 b 133 -65 142 -83 133 -75 b 135 -60 133 -64 135 -61 b 146 -26 136 -56 146 -42 b 121 7 146 -14 140 -1 b 51 111 81 25 51 64 l 51 118 b 157 221 56 174 101 219 "},"-":{"ha":542,"x_min":0,"x_max":0,"o":"m 492 535 b 542 485 519 535 542 513 l 542 453 b 492 404 542 426 519 404 l 99 404 b 49 453 71 404 49 426 l 49 485 b 99 535 49 513 71 535 "},".":{"ha":271,"x_min":0,"x_max":0,"o":"m 160 221 b 271 110 221 221 271 172 b 160 0 271 49 221 0 b 49 110 99 0 49 49 b 160 221 49 172 99 221 "},"/":{"ha":636,"x_min":0,"x_max":0,"o":"m 579 939 b 626 892 606 939 626 917 b 622 874 626 886 625 879 l 293 58 b 206 0 279 22 244 0 l 106 0 b 58 47 78 0 58 22 b 61 64 58 53 58 58 l 392 879 b 478 939 406 915 440 939 "},":":{"ha":269,"x_min":0,"x_max":0,"o":"m 160 221 b 269 110 221 221 269 172 b 160 0 269 49 221 0 b 49 110 99 0 49 49 b 160 221 49 172 99 221 m 160 625 b 269 514 221 625 269 576 b 160 404 269 453 221 404 b 49 514 99 404 49 453 b 160 625 49 576 99 625 "},";":{"ha":289,"x_min":0,"x_max":0,"o":"m 163 404 b 53 514 101 404 53 453 b 163 625 53 576 101 625 b 274 514 225 625 274 576 b 163 404 274 453 225 404 m 164 221 b 274 110 225 221 274 172 l 274 97 b 160 -82 274 63 264 -32 b 153 -83 157 -83 154 -83 b 135 -65 143 -83 135 -75 b 136 -60 135 -64 136 -61 b 146 -25 138 -56 146 -42 b 122 7 146 -14 140 -1 b 53 110 83 25 53 64 l 53 118 b 158 221 57 174 103 219 "},"<":{"ha":456,"x_min":0,"x_max":0,"o":"m 443 614 b 449 592 447 607 449 599 b 421 547 449 574 439 556 l 269 469 l 421 390 b 449 346 439 382 449 364 b 443 324 449 339 447 331 l 429 296 b 385 269 419 279 403 269 b 361 275 376 269 368 271 l 128 396 l 93 413 b 60 468 71 425 60 446 b 93 524 60 490 71 513 l 128 542 l 361 663 b 385 668 368 667 376 668 b 429 642 403 668 419 658 "},"=":{"ha":542,"x_min":0,"x_max":0,"o":"m 492 443 b 542 393 519 443 542 421 l 542 363 b 492 313 542 335 519 313 l 99 313 b 49 363 71 313 49 335 l 49 393 b 99 443 49 421 71 443 m 492 625 b 542 576 519 625 542 603 l 542 544 b 492 494 542 517 519 494 l 99 494 b 49 544 71 494 49 517 l 49 576 b 99 625 49 603 71 625 "},">":{"ha":456,"x_min":0,"x_max":0,"o":"m 61 324 b 56 346 57 331 56 339 b 82 390 56 364 65 382 l 233 469 l 82 547 b 56 592 65 556 56 574 b 61 614 56 599 57 607 l 75 642 b 119 668 83 658 101 668 b 142 663 126 668 135 667 l 376 542 l 410 525 b 444 469 433 513 444 492 b 411 414 444 447 433 425 l 376 396 l 142 275 b 119 269 135 271 126 269 b 75 296 101 269 83 279 "},"?":{"ha":778,"x_min":0,"x_max":0,"o":"m 404 221 b 515 110 465 221 515 172 b 404 0 515 49 465 0 b 294 110 343 0 294 49 b 404 221 294 172 343 221 m 394 949 b 703 799 517 949 640 921 b 729 688 721 760 729 722 b 556 453 729 578 649 493 b 474 333 513 431 474 383 b 415 282 474 288 425 283 l 361 282 b 299 328 322 282 306 307 b 294 354 294 338 294 349 l 294 358 b 404 607 294 519 392 597 l 406 608 b 475 719 461 651 475 690 b 460 768 475 750 460 768 b 394 808 442 793 419 808 b 299 722 325 808 299 722 b 158 563 299 722 246 563 b 49 683 51 563 49 683 l 49 821 b 68 882 49 843 56 864 b 132 914 81 899 101 914 b 176 907 149 914 164 911 b 204 903 186 904 196 903 b 243 911 218 903 231 906 b 394 949 290 936 336 949 "},"@":{"ha":929,"x_min":0,"x_max":0,"o":"m 544 899 b 924 476 761 875 924 693 l 924 465 b 915 389 924 439 921 414 b 753 239 915 389 890 253 b 722 238 742 238 732 238 b 585 283 651 238 607 267 b 554 301 575 293 565 301 b 524 289 546 301 536 297 b 454 271 503 276 479 271 b 292 472 364 271 292 361 b 454 679 292 585 364 679 b 531 661 483 679 508 672 b 558 654 539 656 549 654 b 579 657 565 654 572 654 l 615 672 b 633 676 622 675 628 676 b 669 642 656 676 669 661 l 669 450 b 711 351 669 354 711 351 l 718 351 b 803 467 797 351 803 440 l 803 474 b 497 779 803 643 665 779 b 190 474 328 779 190 643 b 192 451 190 467 192 458 b 481 169 203 300 328 176 l 499 169 b 599 186 533 169 567 175 b 619 189 606 189 613 189 b 669 163 639 189 658 181 b 681 128 676 151 681 139 b 640 72 681 104 665 81 b 499 47 596 56 549 47 l 479 47 b 71 438 265 56 89 225 b 69 474 69 450 69 463 b 497 901 69 710 261 901 b 544 899 513 901 528 900 m 543 472 b 479 601 543 536 514 601 b 417 472 446 601 417 536 b 479 346 417 408 446 346 b 538 424 504 346 528 381 b 543 472 542 439 543 456 "},"A":{"ha":843,"x_min":0,"x_max":0,"o":"m 824 111 b 842 65 835 99 842 82 l 842 60 b 775 0 839 26 808 0 l 571 0 b 504 63 536 0 506 26 l 504 67 b 517 106 504 81 510 94 b 536 150 529 121 536 135 b 531 169 536 157 535 163 b 403 208 515 196 479 208 b 292 163 321 208 292 185 b 318 118 292 144 307 128 l 322 114 b 344 65 336 101 344 85 l 344 57 b 278 0 340 24 311 0 l 118 0 b 50 61 83 0 53 26 l 50 65 b 69 113 50 83 60 94 b 229 588 69 113 147 239 l 238 622 b 243 667 242 639 243 653 b 169 860 243 760 169 801 b 171 874 169 864 169 869 b 260 939 185 935 244 939 l 458 939 b 614 815 532 939 597 888 l 719 356 b 822 113 758 186 813 124 b 824 111 824 113 824 111 m 418 339 b 483 404 454 339 483 369 b 482 419 483 410 483 414 l 429 651 b 410 667 426 661 418 667 b 392 651 401 667 394 661 l 339 419 b 338 406 338 415 338 410 b 404 339 338 369 365 339 "},"B":{"ha":814,"x_min":0,"x_max":0,"o":"m 326 672 b 350 569 326 626 335 593 b 407 535 365 546 385 535 b 494 575 444 535 474 549 b 526 672 515 601 526 635 b 494 768 526 710 515 742 b 407 808 474 794 444 808 b 361 793 389 808 374 803 b 333 753 347 783 338 769 b 328 717 331 743 329 731 b 326 678 326 701 326 689 m 563 268 b 526 365 563 306 550 339 b 433 404 503 392 471 404 b 358 365 404 404 379 392 b 326 268 338 339 326 306 l 326 264 b 361 165 326 221 338 189 b 444 131 385 142 413 131 b 532 171 482 131 511 144 b 563 268 553 197 563 231 m 657 492 b 779 401 714 474 756 443 b 814 268 803 360 814 315 b 736 79 814 194 788 131 b 547 0 683 26 621 0 l 114 0 l 108 1 b 67 22 92 3 78 10 b 49 65 54 35 49 49 b 63 107 49 81 53 94 b 108 249 93 150 108 197 l 108 690 b 63 833 108 742 93 790 b 49 874 53 844 49 858 b 67 918 49 892 54 906 b 108 939 78 931 92 938 l 493 939 b 682 861 567 939 631 913 b 760 672 733 808 760 746 b 735 572 760 638 751 604 b 657 492 718 540 692 514 "},"C":{"ha":796,"x_min":0,"x_max":0,"o":"m 701 915 b 765 882 732 915 753 899 b 785 822 779 865 785 843 l 785 683 b 675 563 785 683 782 563 b 538 722 589 563 560 679 b 440 808 538 722 506 808 b 308 469 356 808 308 657 b 440 131 308 282 351 131 b 557 292 489 131 535 210 b 667 376 571 342 615 376 l 672 376 b 778 257 740 376 778 322 b 771 207 778 242 776 224 b 440 -10 740 94 633 -10 b 49 469 176 -10 49 204 b 440 949 49 735 194 949 b 590 913 499 949 543 936 l 590 911 b 629 903 603 906 617 903 b 657 907 639 903 649 904 b 701 915 671 913 685 915 "},"D":{"ha":844,"x_min":0,"x_max":0,"o":"m 442 939 b 761 769 571 939 696 882 b 844 469 807 689 844 578 b 731 115 844 331 801 203 b 469 0 669 40 567 0 l 114 0 l 110 1 b 49 65 75 3 49 32 b 63 107 49 81 54 96 b 110 249 94 146 110 197 l 110 690 b 63 833 110 742 94 793 b 49 874 54 844 49 858 b 110 939 49 908 75 936 m 428 131 b 568 469 517 131 568 282 b 428 808 568 657 528 808 b 326 692 364 808 326 757 l 326 247 b 428 131 326 182 363 131 "},"E":{"ha":792,"x_min":0,"x_max":0,"o":"m 651 939 b 764 826 713 939 764 889 l 764 672 b 676 564 764 611 733 564 l 667 564 b 572 675 610 568 594 606 b 422 808 543 763 488 808 b 388 804 411 808 400 808 b 326 700 365 796 326 769 l 326 564 b 356 535 326 549 340 535 b 414 571 376 535 406 547 b 478 639 428 610 442 638 l 481 639 b 544 574 515 639 544 608 l 544 365 b 478 300 544 329 514 300 b 414 368 442 301 426 322 b 356 404 408 399 376 404 b 326 375 340 404 326 392 l 326 249 b 418 129 326 217 343 129 l 418 131 b 572 264 492 131 542 172 b 667 376 594 333 610 371 l 676 376 b 764 268 733 376 764 328 l 764 114 b 651 0 764 51 713 0 l 114 0 l 110 1 b 49 65 75 3 49 32 b 63 107 49 81 54 96 b 110 249 94 146 110 197 l 110 690 b 63 833 110 742 94 793 b 49 874 54 844 49 858 b 110 939 49 908 75 936 "},"F":{"ha":764,"x_min":0,"x_max":0,"o":"m 650 939 b 764 826 713 939 764 889 l 764 672 b 675 564 764 611 733 564 l 665 564 b 572 675 610 568 594 606 b 419 808 543 763 485 808 b 381 804 408 808 390 807 b 326 700 358 794 326 769 l 326 564 b 356 535 326 549 339 535 b 414 571 376 535 406 547 b 478 639 428 610 442 638 l 481 639 b 544 574 515 639 544 608 l 544 365 b 478 300 544 329 514 300 b 414 368 442 301 426 322 b 356 404 408 399 376 404 b 326 375 339 404 326 392 l 326 249 b 372 107 326 197 342 146 b 388 65 382 96 388 81 b 326 1 388 32 360 3 l 321 0 l 113 0 l 110 1 b 49 65 75 3 49 32 b 63 107 49 81 54 96 b 110 249 94 146 110 197 l 110 690 b 63 833 110 742 94 793 b 49 874 54 844 49 858 b 110 939 49 908 75 936 "},"G":{"ha":844,"x_min":0,"x_max":0,"o":"m 785 469 b 844 404 818 467 844 439 b 831 364 844 389 840 375 b 785 222 799 324 785 274 l 785 54 b 731 0 785 25 760 0 b 694 15 717 0 704 6 b 647 33 682 28 664 33 b 617 26 636 33 626 31 b 440 -10 568 4 510 -10 b 49 469 176 -10 49 204 b 440 949 49 735 194 949 b 590 913 499 949 543 936 l 590 911 b 629 903 603 906 617 903 b 657 907 639 903 649 904 b 701 915 671 913 685 915 b 765 883 732 915 753 900 b 785 822 778 865 785 843 l 785 683 b 675 563 785 683 782 563 b 522 722 589 563 524 718 b 519 729 521 725 521 728 b 440 808 497 779 476 808 b 308 469 356 808 308 657 b 440 131 308 282 351 131 b 543 231 497 131 528 185 b 551 278 549 246 551 263 b 521 364 551 308 542 339 b 507 404 513 375 507 389 b 567 469 507 439 533 467 "},"H":{"ha":821,"x_min":0,"x_max":0,"o":"m 807 833 b 760 690 775 793 760 742 l 760 249 b 807 107 760 197 775 146 b 821 65 815 96 821 81 b 760 1 821 32 794 3 l 756 0 l 547 0 l 543 1 b 482 65 510 3 482 32 b 496 107 482 81 488 96 b 543 249 528 146 543 197 l 543 317 b 454 404 543 365 503 404 l 414 404 b 326 317 365 404 326 365 l 326 249 b 372 107 326 197 340 146 b 386 65 381 96 386 81 b 326 1 386 32 360 3 l 321 0 l 113 0 l 108 1 b 49 65 75 3 49 32 b 63 107 49 81 53 96 b 108 249 94 146 108 197 l 108 690 b 63 833 108 742 94 793 b 49 874 53 844 49 858 b 108 939 49 908 75 936 l 326 939 b 386 874 360 936 386 908 b 372 833 386 858 381 844 b 326 690 340 793 326 742 l 326 624 b 414 535 326 575 365 535 l 454 535 b 543 624 503 535 543 575 l 543 690 b 496 833 543 742 528 793 b 482 874 488 844 482 858 b 543 939 482 908 510 936 l 760 939 b 821 874 794 936 821 908 b 807 833 821 858 815 844 "},"I":{"ha":386,"x_min":0,"x_max":0,"o":"m 372 833 b 326 690 340 793 326 742 l 326 249 b 372 107 326 197 340 146 b 386 65 382 96 386 81 b 326 1 386 32 360 3 l 322 0 l 114 0 l 108 1 b 49 65 75 3 49 32 b 63 107 49 81 54 96 b 108 249 94 146 108 197 l 108 690 b 63 833 108 742 94 793 b 49 874 54 844 49 858 b 108 939 49 908 75 936 l 326 939 b 386 874 360 936 386 908 b 372 833 386 858 382 844 "},"J":{"ha":703,"x_min":0,"x_max":0,"o":"m 642 939 b 703 874 676 936 703 908 b 689 833 703 858 697 844 b 642 690 657 793 642 742 l 642 275 b 332 -14 642 75 493 -14 l 325 -14 b 128 58 246 -14 176 14 b 49 236 78 104 49 167 b 50 272 49 247 49 263 b 219 446 56 364 133 446 b 256 440 231 446 243 443 b 338 360 300 428 329 397 b 340 332 340 350 340 340 b 290 247 340 285 311 260 b 272 231 282 243 276 238 b 265 207 268 224 265 215 b 333 139 265 171 293 139 b 358 143 342 139 350 140 b 425 240 407 158 425 217 l 425 690 b 414 760 425 708 421 743 b 363 808 400 794 381 808 b 311 765 343 808 324 792 b 278 675 301 744 289 708 b 193 564 256 606 250 568 l 183 564 b 96 672 126 564 96 611 l 96 826 b 208 939 96 888 147 939 "},"K":{"ha":819,"x_min":0,"x_max":0,"o":"m 756 299 b 819 188 817 289 819 201 l 819 161 b 667 -4 819 -4 667 -4 b 368 343 497 -4 406 179 b 354 354 365 350 360 354 b 326 293 342 354 326 336 l 326 231 b 372 107 326 185 343 142 b 386 65 381 96 386 81 b 326 1 386 32 360 3 l 321 0 l 114 0 l 108 1 b 49 65 75 3 49 32 b 63 107 49 81 53 96 b 108 249 94 146 108 197 l 108 690 b 63 833 108 742 94 793 b 49 874 53 844 49 858 b 108 939 49 908 75 936 l 326 939 b 386 874 360 936 386 908 b 372 833 386 858 381 844 b 326 690 340 793 326 742 l 326 654 b 340 572 326 619 328 592 b 358 561 340 572 349 561 b 375 572 364 561 369 564 b 481 719 397 604 446 672 b 499 775 493 736 499 756 b 479 832 499 796 493 815 l 479 833 b 465 874 471 844 465 858 b 525 939 465 908 492 936 l 743 939 b 803 874 776 936 803 908 b 789 833 803 858 799 844 b 518 488 778 819 518 488 b 496 426 504 469 496 449 b 508 381 496 411 500 396 b 647 258 539 326 594 265 l 654 258 b 744 300 696 258 704 300 b 756 299 749 300 751 299 "},"L":{"ha":719,"x_min":0,"x_max":0,"o":"m 632 376 b 719 268 689 376 719 328 l 719 114 b 607 0 719 51 669 0 l 114 0 l 110 1 b 49 65 75 3 49 32 b 63 107 49 81 54 96 b 110 249 94 146 110 197 l 110 690 b 63 833 110 742 94 793 b 49 874 54 844 49 858 b 110 939 49 908 75 936 l 326 939 b 386 874 360 936 386 908 b 372 833 386 858 382 844 b 326 690 340 793 326 742 l 326 249 b 407 131 326 132 407 131 l 411 131 b 528 264 425 131 485 139 b 622 376 553 333 565 371 "},"M":{"ha":915,"x_min":0,"x_max":0,"o":"m 856 249 b 901 107 856 197 869 146 b 915 65 911 96 915 81 b 856 1 915 32 889 3 l 851 0 l 643 0 l 638 1 b 578 65 604 3 578 32 b 592 107 578 81 583 96 b 638 249 624 146 638 197 l 638 569 b 618 589 638 581 628 589 b 604 581 613 589 608 586 l 551 506 l 471 390 b 419 364 458 372 439 364 b 367 390 399 364 379 372 l 339 431 l 285 510 b 265 524 279 519 271 524 b 249 500 256 524 249 515 l 249 361 b 388 65 249 249 388 153 b 322 0 388 29 358 0 l 114 0 b 49 64 79 0 50 29 b 118 275 49 139 118 161 l 118 639 b 49 871 118 758 51 808 b 117 939 49 908 79 939 l 253 939 b 322 888 292 939 315 917 b 396 728 328 872 349 800 l 454 644 b 472 635 458 639 465 635 b 489 644 478 635 485 639 l 553 733 b 613 874 603 799 613 874 b 674 939 613 908 639 936 l 856 939 b 915 874 889 936 915 908 b 901 833 915 858 911 844 b 856 690 869 793 856 742 "},"N":{"ha":840,"x_min":0,"x_max":0,"o":"m 840 874 b 771 665 840 810 771 783 l 771 292 b 840 68 771 181 840 153 l 840 65 b 775 0 840 29 811 0 l 638 0 b 497 203 544 0 569 92 l 493 211 l 299 490 b 276 501 293 499 285 501 b 250 475 263 501 250 492 l 250 361 b 379 67 250 249 379 154 l 379 65 b 314 0 379 29 350 0 l 115 0 b 50 64 79 0 50 29 l 50 67 b 119 275 50 139 119 163 l 119 639 b 50 874 119 758 50 810 b 115 939 50 910 81 939 l 254 939 b 324 888 293 939 317 917 b 396 729 329 872 350 800 l 593 447 b 614 436 599 440 606 436 b 642 464 628 436 642 447 l 642 665 b 572 874 642 785 572 810 b 638 939 572 910 603 939 l 775 939 b 840 874 811 939 840 910 "},"O":{"ha":829,"x_min":0,"x_max":0,"o":"m 439 949 b 829 469 674 949 829 735 b 439 -10 829 204 690 -10 b 49 469 175 -10 49 204 b 439 949 49 735 193 949 m 439 131 b 569 469 524 131 569 282 b 439 808 569 657 521 808 b 307 469 356 808 307 657 b 439 131 307 282 350 131 "},"P":{"ha":761,"x_min":0,"x_max":0,"o":"m 494 939 b 761 672 642 939 761 819 b 494 404 761 524 642 404 l 439 404 b 326 293 376 404 326 354 l 326 231 b 374 107 326 185 344 142 b 388 65 382 96 388 81 b 326 1 388 32 361 3 l 322 0 l 114 0 l 110 1 b 49 65 76 3 49 32 b 64 107 49 81 54 96 b 110 249 94 146 110 197 l 110 690 b 64 833 110 742 94 793 b 49 874 54 844 49 858 b 110 939 49 908 76 936 m 407 535 b 526 672 483 535 526 596 b 407 808 526 747 483 808 b 335 753 374 808 343 786 b 326 682 329 733 326 703 l 326 672 b 407 535 326 589 363 535 "},"Q":{"ha":829,"x_min":0,"x_max":0,"o":"m 829 469 b 628 40 829 282 758 118 b 729 -10 654 15 682 -6 b 788 -72 769 -14 788 -39 b 628 -222 788 -135 721 -222 b 600 -219 619 -222 610 -221 b 383 -10 444 -190 472 -19 l 378 -10 b 313 -46 351 -10 328 -29 b 275 -64 303 -57 289 -64 b 253 -58 267 -64 260 -62 l 251 -57 b 226 -15 236 -49 226 -32 b 233 10 226 -7 229 1 b 251 36 238 18 244 28 b 49 469 114 113 49 278 b 439 949 49 735 193 949 b 829 469 674 949 829 735 m 439 131 b 569 469 524 131 569 282 b 439 808 569 657 521 808 b 307 469 356 808 307 657 b 439 131 307 282 350 131 "},"R":{"ha":811,"x_min":0,"x_max":0,"o":"m 744 293 b 804 194 800 285 804 217 l 804 161 b 650 -4 804 -4 650 -4 b 356 368 481 -4 394 204 b 346 381 353 375 350 381 b 326 293 336 381 326 358 l 326 231 b 374 106 326 185 344 142 b 388 65 382 94 388 81 b 326 1 388 32 361 3 l 322 0 l 114 0 l 110 1 b 49 65 76 3 49 32 b 64 106 49 81 54 94 b 110 249 96 146 110 197 l 110 690 b 64 833 110 742 96 793 b 49 874 54 844 49 858 b 110 939 49 908 76 936 l 494 939 b 761 671 642 939 761 819 b 503 407 761 536 668 407 b 501 406 501 407 501 406 b 642 265 501 388 579 274 l 651 265 b 731 294 689 265 694 294 b 744 293 735 294 740 294 m 407 535 b 526 671 483 535 526 596 b 407 808 526 747 483 808 b 335 753 374 808 343 786 b 326 682 329 733 326 703 l 326 671 b 407 535 326 589 363 535 "},"S":{"ha":746,"x_min":0,"x_max":0,"o":"m 532 525 b 744 289 532 525 739 451 l 744 274 b 400 -10 744 86 614 -10 b 54 238 135 -10 54 107 b 157 375 54 335 111 375 b 214 333 185 375 208 360 b 394 174 244 178 381 174 l 396 174 b 525 260 492 174 525 218 b 511 307 525 278 519 293 b 222 454 450 404 306 418 b 49 688 129 493 49 578 b 75 800 49 724 57 761 b 383 949 138 921 261 949 b 535 913 442 949 486 936 l 535 911 b 574 903 547 906 560 903 b 601 907 582 903 592 904 b 644 915 614 913 629 915 b 708 882 676 915 696 899 b 729 822 722 865 729 843 l 729 683 b 619 563 729 683 725 563 b 479 722 532 563 479 722 b 383 808 479 722 451 808 b 317 769 358 808 336 794 b 303 722 317 769 303 751 b 532 525 303 675 339 599 "},"T":{"ha":854,"x_min":0,"x_max":0,"o":"m 742 939 b 854 826 804 939 854 888 l 854 672 b 767 564 854 611 824 564 l 757 564 b 672 675 700 568 694 606 b 639 765 661 708 649 744 b 603 808 626 792 614 808 b 571 760 592 808 581 794 b 560 690 567 743 560 708 l 560 249 b 607 107 560 197 575 146 b 621 65 615 96 621 81 b 560 1 621 32 594 3 l 556 0 l 347 0 l 343 1 b 282 65 310 3 282 32 b 296 107 282 81 288 96 b 343 249 328 146 343 197 l 343 690 b 332 760 343 708 336 743 b 301 808 324 794 313 808 b 264 765 289 808 276 792 b 231 675 254 744 242 708 b 146 564 208 606 203 568 l 136 564 b 49 672 79 564 49 611 l 49 826 b 161 939 49 888 99 939 "},"U":{"ha":821,"x_min":0,"x_max":0,"o":"m 761 939 b 821 874 794 936 821 908 b 807 833 821 858 817 844 b 761 690 775 793 761 742 l 761 219 b 542 0 761 99 663 0 l 328 0 b 110 219 207 0 110 99 l 110 690 b 63 833 110 742 94 793 b 49 874 54 844 49 858 b 110 939 49 908 75 936 l 326 939 b 388 874 360 936 388 908 b 374 833 388 858 382 844 b 326 690 342 793 326 742 l 326 283 b 435 131 326 224 350 131 b 543 283 513 131 543 224 l 543 690 b 497 833 543 742 529 793 b 483 874 489 844 483 858 b 543 939 483 908 510 936 "},"V":{"ha":842,"x_min":0,"x_max":0,"o":"m 776 939 b 842 874 813 939 842 910 b 822 826 842 856 833 839 b 772 719 822 826 801 794 b 663 351 743 644 703 526 l 654 318 b 643 211 646 281 643 243 b 657 86 643 139 657 86 b 660 65 658 79 660 72 b 594 0 660 29 631 0 l 296 0 b 231 65 260 0 231 29 b 232 78 231 69 231 74 l 232 79 b 235 88 232 82 233 85 b 254 200 239 106 254 147 b 235 310 254 233 244 271 l 172 583 b 69 826 132 753 79 815 l 67 829 b 49 874 56 840 49 856 b 114 939 49 910 78 939 l 322 939 b 388 874 358 939 388 910 b 374 835 388 858 382 846 b 356 790 364 819 356 806 l 356 788 b 463 289 356 783 463 289 b 481 275 465 279 472 275 b 500 289 489 275 497 279 b 585 658 500 289 578 625 b 588 683 586 667 588 675 b 525 825 588 744 549 800 b 503 874 511 836 503 854 b 568 939 503 910 532 939 "},"W":{"ha":1297,"x_min":0,"x_max":0,"o":"m 1232 939 b 1297 874 1268 939 1297 910 b 1229 719 1297 826 1258 794 b 1119 351 1199 644 1160 526 l 1111 318 b 1099 207 1101 279 1099 242 b 1113 86 1099 138 1113 86 b 1117 67 1115 79 1117 74 b 1114 51 1117 61 1115 57 b 1049 0 1107 21 1079 0 l 810 0 b 714 150 732 0 726 71 b 686 329 704 207 686 329 b 672 340 685 338 679 340 b 657 329 665 340 660 338 b 624 114 656 322 631 163 b 549 0 611 36 600 0 l 296 0 b 231 65 260 0 231 29 b 232 78 231 69 232 74 l 232 79 b 235 88 233 82 233 85 b 254 200 239 106 254 147 b 235 310 254 233 244 271 l 172 583 b 69 826 133 753 79 815 b 68 829 68 828 68 828 b 50 874 57 840 50 857 l 50 879 b 117 939 53 913 82 939 l 321 939 b 388 878 356 939 386 913 l 388 872 b 375 835 388 858 382 844 b 356 788 363 818 356 803 b 463 289 356 783 463 289 b 482 275 465 279 474 275 b 500 289 490 275 499 279 b 567 588 500 289 560 554 b 574 649 569 599 574 621 b 525 825 574 694 564 758 b 503 875 513 844 503 857 b 506 889 503 879 504 883 b 569 939 513 918 539 939 l 778 939 b 843 883 810 939 839 915 b 844 875 843 881 844 878 b 831 835 844 863 839 854 b 818 771 825 815 818 794 b 821 744 818 763 818 753 b 919 289 822 740 919 289 b 938 275 922 279 929 275 b 956 289 946 275 954 279 b 1019 564 956 289 1013 531 b 1026 631 1024 583 1026 606 b 979 824 1026 693 1011 767 b 960 882 963 851 960 865 b 1026 939 960 915 993 939 "},"X":{"ha":843,"x_min":0,"x_max":0,"o":"m 617 546 b 599 469 606 522 599 496 b 618 392 599 443 606 417 l 640 346 b 814 119 640 346 703 219 b 843 68 831 107 843 89 l 843 65 b 778 0 843 29 814 0 l 525 0 b 460 49 494 0 468 19 b 458 67 458 56 458 61 b 460 83 458 72 458 78 b 465 96 461 88 463 92 b 472 146 468 107 472 124 b 451 238 472 171 468 203 l 431 279 b 408 293 426 289 418 293 b 386 279 400 293 392 289 l 367 238 b 347 150 351 206 347 175 b 357 92 347 122 353 100 b 358 88 357 90 358 89 b 363 65 361 81 363 74 b 297 0 363 29 333 0 l 118 0 b 50 57 85 0 56 24 l 50 65 b 71 114 50 85 57 101 b 85 124 75 117 79 121 b 268 333 119 149 224 239 l 289 376 b 311 472 304 407 311 439 b 289 567 311 504 304 538 l 261 621 b 88 815 221 706 118 796 b 50 872 65 825 50 846 b 51 883 50 875 50 879 b 118 939 56 915 85 939 l 390 939 b 456 889 421 939 449 918 b 457 872 457 883 457 878 b 454 854 457 867 457 860 b 453 849 454 853 454 850 b 444 790 450 840 444 818 b 465 699 444 764 449 732 l 485 661 b 507 647 489 653 497 647 b 529 661 515 647 525 653 l 550 703 b 561 763 558 721 561 742 b 549 853 561 803 551 842 l 547 854 l 547 857 b 546 874 546 863 546 868 b 547 890 546 879 546 885 b 613 939 554 919 582 939 l 778 939 b 843 874 814 939 843 910 l 843 871 b 817 822 843 851 832 833 b 646 606 799 807 694 697 "},"Y":{"ha":843,"x_min":0,"x_max":0,"o":"m 778 939 b 843 874 814 939 843 910 b 824 826 843 856 835 839 b 682 632 824 826 729 771 b 560 279 682 632 604 407 b 556 249 557 269 556 258 b 601 107 556 197 569 146 b 615 65 611 96 615 81 b 556 1 615 32 589 3 l 550 0 l 343 0 l 338 1 b 278 65 304 3 278 32 b 292 107 278 81 283 96 b 338 249 324 146 338 197 b 325 318 338 272 333 296 l 194 642 b 68 829 144 765 101 794 b 50 875 58 840 50 857 l 50 879 b 118 939 53 913 83 939 l 324 939 b 333 938 326 939 331 939 b 389 874 365 933 389 906 b 374 768 389 863 374 818 b 381 711 374 750 375 731 b 454 521 381 710 454 521 b 482 497 460 510 469 497 b 513 533 492 497 503 507 b 549 653 513 533 547 647 b 556 717 553 674 556 696 b 526 825 556 764 544 806 b 504 874 513 836 504 854 b 560 938 504 906 529 933 b 569 939 563 939 567 939 "},"Z":{"ha":701,"x_min":0,"x_max":0,"o":"m 614 375 b 700 268 671 375 700 326 l 700 94 b 607 0 700 42 658 0 l 147 0 b 49 99 90 0 49 47 b 63 149 49 115 53 132 l 424 774 b 426 785 425 778 426 781 b 403 808 426 797 417 808 l 393 808 b 240 675 326 808 269 763 b 146 564 218 606 203 568 l 136 564 b 49 671 79 564 49 611 l 49 846 b 142 939 49 897 90 939 l 606 939 b 700 843 661 939 700 893 b 688 796 700 828 696 811 l 324 168 b 321 156 321 164 321 160 b 346 131 321 143 331 131 l 357 131 b 510 264 422 131 479 176 b 603 375 531 333 546 371 "},"[":{"ha":404,"x_min":0,"x_max":0,"o":"m 354 1068 b 404 1019 382 1068 404 1046 l 404 988 b 354 939 404 961 382 939 l 297 939 b 267 908 281 939 267 925 l 267 31 b 297 0 267 13 281 0 l 354 0 b 404 -50 382 0 404 -22 l 404 -82 b 354 -131 404 -108 382 -131 l 133 -131 b 49 -47 86 -131 49 -93 l 49 985 b 133 1068 49 1031 86 1068 "},"\\":{"ha":636,"x_min":0,"x_max":0,"o":"m 478 0 b 392 58 440 0 406 22 l 61 874 b 58 890 58 879 58 885 b 106 939 58 915 78 939 l 206 939 b 293 879 244 939 279 915 l 622 64 b 626 46 625 58 626 51 b 579 0 626 21 606 0 "},"]":{"ha":404,"x_min":0,"x_max":0,"o":"m 99 -131 b 49 -82 71 -131 49 -108 l 49 -50 b 99 0 49 -22 71 0 l 156 0 b 186 31 174 0 186 13 l 186 908 b 156 939 186 925 174 939 l 99 939 b 49 988 71 939 49 961 l 49 1019 b 99 1068 49 1046 71 1068 l 321 1068 b 404 985 367 1068 404 1031 l 404 -47 b 321 -131 404 -93 367 -131 "},"^":{"ha":331,"x_min":0,"x_max":0,"o":"m 213 1201 b 326 1032 214 1201 326 1032 b 329 1024 328 1029 329 1026 b 324 1013 329 1019 326 1015 l 314 1004 b 306 1001 311 1003 308 1001 b 294 1007 301 1001 297 1004 l 189 1119 l 85 1007 b 72 1001 82 1004 76 1001 b 65 1004 69 1001 68 1003 l 56 1013 b 50 1024 53 1015 50 1019 b 53 1032 50 1026 51 1029 b 167 1201 53 1032 165 1201 b 188 1213 171 1208 179 1213 l 192 1213 b 213 1201 200 1213 207 1208 "},"_":{"ha":714,"x_min":0,"x_max":0,"o":"m 665 131 b 714 81 692 131 714 108 l 714 49 b 665 0 714 22 692 0 l 97 0 b 49 49 69 0 49 22 l 49 81 b 97 131 49 108 69 131 "},"`":{"ha":233,"x_min":0,"x_max":0,"o":"m 76 1207 b 93 1213 82 1211 88 1213 b 118 1200 103 1213 113 1208 l 229 1032 b 232 1024 231 1029 232 1026 b 226 1013 232 1019 229 1015 l 217 1004 b 208 1001 214 1003 211 1001 b 197 1006 204 1001 200 1003 l 60 1154 b 53 1174 54 1160 53 1167 b 64 1197 53 1182 56 1192 "},"a":{"ha":757,"x_min":0,"x_max":0,"o":"m 700 229 b 757 108 700 169 757 161 b 607 -11 757 76 729 -11 b 519 19 571 -11 542 1 b 481 32 508 28 494 32 b 447 24 469 32 457 29 b 329 -8 411 3 371 -8 b 49 339 174 -8 49 147 b 329 694 49 532 174 694 b 460 663 379 694 422 683 b 508 650 474 654 492 650 b 543 657 519 650 532 653 l 607 682 b 639 689 618 686 629 689 b 700 631 674 689 700 663 m 482 339 b 372 561 482 449 432 561 b 265 339 314 561 265 449 b 372 122 265 231 314 122 b 472 254 415 122 454 181 b 482 339 479 281 482 310 "},"b":{"ha":761,"x_min":0,"x_max":0,"o":"m 497 696 b 761 340 675 696 761 533 b 481 -7 761 149 635 -7 b 399 11 453 -7 425 -1 b 375 22 390 14 382 18 b 325 35 358 31 342 35 b 267 19 306 35 285 29 b 190 0 242 7 211 0 b 156 8 176 0 165 3 b 110 129 111 35 110 113 l 110 689 b 63 832 110 740 94 792 b 49 872 54 843 49 857 b 78 926 50 896 64 914 b 121 953 90 938 106 946 l 233 997 b 265 1004 244 1001 256 1004 b 326 946 301 1004 326 978 l 326 692 b 360 658 326 672 343 658 b 378 664 365 658 372 660 b 497 696 407 686 461 696 m 436 124 b 543 340 496 124 543 232 b 436 563 543 450 496 563 b 326 340 378 563 326 450 b 436 124 326 232 378 124 "},"c":{"ha":644,"x_min":0,"x_max":0,"o":"m 390 558 b 282 360 331 558 285 478 l 282 350 b 367 171 282 240 325 185 b 399 167 378 168 388 167 b 481 201 429 167 458 179 b 551 239 500 221 525 239 b 593 221 565 239 579 235 b 624 153 613 201 624 178 b 472 3 624 99 574 39 b 389 -8 446 -4 418 -8 b 49 344 201 -8 49 150 b 389 697 49 539 201 697 b 588 631 463 697 532 672 b 643 535 618 607 639 572 b 644 514 644 528 644 521 b 556 392 644 458 618 400 b 543 390 551 392 547 390 b 444 494 465 390 444 494 b 390 558 440 526 418 558 "},"d":{"ha":757,"x_min":0,"x_max":0,"o":"m 700 231 b 757 108 700 169 757 163 b 608 -11 757 76 731 -11 b 519 21 572 -11 542 3 b 479 35 507 31 493 35 b 451 29 469 35 460 33 b 411 11 439 24 425 17 b 331 -7 385 -1 357 -7 b 49 340 175 -7 49 149 b 313 697 49 533 132 697 b 433 664 350 697 403 686 b 451 658 439 660 446 658 b 483 689 468 658 483 671 b 438 832 483 740 469 792 b 422 872 428 843 422 857 b 453 926 424 896 438 914 b 494 953 465 938 479 946 l 608 997 b 640 1004 619 1001 631 1004 b 700 946 675 1004 700 978 m 374 124 b 483 340 433 124 483 232 b 374 563 483 450 433 563 b 267 340 314 563 267 450 b 374 124 267 232 314 124 "},"e":{"ha":683,"x_min":0,"x_max":0,"o":"m 588 631 b 683 436 658 571 683 496 b 674 375 683 413 679 392 b 489 307 650 310 489 307 l 346 307 b 297 258 318 307 297 283 b 301 239 297 251 299 246 b 367 171 318 201 342 179 b 401 167 378 168 389 167 b 497 201 436 167 475 179 b 568 239 517 221 542 239 b 610 221 582 239 596 235 b 636 161 628 203 636 182 b 472 3 636 104 579 40 b 389 -8 446 -4 417 -8 b 49 344 201 -8 49 150 b 389 697 49 539 201 697 b 588 631 463 697 533 675 m 454 428 b 447 486 454 451 450 475 l 444 494 b 390 558 440 526 418 558 b 290 435 344 558 307 511 b 289 424 289 431 289 426 b 344 367 289 393 313 367 l 399 367 b 454 419 428 367 454 389 "},"f":{"ha":549,"x_min":0,"x_max":0,"o":"m 457 689 b 522 622 493 689 522 658 b 454 558 521 586 489 558 l 418 558 b 364 504 388 558 364 535 l 364 247 b 410 106 364 196 379 144 b 425 64 419 94 425 79 b 364 0 425 31 397 1 l 147 0 b 86 64 113 1 86 31 b 100 106 86 79 92 94 b 147 247 132 144 147 196 l 147 526 b 115 558 147 544 132 558 b 50 624 79 558 50 588 b 65 668 50 638 54 653 b 110 689 75 683 92 689 l 118 689 b 146 717 133 689 146 701 b 368 1004 146 829 182 1004 b 549 875 507 1004 549 938 b 489 771 549 821 517 771 b 393 835 426 771 438 835 b 363 767 375 835 363 807 b 364 747 363 760 364 754 b 419 689 367 715 388 689 "},"g":{"ha":758,"x_min":0,"x_max":0,"o":"m 581 722 b 567 725 576 725 571 725 b 540 714 557 725 547 721 b 532 693 535 707 532 700 b 551 664 532 681 539 669 b 728 428 657 618 728 529 b 388 158 728 279 575 158 b 293 169 356 158 324 163 l 292 169 b 281 158 286 169 281 164 b 285 151 281 157 282 154 b 696 69 339 115 608 175 b 711 50 701 63 707 57 b 739 -49 731 19 739 -14 b 697 -181 739 -96 724 -142 b 456 -306 650 -253 539 -294 b 378 -311 431 -310 404 -311 b 83 -143 228 -311 83 -253 b 172 -15 83 -62 128 -29 b 94 107 114 17 94 61 b 99 144 94 119 96 132 b 153 214 104 174 125 196 b 158 224 157 217 158 219 b 154 232 158 226 157 231 b 49 428 89 282 49 350 b 388 697 49 576 200 697 b 431 729 408 697 426 710 b 614 897 449 797 494 897 b 758 796 717 897 758 846 b 699 710 758 760 736 724 b 650 700 679 703 664 700 b 581 722 621 700 603 713 m 301 -53 b 282 -72 290 -53 282 -62 b 289 -86 282 -76 285 -82 b 390 -114 308 -103 340 -114 b 583 -72 435 -114 583 -107 b 540 -50 583 -54 567 -50 b 397 -58 504 -50 451 -58 l 390 -58 b 304 -53 358 -57 331 -56 m 390 272 b 499 428 450 272 499 336 b 390 582 499 518 450 582 b 282 428 331 582 282 518 b 390 272 282 336 331 272 "},"h":{"ha":815,"x_min":0,"x_max":0,"o":"m 758 231 b 815 108 758 171 815 163 b 667 -11 815 76 788 -11 b 528 150 549 -11 528 82 b 533 217 528 182 532 208 b 544 350 542 279 544 350 b 438 563 542 457 494 563 b 326 340 378 563 326 450 l 326 247 b 374 106 326 196 342 144 b 388 64 382 94 388 79 b 326 0 388 31 361 1 l 110 0 b 50 64 76 1 50 31 b 64 106 50 79 54 94 b 110 247 96 144 110 196 l 110 689 b 64 832 110 740 96 792 b 50 868 56 842 50 854 l 50 872 b 79 926 50 896 65 914 b 121 953 92 938 106 946 l 235 997 b 267 1004 246 1001 257 1004 b 326 946 301 1004 326 978 l 326 700 b 364 663 326 679 344 663 b 385 669 371 663 378 665 b 497 696 414 688 464 696 b 761 340 676 696 761 533 b 758 238 761 340 761 265 "},"i":{"ha":388,"x_min":0,"x_max":0,"o":"m 110 0 b 50 64 76 1 50 31 b 64 106 50 79 54 94 b 110 247 96 144 110 196 l 110 374 b 64 517 110 425 96 476 b 50 553 56 526 50 539 l 50 557 b 79 611 50 579 65 599 b 121 638 92 622 106 631 l 235 682 b 267 689 246 686 257 689 b 328 631 301 689 328 663 l 328 247 b 374 106 328 196 342 144 b 388 64 382 94 388 79 b 328 0 388 31 361 1 m 222 722 b 113 831 163 722 113 771 b 222 940 113 892 163 940 b 332 831 283 940 332 892 b 222 722 332 771 283 722 "},"j":{"ha":372,"x_min":0,"x_max":0,"o":"m 233 682 b 265 689 244 686 256 689 b 325 631 300 689 325 663 l 325 -33 b 46 -287 325 -187 200 -287 b -19 -222 10 -287 -19 -258 b 18 -169 -19 -197 0 -181 b 104 -58 60 -144 92 -106 b 108 -25 107 -46 108 -33 l 108 374 b 63 517 108 425 94 476 b 49 553 54 526 49 539 l 49 557 b 78 611 49 579 64 599 b 119 638 90 622 104 631 m 221 940 b 331 831 282 940 331 892 b 221 722 331 771 282 722 b 111 831 161 722 111 771 b 221 940 111 892 161 940 "},"k":{"ha":817,"x_min":0,"x_max":0,"o":"m 760 229 b 817 108 760 171 817 161 b 667 -11 817 76 789 -11 b 528 150 549 -11 528 82 b 533 217 528 182 532 208 b 536 235 535 222 535 229 l 536 247 b 525 297 536 260 535 278 b 429 354 506 335 468 354 b 356 328 403 354 376 346 b 328 265 338 311 328 289 l 328 247 b 374 106 328 196 342 144 b 388 64 383 94 388 79 b 328 0 388 31 361 1 l 110 0 b 50 64 76 1 50 31 b 64 106 50 79 56 94 b 110 247 96 144 110 196 l 110 689 b 64 832 110 740 96 792 b 50 868 57 842 50 854 l 50 872 b 79 926 50 896 65 914 b 121 953 92 938 106 946 l 235 997 b 267 1004 246 1001 257 1004 b 328 946 303 1004 328 978 l 328 526 b 350 504 328 513 339 504 b 365 510 356 504 361 506 l 372 515 l 388 529 b 433 632 418 556 433 593 l 433 639 b 506 689 433 689 501 689 l 672 689 b 732 657 713 689 725 672 b 738 626 735 649 738 639 b 696 583 738 607 718 593 b 550 499 649 563 594 532 b 544 488 546 496 544 492 b 558 471 544 479 550 472 b 615 463 578 469 600 467 b 760 260 760 418 760 289 "},"l":{"ha":388,"x_min":0,"x_max":0,"o":"m 326 247 b 374 106 326 196 342 144 b 388 64 382 94 388 79 b 326 0 388 31 361 1 l 110 0 b 49 64 76 1 49 31 b 64 106 49 79 54 94 b 110 247 96 144 110 196 l 110 689 b 64 832 110 740 96 792 b 49 872 54 843 49 857 b 79 926 50 896 64 914 b 121 953 92 938 106 946 l 235 997 b 267 1004 246 1001 257 1004 b 326 946 301 1004 326 978 "},"m":{"ha":1250,"x_min":0,"x_max":0,"o":"m 1193 229 b 1250 108 1193 171 1250 161 b 1101 -11 1250 76 1222 -11 b 961 151 982 -11 961 83 b 967 217 961 182 965 208 b 978 350 975 279 978 350 b 871 563 975 457 928 563 b 768 415 825 563 785 496 b 761 340 764 392 761 365 b 758 238 761 340 760 260 l 758 231 b 815 108 758 171 815 163 b 667 -11 815 76 788 -11 b 526 151 547 -11 526 83 b 532 217 526 183 531 208 b 543 350 542 279 543 350 b 436 563 542 457 494 563 b 351 476 403 563 372 528 b 326 340 336 438 326 389 l 326 247 b 374 106 326 196 342 144 b 388 64 382 94 388 79 b 326 0 388 31 361 1 l 110 0 b 49 64 76 1 49 31 b 63 106 49 79 54 94 b 110 247 94 144 110 196 l 110 374 b 63 517 110 425 94 476 b 49 557 54 528 49 542 b 79 611 50 579 64 599 b 121 638 92 622 106 631 l 235 682 b 267 689 246 686 257 689 b 326 629 301 689 326 663 b 332 622 326 629 328 622 b 344 633 336 622 344 633 b 497 696 378 675 446 696 b 676 593 592 696 626 657 b 710 576 685 582 697 576 b 746 597 724 576 738 583 b 932 696 776 646 846 696 b 1196 340 1119 696 1196 533 b 1193 238 1196 340 1194 265 "},"n":{"ha":815,"x_min":0,"x_max":0,"o":"m 760 229 b 815 108 760 169 815 161 b 667 -11 815 76 788 -11 b 528 150 549 -11 528 82 b 533 217 528 182 532 208 b 544 350 542 279 544 350 b 438 563 542 457 494 563 b 354 479 404 563 374 529 b 326 342 338 440 328 390 l 326 247 b 374 106 326 196 342 144 b 388 64 382 94 388 79 b 326 0 388 31 361 1 l 110 0 b 50 64 76 1 50 31 b 64 106 50 79 54 94 b 110 247 96 144 110 196 l 110 374 b 64 517 110 425 96 476 b 50 553 56 526 50 539 l 50 557 b 79 611 50 579 65 599 b 121 638 92 622 106 631 l 235 682 b 267 689 246 686 257 689 b 326 629 301 689 326 663 b 332 622 326 629 326 624 b 344 633 335 622 339 625 b 497 696 379 676 446 696 b 761 340 679 696 761 533 b 760 238 761 340 761 265 "},"o":{"ha":728,"x_min":0,"x_max":0,"o":"m 388 697 b 728 344 575 697 728 539 b 388 -8 728 150 575 -8 b 49 344 200 -8 49 150 b 388 697 49 539 200 697 m 390 129 b 499 344 450 129 499 225 b 390 558 499 463 450 558 b 282 344 331 558 282 463 b 390 129 282 225 331 129 "},"p":{"ha":761,"x_min":0,"x_max":0,"o":"m 481 696 b 761 340 635 696 761 533 b 481 -7 761 149 635 -7 b 400 11 453 -7 425 -1 b 378 24 393 14 385 18 b 358 31 372 28 365 31 b 326 -1 342 31 326 18 l 326 -68 b 374 -211 326 -119 342 -171 b 388 -251 382 -222 388 -236 b 326 -315 388 -285 361 -314 l 326 -317 l 110 -317 l 110 -315 b 49 -251 76 -314 49 -285 b 63 -211 49 -236 54 -222 b 110 -68 94 -171 110 -119 l 110 374 b 63 517 110 425 94 476 b 49 557 54 528 49 542 b 78 611 50 579 64 599 b 121 638 90 622 106 631 l 235 682 b 267 689 246 686 257 689 b 326 635 300 689 324 665 l 326 628 b 331 622 326 626 328 622 b 344 633 336 622 344 633 b 481 696 379 676 429 696 m 438 124 b 544 340 496 124 544 232 b 438 563 544 450 496 563 b 326 340 378 563 326 450 b 438 124 326 232 378 124 "},"q":{"ha":760,"x_min":0,"x_max":0,"o":"m 700 -68 b 746 -211 700 -119 714 -171 b 760 -251 756 -222 760 -236 b 700 -315 760 -286 733 -314 l 700 -317 l 483 -317 l 483 -315 b 422 -251 449 -314 422 -286 b 436 -211 422 -236 428 -222 b 483 -68 468 -171 483 -119 l 483 -1 b 451 31 483 18 468 31 b 432 24 444 31 438 28 b 410 11 424 18 417 14 b 329 -7 383 -1 356 -7 b 49 340 174 -7 49 149 b 329 696 49 533 174 696 b 447 651 372 696 415 682 b 482 639 447 651 458 639 b 539 656 497 639 515 643 b 565 671 547 661 557 667 b 625 689 583 682 604 689 b 657 682 636 689 647 688 b 700 610 683 671 700 644 m 372 124 b 482 340 432 124 482 232 b 372 563 482 450 432 563 b 265 340 314 563 265 450 b 372 124 265 232 314 124 "},"r":{"ha":635,"x_min":0,"x_max":0,"o":"m 558 685 b 632 583 601 669 632 629 l 632 569 b 553 399 632 453 597 406 b 540 397 549 399 544 397 b 525 400 535 397 531 399 b 453 528 467 414 457 489 b 426 563 447 563 426 563 b 350 483 393 563 371 532 b 328 342 333 443 328 390 l 328 247 b 374 106 328 196 342 144 b 388 64 382 94 388 79 b 328 0 388 31 361 1 l 110 0 b 50 64 76 1 50 31 b 64 106 50 79 54 94 b 110 247 96 144 110 196 l 110 374 b 64 517 110 425 96 476 b 50 553 56 526 50 539 l 50 557 b 79 611 50 579 65 599 b 121 638 92 622 106 631 l 235 682 b 267 689 246 686 257 689 b 328 631 301 689 328 663 l 328 629 b 332 622 328 626 328 624 b 346 633 335 622 339 625 b 481 696 379 676 429 696 b 558 685 513 696 538 692 "},"s":{"ha":589,"x_min":0,"x_max":0,"o":"m 525 343 b 589 201 557 317 589 265 b 588 183 589 196 588 190 b 313 -1 575 72 488 -1 b 49 210 106 -1 49 78 l 49 231 b 125 332 49 231 56 317 b 153 335 133 333 143 335 b 235 271 183 335 219 322 b 319 200 251 224 293 207 b 344 197 328 199 336 197 b 374 201 354 197 364 199 b 407 239 390 207 407 217 l 407 244 b 238 340 401 279 299 314 b 49 529 125 389 49 428 b 286 688 49 615 113 688 l 390 688 b 588 540 522 688 588 639 b 490 443 588 476 556 443 b 378 517 446 443 407 467 b 308 565 365 536 340 565 b 261 542 300 565 271 564 b 258 526 258 536 258 532 b 318 465 258 494 306 475 b 439 399 358 439 401 418 b 525 343 471 382 503 363 "},"t":{"ha":522,"x_min":0,"x_max":0,"o":"m 418 558 b 364 504 389 558 364 535 l 364 336 b 404 232 364 274 371 232 b 425 236 411 232 417 233 b 446 239 432 239 439 239 b 507 163 475 239 507 219 b 504 128 507 151 507 140 b 306 -6 496 76 431 -6 b 147 225 163 -6 147 164 l 147 526 b 138 550 147 536 143 543 b 115 558 132 556 124 558 b 50 624 79 558 50 588 b 65 668 50 638 54 653 b 176 818 76 685 154 765 b 265 876 192 854 226 876 b 335 857 293 876 317 869 b 364 796 353 843 364 824 l 364 771 b 365 743 364 763 364 753 b 425 689 368 713 394 689 l 457 689 b 522 625 492 689 522 660 l 522 622 b 454 558 521 586 490 558 "},"u":{"ha":818,"x_min":0,"x_max":0,"o":"m 761 240 b 818 119 761 181 818 172 b 669 -1 818 88 790 -1 b 543 78 597 -1 561 36 b 525 54 543 78 526 57 b 372 -8 492 13 424 -8 b 110 347 150 -8 110 156 l 110 374 b 63 517 110 425 94 476 b 49 557 54 528 49 542 b 78 611 50 579 64 599 b 121 638 90 622 106 631 l 233 682 b 265 689 244 686 256 689 b 326 631 301 689 326 663 l 326 339 b 433 125 329 232 343 125 b 517 210 467 125 497 160 b 543 346 533 249 543 297 l 543 374 b 497 517 543 425 528 476 b 482 557 488 528 482 542 b 513 611 483 579 497 599 b 554 638 525 622 539 631 l 668 682 b 700 689 679 686 690 689 b 760 631 735 689 760 663 "},"v":{"ha":725,"x_min":0,"x_max":0,"o":"m 664 689 b 722 636 696 689 715 667 b 724 625 722 632 724 629 b 706 581 724 607 717 592 b 607 369 706 581 649 488 l 515 67 b 424 0 503 26 465 0 l 319 0 b 228 67 278 0 240 26 l 153 313 b 63 517 150 322 118 449 b 49 557 54 528 49 542 b 79 611 50 579 64 599 b 121 638 92 622 106 631 l 233 682 b 265 689 244 686 256 689 b 326 629 301 689 326 663 b 369 349 326 535 340 439 l 396 260 b 417 244 400 250 408 244 b 438 260 425 244 435 250 l 474 376 b 482 440 479 397 482 419 b 449 594 482 521 449 594 b 444 624 447 604 444 617 b 510 689 444 660 474 689 "},"w":{"ha":1117,"x_min":0,"x_max":0,"o":"m 1047 689 b 1113 636 1079 689 1107 667 b 1114 622 1114 632 1114 626 b 1097 581 1114 607 1108 592 b 999 369 1097 581 1040 488 l 907 67 b 815 0 894 26 857 0 l 711 0 b 619 67 669 0 632 26 l 578 203 b 568 210 576 208 572 210 b 557 203 563 210 558 208 l 515 67 b 424 0 504 26 467 0 l 321 0 b 229 67 278 0 242 26 l 153 313 b 64 517 151 322 118 449 b 50 553 57 526 50 539 l 50 557 b 79 611 50 579 65 599 b 121 638 92 622 106 631 l 235 682 b 267 689 246 686 257 689 b 328 629 301 689 328 663 b 369 349 328 535 342 439 l 397 260 b 418 244 400 250 408 244 b 438 260 426 244 435 250 l 474 376 l 474 378 b 482 429 479 394 482 411 b 464 510 482 456 475 485 b 449 567 456 528 449 547 b 471 611 449 585 456 600 b 513 638 483 621 497 631 l 625 682 b 657 689 636 686 647 689 b 718 632 692 689 717 664 b 757 360 721 539 731 447 l 788 260 b 808 244 792 250 800 244 b 829 260 817 244 826 250 l 864 376 b 874 443 871 399 874 421 b 840 594 874 522 840 594 b 836 624 839 604 836 617 b 901 689 836 660 865 689 "},"x":{"ha":701,"x_min":0,"x_max":0,"o":"m 611 222 b 701 119 651 203 696 181 l 701 113 b 654 29 701 94 696 56 b 619 13 644 22 632 17 b 611 10 617 11 614 10 b 544 0 592 3 569 0 b 429 54 485 0 450 22 l 360 165 l 357 171 b 335 183 351 178 343 183 b 314 167 325 183 317 176 b 310 135 311 157 310 146 b 318 88 310 119 313 103 b 322 60 321 79 322 69 b 254 0 319 26 289 0 l 118 0 b 54 63 82 0 54 28 l 54 72 b 82 117 56 92 67 107 b 115 146 88 122 101 133 b 193 231 144 171 171 200 l 228 282 b 243 328 238 296 243 311 b 231 371 243 343 239 357 l 217 392 b 68 517 172 463 99 476 b 53 557 58 528 53 542 b 83 611 54 579 68 599 b 125 638 96 622 110 631 l 239 682 b 271 689 250 686 261 689 b 329 644 300 689 324 671 b 343 604 332 631 336 617 b 356 579 347 593 353 582 l 379 542 b 410 508 390 524 401 513 b 419 506 413 507 417 506 b 442 524 431 506 439 513 b 446 553 444 533 446 543 b 436 600 446 568 442 585 b 432 628 433 608 432 618 b 500 689 435 661 465 689 l 636 689 b 701 625 672 689 701 660 b 697 603 701 618 700 610 b 671 569 693 588 683 576 l 671 568 b 582 482 671 568 613 526 l 542 426 b 519 356 528 404 519 379 b 539 289 519 332 526 308 b 611 222 557 260 582 238 "},"y":{"ha":725,"x_min":0,"x_max":0,"o":"m 657 689 b 724 636 689 689 717 667 b 725 624 725 632 725 628 b 708 581 725 607 718 592 b 608 369 708 581 650 488 b 456 -131 608 369 518 72 b 206 -317 422 -240 321 -317 l 161 -317 b 51 -190 146 -317 65 -315 b 50 -167 50 -182 50 -175 b 144 -74 50 -81 119 -74 l 154 -74 b 267 -87 157 -74 218 -81 b 285 -89 272 -89 279 -89 b 339 -51 308 -89 329 -81 b 340 -40 340 -47 340 -44 b 296 3 340 -10 296 3 b 231 67 264 13 239 36 l 154 313 b 65 517 151 322 119 449 b 51 553 57 526 51 539 l 51 557 b 81 611 51 579 67 599 b 122 638 93 622 107 631 l 236 682 b 268 689 247 686 258 689 b 328 632 303 689 328 664 b 367 360 331 539 340 447 l 399 260 b 419 244 401 250 410 244 b 439 260 428 244 436 250 l 475 376 b 483 442 482 397 483 419 b 451 594 483 521 451 594 b 447 624 449 604 447 617 b 513 689 447 660 476 689 "},"z":{"ha":700,"x_min":0,"x_max":0,"o":"m 349 150 b 346 142 346 147 346 144 b 358 129 346 135 350 129 l 383 129 b 494 181 435 129 472 132 b 603 271 525 246 546 271 b 700 161 668 271 700 224 l 700 90 b 599 0 700 29 660 0 l 140 0 b 49 96 89 0 49 44 l 49 100 b 71 163 49 124 56 144 l 399 540 b 401 547 400 542 401 544 b 389 558 401 553 397 558 l 358 558 b 253 508 308 558 274 554 b 146 418 222 442 203 418 b 49 528 79 418 49 465 l 49 588 b 150 689 49 643 93 689 l 603 689 b 700 593 656 689 700 646 b 676 529 700 569 692 547 "},"{":{"ha":531,"x_min":0,"x_max":0,"o":"m 481 1068 b 531 1019 508 1068 531 1046 l 531 988 b 482 939 531 961 508 939 l 479 939 b 393 850 431 939 393 897 l 393 647 b 290 479 393 576 353 511 l 271 469 l 289 460 b 393 290 353 426 393 361 l 393 88 b 418 25 393 64 403 42 b 481 0 435 10 457 0 b 531 -51 508 0 531 -24 l 531 -82 b 481 -131 531 -108 508 -131 l 415 -131 b 175 110 283 -131 175 -24 l 175 281 b 94 413 175 336 144 388 b 60 468 71 425 60 446 b 93 524 60 490 71 513 l 94 525 b 175 657 144 550 175 601 l 175 829 b 415 1068 175 961 283 1068 "},"|":{"ha":267,"x_min":0,"x_max":0,"o":"m 214 939 b 267 885 243 939 267 914 l 267 53 b 214 0 267 24 243 0 l 101 0 b 49 53 72 0 49 24 l 49 885 b 101 939 49 914 72 939 "},"}":{"ha":531,"x_min":0,"x_max":0,"o":"m 99 -131 b 49 -82 71 -131 49 -108 l 49 -50 b 100 0 49 -22 72 0 l 103 0 b 186 89 150 0 186 42 l 186 290 b 289 458 186 361 226 426 l 308 469 l 289 479 b 186 647 226 511 186 576 l 186 850 b 161 913 186 875 176 897 b 97 939 144 929 122 939 l 94 939 b 49 989 69 939 49 963 l 49 1019 b 99 1068 49 1046 71 1068 l 164 1068 b 404 828 296 1068 404 961 l 404 658 b 485 525 404 601 435 550 b 519 469 508 513 519 492 b 486 414 519 447 508 425 l 485 414 b 404 281 435 388 404 336 l 404 110 b 164 -131 404 -24 296 -131 "},"~":{"ha":313,"x_min":0,"x_max":0,"o":"m 313 499 b 311 496 311 497 311 497 b 310 492 310 494 310 493 b 299 474 307 486 303 481 b 282 454 294 467 289 460 b 257 442 275 447 267 443 b 244 440 253 440 249 440 b 224 444 239 440 231 442 b 183 469 211 449 199 457 l 49 443 l 50 444 l 51 447 b 54 453 51 449 53 450 b 71 476 58 460 64 468 b 99 497 78 485 88 492 b 121 501 106 500 113 501 b 136 500 125 501 131 501 b 183 472 150 497 165 488 "},"":{"ha":269,"x_min":0,"x_max":0,"o":"m 160 356 b 49 467 99 356 49 406 b 160 578 49 528 99 578 b 269 467 221 578 269 528 b 160 356 269 406 221 356 m 264 -296 l 264 -299 b 203 -361 264 -333 236 -361 l 115 -361 b 56 -301 82 -361 56 -335 l 56 -296 l 92 264 b 132 303 93 286 111 303 l 186 303 b 226 264 207 303 225 286 "},"":{"ha":796,"x_min":0,"x_max":0,"o":"m 671 376 b 779 256 740 376 779 321 b 772 207 779 239 776 224 b 533 -1 746 114 668 26 b 499 -44 514 -6 499 -24 l 499 -103 b 451 -150 499 -129 478 -150 l 415 -150 b 368 -103 389 -150 368 -129 l 368 -40 b 335 1 368 -21 354 -3 b 49 469 142 51 49 242 b 335 935 49 694 154 882 b 368 979 354 940 368 958 l 368 1040 b 415 1088 368 1067 389 1088 l 451 1088 b 499 1040 478 1088 499 1067 l 499 981 b 532 936 499 960 513 942 b 590 911 551 929 571 922 b 629 903 603 906 617 903 b 657 907 639 903 649 904 b 701 914 671 911 685 914 b 765 882 732 914 753 899 b 785 821 779 865 785 843 l 785 683 b 675 563 785 683 782 563 b 538 722 588 563 558 678 b 499 781 538 722 524 756 b 440 808 483 796 464 808 b 368 761 411 808 388 790 b 308 469 329 703 308 593 b 368 174 308 342 328 232 b 440 131 388 146 411 131 b 499 165 461 131 481 144 b 557 290 524 197 544 243 b 667 376 569 340 615 376 "},"":{"ha":836,"x_min":0,"x_max":0,"o":"m 749 375 b 836 267 806 375 836 328 l 836 113 b 724 0 836 50 785 0 l 156 0 b 94 65 121 3 94 31 b 108 106 94 81 100 94 b 156 249 140 146 156 197 l 156 367 b 121 401 156 386 140 401 l 99 401 b 49 451 71 401 49 424 l 49 482 b 99 532 49 510 71 532 l 125 532 b 158 564 143 532 158 546 b 349 928 171 733 211 875 b 468 944 382 942 419 944 b 618 907 526 944 571 931 l 619 907 b 657 897 632 900 644 897 b 686 903 667 897 676 899 b 729 910 699 907 713 910 b 793 876 761 910 781 894 b 813 817 807 860 813 838 l 813 678 b 703 557 813 678 810 557 b 565 717 617 557 588 674 b 468 803 565 717 533 803 b 375 565 400 803 379 703 l 375 563 b 407 532 375 546 390 532 l 492 532 b 542 482 519 532 542 510 l 542 451 b 492 401 542 424 519 401 l 404 401 b 372 369 388 401 372 386 l 372 247 b 481 131 372 131 481 131 l 488 131 b 644 264 513 131 601 139 b 739 375 668 332 682 369 "},"":{"ha":469,"x_min":0,"x_max":0,"o":"m 444 564 b 432 536 436 557 432 546 b 433 525 432 532 432 529 b 442 472 439 508 442 490 b 433 419 442 453 439 436 b 432 408 432 415 432 411 b 444 379 432 397 436 386 l 450 372 b 465 338 460 363 465 350 b 450 303 465 325 460 313 l 428 281 b 393 267 418 271 406 267 b 358 281 381 267 368 271 l 351 286 b 322 299 344 294 333 299 b 311 297 319 299 315 299 b 258 289 294 292 278 289 b 206 297 240 289 222 292 b 194 299 201 299 199 299 b 167 286 185 299 174 294 l 160 281 b 125 267 150 271 138 267 b 89 281 111 267 99 271 l 68 303 b 54 338 58 313 54 325 b 68 372 54 350 58 363 l 74 379 b 85 406 82 386 85 396 b 83 419 85 411 85 415 b 76 472 79 436 76 453 b 83 525 76 490 79 508 b 85 538 85 529 85 533 b 74 564 85 547 82 557 l 68 571 b 54 606 58 581 54 593 b 68 640 54 619 58 632 l 89 663 b 125 678 99 672 111 678 b 160 663 138 678 150 672 l 167 657 b 193 644 174 649 183 644 b 206 647 197 644 201 646 b 258 654 222 651 240 654 b 311 647 278 654 294 651 b 325 644 315 646 321 644 b 351 657 335 644 344 649 l 358 663 b 393 678 368 672 381 678 b 428 663 406 678 418 672 l 450 640 b 465 606 460 632 465 619 b 450 571 465 593 460 581 m 258 397 b 333 472 300 397 333 431 b 258 546 333 513 300 546 b 185 472 218 546 185 513 b 258 397 185 431 218 397 "},"":{"ha":843,"x_min":0,"x_max":0,"o":"m 778 939 b 843 874 814 939 843 910 b 824 826 843 854 836 839 b 683 632 824 826 729 771 b 617 440 683 632 651 540 b 615 435 615 439 615 436 b 633 418 615 425 624 418 l 643 418 b 693 375 671 418 693 399 l 693 349 b 643 307 693 326 671 307 l 586 307 b 565 292 576 307 568 301 b 564 285 565 289 564 288 b 586 263 564 274 574 263 l 643 263 b 693 221 671 263 693 244 l 693 194 b 643 151 693 171 671 151 l 592 151 b 581 142 585 151 581 146 b 582 136 581 139 581 138 b 601 106 588 125 594 115 b 617 65 611 94 617 81 b 556 0 617 31 589 3 l 338 0 b 278 65 304 3 278 31 b 292 106 278 81 283 94 b 313 136 300 115 306 125 b 314 140 313 138 314 139 b 303 151 314 146 310 151 l 250 151 b 200 194 222 151 200 171 l 200 221 b 250 263 200 244 222 263 l 311 263 b 333 285 324 263 333 274 l 333 290 b 311 307 331 300 322 307 l 250 307 b 200 349 222 307 200 326 l 200 375 b 250 418 200 399 222 418 l 258 418 b 275 435 268 418 275 426 b 274 442 275 436 275 439 l 194 640 b 68 828 144 764 101 793 b 50 872 57 840 50 856 l 50 878 b 118 939 53 913 83 939 l 324 939 b 333 938 326 939 331 938 b 389 874 365 933 389 906 b 374 768 389 863 374 818 b 381 711 374 750 375 731 b 454 521 381 710 454 521 b 482 497 460 510 471 497 b 513 532 492 497 503 507 b 549 653 513 532 549 647 b 556 717 553 674 556 696 b 526 825 556 764 544 806 b 504 874 513 836 504 854 b 560 938 504 906 529 933 b 569 939 564 938 567 939 "},"":{"ha":267,"x_min":0,"x_max":0,"o":"m 213 939 b 267 885 243 939 267 915 l 267 550 b 215 499 267 522 243 499 l 100 499 b 49 550 72 499 49 522 l 49 885 b 101 939 49 914 72 939 m 215 439 b 267 388 243 439 267 417 l 267 53 b 213 0 267 24 243 0 l 101 0 b 49 53 72 0 49 24 l 49 388 b 100 439 49 417 72 439 "},"":{"ha":600,"x_min":0,"x_max":0,"o":"m 565 307 b 596 224 582 283 594 256 l 596 215 b 331 -6 596 69 497 -6 b 67 183 128 -6 67 83 b 108 278 67 233 86 263 b 146 289 121 286 133 289 b 189 257 167 289 185 278 b 199 224 192 244 194 233 b 326 135 233 138 317 135 l 328 135 b 428 200 401 135 428 168 b 425 217 428 206 426 211 b 417 238 424 224 421 231 b 194 350 369 311 258 322 b 79 457 146 371 101 407 b 63 529 69 479 63 503 b 82 615 63 556 69 585 b 97 639 88 624 92 632 b 63 742 75 668 63 703 b 82 828 63 769 68 797 b 319 943 131 921 225 943 b 435 914 364 943 397 932 b 463 907 443 910 453 907 b 486 911 471 907 478 908 b 519 917 496 914 507 917 b 568 892 543 917 558 904 b 583 844 578 878 583 861 l 583 739 b 565 682 583 739 582 707 b 499 646 554 663 533 646 b 421 707 465 646 439 676 b 392 768 403 738 392 768 b 319 835 392 768 371 835 b 268 804 299 835 282 824 b 257 767 268 804 257 790 b 268 726 257 756 260 742 b 432 617 288 694 332 656 b 579 499 432 617 538 579 b 596 436 589 481 594 460 l 596 428 b 565 307 596 381 585 340 m 426 406 b 428 415 426 410 428 413 b 417 450 428 429 424 440 b 258 542 383 503 317 524 b 426 406 264 506 300 456 "},"":{"ha":349,"x_min":0,"x_max":0,"o":"m 281 1011 b 211 1079 242 1011 211 1042 b 281 1149 211 1118 242 1149 b 349 1079 318 1149 349 1118 b 281 1011 349 1042 318 1011 m 118 1011 b 49 1079 79 1011 49 1042 b 118 1149 49 1118 79 1149 b 186 1079 156 1149 186 1118 b 118 1011 186 1042 156 1011 "},"":{"ha":903,"x_min":0,"x_max":0,"o":"m 588 651 b 615 638 601 651 610 644 b 624 611 621 629 624 621 l 624 553 b 576 501 624 553 622 501 b 518 569 539 501 526 550 b 476 606 518 569 504 606 b 421 461 440 606 421 542 b 476 317 421 382 439 317 b 526 385 497 317 517 350 b 574 422 532 407 551 422 l 575 422 b 621 369 604 422 621 397 b 618 350 621 364 619 357 b 476 257 604 301 558 257 b 310 461 364 257 310 349 b 476 665 310 574 372 665 b 540 650 501 665 521 660 b 557 646 546 647 551 646 b 569 649 561 646 565 647 b 588 651 575 650 581 651 m 476 889 b 903 461 713 889 903 697 b 476 35 903 226 713 35 b 49 461 240 35 49 226 b 476 889 49 697 240 889 m 476 156 b 782 461 644 156 782 293 b 476 767 782 629 644 767 b 171 461 308 767 171 629 b 476 156 171 293 308 156 "},"":{"ha":324,"x_min":0,"x_max":0,"o":"m 303 761 b 324 715 303 739 324 735 b 267 668 324 703 314 668 b 232 679 251 668 240 674 b 215 685 228 683 221 685 b 204 682 211 685 208 685 b 158 669 190 674 174 669 b 49 804 97 669 49 729 b 158 943 49 879 97 943 b 208 931 178 943 194 939 b 228 925 214 928 221 925 b 242 928 233 925 238 926 l 267 939 b 278 942 271 940 275 942 b 303 918 292 942 303 932 m 218 804 b 175 892 218 847 197 892 b 133 804 151 892 133 847 b 175 719 133 763 151 719 b 214 771 192 719 207 743 b 218 804 217 782 218 793 "},"":{"ha":835,"x_min":0,"x_max":0,"o":"m 443 614 b 449 592 447 607 449 599 b 421 547 449 574 439 556 l 269 469 l 421 390 b 449 346 439 382 449 364 b 443 324 449 339 447 331 l 429 296 b 385 269 419 279 403 269 b 361 275 376 269 368 271 l 128 396 l 93 413 b 60 468 71 425 60 446 b 93 524 60 490 71 513 l 128 542 l 361 663 b 385 668 368 667 376 668 b 429 642 403 668 419 658 m 822 614 b 828 592 826 607 828 599 b 800 547 828 574 818 556 l 649 469 l 800 390 b 828 346 818 382 828 364 b 822 324 828 339 826 331 l 808 296 b 764 269 799 279 782 269 b 740 275 756 269 747 271 l 507 396 l 472 413 b 439 468 450 425 439 446 b 472 524 439 490 450 513 l 507 542 l 740 663 b 764 668 747 667 756 668 b 808 642 782 668 799 658 "},"":{"ha":733,"x_min":0,"x_max":0,"o":"m 683 617 b 733 568 711 617 733 594 l 733 356 b 683 306 733 328 711 306 l 651 306 b 603 356 625 306 603 328 l 603 475 b 590 486 603 481 597 486 l 99 486 b 49 536 71 486 49 508 l 49 568 b 99 617 49 594 71 617 "},"":{"ha":904,"x_min":0,"x_max":0,"o":"m 613 400 b 638 357 636 397 638 367 l 638 343 b 572 274 638 274 572 274 b 446 432 500 274 463 361 b 442 438 444 435 443 438 b 435 400 439 438 435 428 l 435 374 b 454 321 435 354 442 336 b 460 303 457 315 460 310 b 435 275 460 289 449 276 l 342 275 b 315 303 328 276 315 289 b 322 321 315 310 318 315 b 342 381 335 338 342 360 l 342 569 b 322 631 342 592 335 613 b 315 647 318 635 315 640 b 342 675 315 663 328 674 l 506 675 b 619 561 568 675 619 624 b 508 449 619 503 579 449 l 508 447 b 568 388 508 440 540 392 l 571 388 b 606 400 588 388 590 400 m 468 503 b 519 561 500 503 519 529 b 468 619 519 593 500 619 b 438 596 454 619 440 610 b 435 565 435 588 435 575 l 435 561 b 468 503 435 526 450 503 m 476 901 b 904 474 713 901 904 710 b 476 47 904 239 713 47 b 49 474 240 47 49 239 b 476 901 49 710 240 901 m 476 168 b 782 474 644 168 782 306 b 476 779 782 643 644 779 b 171 474 308 779 171 643 b 476 168 171 306 308 168 "},"":{"ha":282,"x_min":0,"x_max":0,"o":"m 258 1110 b 282 1088 271 1110 282 1100 l 282 1072 b 258 1049 282 1060 271 1049 l 72 1049 b 49 1072 60 1049 49 1060 l 49 1088 b 72 1110 49 1100 60 1110 "},"":{"ha":253,"x_min":0,"x_max":0,"o":"m 150 1210 b 253 1107 207 1210 253 1164 b 150 1006 253 1051 207 1006 b 49 1107 94 1006 49 1051 b 150 1210 49 1164 94 1210 m 150 1075 b 183 1107 168 1075 183 1089 b 150 1139 183 1125 168 1139 b 118 1107 133 1139 118 1125 b 150 1075 118 1089 133 1075 "},"":{"ha":558,"x_min":0,"x_max":0,"o":"m 508 624 b 558 574 536 624 558 601 l 558 542 b 508 493 558 515 536 493 l 415 493 b 368 446 389 493 368 472 l 368 353 b 319 303 368 325 346 303 l 288 303 b 238 353 260 303 238 325 l 238 446 b 192 493 238 472 217 493 l 97 493 b 49 542 71 493 49 515 l 49 574 b 97 624 49 601 71 624 l 192 624 b 238 669 217 624 238 644 l 238 763 b 288 813 238 790 260 813 l 319 813 b 368 764 346 813 368 790 l 368 669 b 415 624 368 644 389 624 m 500 261 b 550 211 528 261 550 239 l 550 179 b 500 131 550 153 528 131 l 107 131 b 57 179 79 131 57 153 l 57 211 b 107 261 57 239 79 261 "},"":{"ha":264,"x_min":0,"x_max":0,"o":"m 238 771 b 264 740 256 771 264 757 l 264 694 b 236 668 264 681 251 668 l 88 668 b 61 696 72 668 61 681 b 60 710 61 696 60 701 b 106 781 60 726 67 758 b 186 864 106 781 186 824 l 186 867 b 160 890 185 886 171 890 b 146 889 154 890 150 890 b 129 872 140 888 133 883 b 93 835 122 851 111 835 b 79 838 89 835 85 836 b 61 858 72 840 65 846 b 60 871 60 863 60 867 b 69 900 60 881 63 892 b 157 943 82 918 107 943 l 168 943 b 253 875 168 943 243 940 l 253 867 b 138 739 253 799 138 739 b 129 732 131 736 129 733 b 131 729 129 731 129 729 l 175 729 b 208 743 188 729 204 732 l 208 744 b 235 771 214 757 219 769 "},"":{"ha":268,"x_min":0,"x_max":0,"o":"m 196 835 b 268 753 238 824 268 801 b 156 664 268 704 218 664 b 50 738 90 664 56 696 l 50 740 b 63 767 50 754 61 765 b 72 774 67 769 69 771 b 76 775 74 774 75 774 b 92 778 82 776 86 778 b 100 776 94 778 97 776 b 113 768 106 775 110 772 b 119 753 118 761 119 753 b 156 701 119 725 136 701 b 199 753 176 701 199 725 b 161 803 199 778 181 799 l 156 803 b 138 804 151 804 146 804 b 119 824 128 804 119 813 b 125 838 119 829 121 833 l 165 876 l 139 876 b 111 868 118 876 113 871 b 108 863 110 865 108 864 b 83 835 103 844 99 836 l 81 835 b 56 867 63 835 56 849 l 56 911 b 82 938 56 926 67 938 l 228 938 b 246 931 235 938 242 935 b 254 911 251 925 254 918 b 246 892 254 904 251 897 l 194 839 b 193 836 194 839 193 838 b 196 835 193 836 194 835 "},"":{"ha":233,"x_min":0,"x_max":0,"o":"m 218 1197 b 229 1174 226 1192 229 1182 b 222 1154 229 1167 228 1160 l 85 1006 b 74 1001 82 1003 78 1001 b 65 1004 71 1001 68 1003 l 56 1013 b 50 1022 51 1015 50 1018 b 53 1032 50 1025 51 1029 l 164 1200 b 189 1213 169 1208 179 1213 b 206 1207 194 1213 200 1211 "},"":{"ha":818,"x_min":0,"x_max":0,"o":"m 761 240 b 818 119 761 181 818 172 b 669 -1 818 88 790 -1 b 543 78 597 -1 561 36 b 525 54 543 78 526 57 b 372 -8 492 13 424 -8 b 110 347 150 -8 110 156 l 110 374 b 63 517 110 425 94 476 b 49 557 54 528 49 542 b 78 611 50 579 64 599 b 121 638 90 622 106 631 l 233 682 b 265 689 244 686 256 689 b 326 631 301 689 326 663 l 326 339 b 433 125 329 232 343 125 b 517 210 467 125 497 160 b 543 346 533 249 543 297 l 543 374 b 497 517 543 425 528 476 b 482 557 488 528 482 542 b 513 611 483 579 497 599 b 554 638 525 622 539 631 l 668 682 b 700 689 679 686 690 689 b 760 631 735 689 760 663 "},"":{"ha":733,"x_min":0,"x_max":0,"o":"m 674 939 b 733 879 707 939 733 911 l 733 60 b 674 0 733 26 707 0 l 576 0 b 517 60 543 0 517 26 l 517 879 b 576 939 517 911 543 939 m 411 939 b 463 888 440 939 463 915 l 463 51 b 411 0 463 22 440 0 l 383 0 b 332 51 356 0 332 22 l 332 419 b 283 469 332 447 311 469 b 49 704 154 469 49 574 b 283 939 49 833 154 939 "},"":{"ha":269,"x_min":0,"x_max":0,"o":"m 160 581 b 269 469 221 581 269 532 b 160 360 269 408 221 360 b 49 469 99 360 49 408 b 160 581 49 532 99 581 "},"":{"ha":410,"x_min":0,"x_max":0,"o":"m 274 -129 b 410 -267 353 -149 410 -201 b 210 -412 410 -349 322 -412 b 64 -367 151 -412 100 -394 b 53 -342 57 -360 53 -351 b 64 -318 53 -333 57 -324 l 68 -314 b 89 -307 74 -308 82 -307 b 108 -312 96 -307 103 -308 b 210 -343 132 -331 168 -343 b 340 -267 286 -343 340 -303 b 244 -194 340 -237 303 -204 b 210 -192 235 -193 222 -192 l 207 -192 b 175 -160 190 -192 175 -178 l 175 39 b 206 69 175 56 189 69 l 215 69 b 244 39 232 69 244 56 l 244 -93 b 274 -129 244 -111 257 -125 "},"":{"ha":146,"x_min":0,"x_max":0,"o":"m 129 739 b 142 699 129 725 133 710 b 146 686 144 696 146 692 b 129 668 146 676 139 668 l 67 668 b 49 686 57 668 49 676 b 53 699 49 692 50 696 b 67 739 63 710 67 725 l 67 860 b 53 889 67 875 63 876 b 49 900 50 892 49 896 b 57 915 49 907 53 913 b 69 924 61 919 65 921 l 103 936 b 111 938 106 938 108 938 b 129 921 121 938 129 931 "},"":{"ha":274,"x_min":0,"x_max":0,"o":"m 233 911 b 274 803 260 886 274 847 b 161 664 274 726 233 664 b 119 672 146 664 132 667 b 88 693 107 676 96 685 b 49 803 63 718 49 758 b 161 940 49 879 92 940 b 201 932 176 940 189 938 b 233 911 214 928 224 921 m 125 769 b 128 768 126 769 126 768 l 129 769 l 178 875 b 179 882 179 878 179 881 b 163 900 179 892 172 900 l 161 900 b 124 803 138 900 124 857 b 125 769 124 794 125 779 m 161 706 b 200 803 186 706 200 749 b 197 842 200 814 199 831 l 197 843 b 196 842 196 843 196 843 l 143 724 b 142 719 143 722 142 721 b 146 713 142 717 143 714 b 161 706 150 708 156 706 "},"":{"ha":835,"x_min":0,"x_max":0,"o":"m 454 642 b 499 668 463 658 481 668 b 521 663 506 668 514 667 l 756 542 l 790 524 b 824 468 813 513 824 490 b 789 413 824 446 813 425 l 756 396 l 521 275 b 499 269 514 271 506 269 b 454 296 481 269 463 279 l 440 324 b 435 346 436 331 435 339 b 461 390 435 364 444 382 l 613 469 l 461 547 b 435 592 444 556 435 574 b 440 614 435 599 436 607 m 75 642 b 119 668 83 658 101 668 b 142 663 126 668 135 667 l 376 542 l 411 524 b 444 468 433 513 444 490 b 410 413 444 446 433 425 l 376 396 l 142 275 b 119 269 135 271 126 269 b 75 296 101 269 83 279 l 61 324 b 56 346 57 331 56 339 b 82 390 56 364 65 382 l 233 469 l 82 547 b 56 592 65 556 56 574 b 61 614 56 599 57 607 "},"":{"ha":749,"x_min":0,"x_max":0,"o":"m 560 939 b 590 908 578 939 590 925 b 588 897 590 906 589 901 l 242 40 b 181 0 231 15 207 0 l 126 0 b 96 29 108 0 96 14 b 99 40 96 32 97 36 l 444 897 b 504 939 454 922 478 939 m 76 501 b 49 531 61 501 49 515 b 56 550 49 539 51 544 b 76 617 69 568 76 593 l 76 811 b 56 858 76 836 69 839 b 49 876 51 863 49 869 b 63 903 49 888 56 896 b 82 914 68 907 75 911 l 135 935 b 150 938 140 938 146 938 b 178 911 167 938 178 926 l 178 617 b 200 550 178 593 185 568 b 207 531 204 544 207 539 b 178 501 207 515 194 501 m 731 197 b 749 179 740 197 749 189 l 749 154 b 731 136 749 144 740 136 b 721 126 725 136 721 132 l 721 115 b 742 49 721 92 728 68 b 749 31 746 43 749 38 b 721 0 749 14 736 1 l 619 0 b 592 31 604 1 592 14 b 597 49 592 38 593 43 b 619 115 613 68 619 92 b 599 136 619 126 610 136 l 439 136 b 400 175 418 136 400 153 l 400 179 b 410 213 400 190 404 203 l 531 410 b 579 438 542 426 560 438 l 679 438 b 721 396 703 438 721 418 l 721 207 b 731 197 721 201 725 197 m 619 325 b 610 332 619 329 615 332 b 596 322 606 332 600 329 l 526 210 b 525 206 526 208 525 207 b 535 197 525 201 529 197 l 603 197 b 619 218 614 197 619 207 "},"":{"ha":776,"x_min":0,"x_max":0,"o":"m 560 939 b 590 907 578 939 590 924 b 589 897 590 904 590 900 l 242 40 b 182 0 232 15 208 0 l 126 0 b 96 29 110 0 96 14 b 99 40 96 33 97 36 l 444 897 b 506 939 456 922 479 939 m 78 501 b 49 531 61 501 49 515 b 56 550 49 539 51 544 b 78 617 71 568 78 593 l 78 811 b 56 858 78 836 71 839 b 49 876 51 863 49 869 b 63 903 49 888 56 896 b 82 914 68 907 75 911 l 135 935 b 150 938 140 938 146 938 b 178 911 167 938 178 926 l 178 617 b 200 550 178 593 185 568 b 207 531 204 544 207 539 b 178 501 207 515 194 501 m 735 167 b 776 115 763 167 776 144 l 776 43 b 732 0 776 19 757 0 l 492 0 b 447 43 467 0 449 21 l 447 44 b 446 65 447 46 446 53 b 521 182 446 93 456 144 b 651 317 521 182 651 253 l 651 321 b 607 361 647 353 626 361 b 586 358 599 361 592 360 b 560 331 578 356 565 347 b 501 269 547 296 529 269 b 479 274 494 269 488 271 b 449 307 467 279 456 289 b 444 329 446 314 444 322 b 461 375 444 346 450 361 b 603 446 483 403 524 446 b 621 444 608 446 614 444 b 758 336 621 444 743 440 b 760 322 758 332 760 326 b 572 114 760 210 572 114 b 558 103 561 110 558 106 b 563 100 558 101 560 100 l 632 100 b 686 122 653 100 681 103 l 688 122 b 731 167 694 144 704 164 "},"":{"ha":899,"x_min":0,"x_max":0,"o":"m 406 638 b 224 494 406 558 324 494 b 51 614 115 494 60 546 l 51 618 b 72 661 51 640 68 658 b 88 671 76 665 82 668 b 94 674 90 672 92 672 b 119 678 103 676 113 678 b 132 676 124 678 128 676 b 151 664 142 674 147 669 b 163 638 161 653 163 638 b 224 556 163 593 189 556 b 292 638 257 556 292 593 b 232 719 292 679 263 714 l 224 719 b 193 721 215 721 206 721 b 163 753 176 721 163 736 b 172 775 163 761 165 769 l 238 838 l 194 838 b 149 824 160 838 153 831 b 146 815 147 821 146 818 b 104 771 136 786 129 774 l 100 771 b 58 822 74 771 58 793 l 58 894 b 103 939 58 919 78 939 l 339 939 b 369 926 351 939 361 933 b 382 896 378 918 382 907 b 369 864 382 883 378 872 l 285 778 b 283 774 283 776 283 775 b 286 771 283 772 285 771 b 406 638 354 754 406 718 m 710 939 b 740 908 726 939 740 925 b 738 897 740 904 739 901 l 390 40 b 331 0 381 15 357 0 l 275 0 b 246 31 258 0 246 14 b 247 40 246 33 246 38 l 594 897 b 654 939 604 922 628 939 m 881 136 b 871 126 875 136 871 132 l 871 115 b 892 49 871 92 878 68 b 899 31 896 43 899 38 b 871 0 899 14 886 1 l 769 0 b 740 31 753 1 740 14 b 747 49 740 38 743 43 b 769 115 763 68 769 92 b 749 136 769 126 760 136 l 589 136 b 550 175 568 136 550 153 l 550 179 b 560 213 550 190 554 203 l 681 410 b 729 438 690 426 710 438 l 829 438 b 871 396 851 438 871 418 l 871 207 b 881 197 871 201 875 197 b 899 179 890 197 899 189 l 899 154 b 881 136 899 144 890 136 m 769 325 b 760 332 769 329 765 332 b 746 322 756 332 750 329 l 676 210 b 675 206 676 208 675 207 b 683 197 675 201 679 197 l 753 197 b 769 218 764 197 769 207 "},"":{"ha":776,"x_min":0,"x_max":0,"o":"m 421 357 b 310 467 360 357 310 406 b 421 578 310 528 360 578 b 532 467 482 578 532 528 b 421 357 532 406 482 357 m 432 -371 b 124 -222 308 -371 186 -343 b 97 -110 106 -182 97 -144 b 269 125 97 0 178 85 b 351 244 313 147 351 193 b 411 294 351 290 400 294 l 464 294 b 526 250 503 294 519 271 b 532 219 532 233 532 219 b 422 -29 532 57 433 -19 l 421 -31 b 351 -143 365 -74 351 -114 b 365 -192 351 -174 365 -192 b 432 -231 383 -217 406 -231 b 528 -144 500 -231 528 -144 b 667 15 528 -144 581 15 b 776 -106 774 15 776 -106 l 776 -243 b 757 -304 776 -265 771 -287 b 693 -337 744 -321 725 -337 b 650 -329 676 -337 663 -333 b 621 -325 640 -326 631 -325 b 583 -333 608 -325 594 -328 l 582 -335 b 432 -371 535 -358 490 -371 "},"":{"ha":843,"x_min":0,"x_max":0,"o":"m 824 111 b 842 65 835 99 842 82 l 842 60 b 775 0 839 26 808 0 l 571 0 b 504 63 536 0 506 26 l 504 67 b 517 106 504 81 510 94 b 536 150 529 121 536 135 b 531 169 536 157 535 163 b 403 208 515 196 479 208 b 292 163 321 208 292 185 b 318 118 292 144 307 128 l 322 114 b 344 65 336 101 344 85 l 344 57 b 278 0 340 24 311 0 l 118 0 b 50 61 83 0 53 26 l 50 65 b 69 113 50 83 60 94 b 229 588 69 113 147 239 l 238 622 b 243 667 242 639 243 653 b 169 860 243 760 169 801 b 171 874 169 864 169 869 b 260 939 185 935 244 939 l 458 939 b 614 815 532 939 597 888 l 719 356 b 822 113 758 186 813 124 b 824 111 824 113 824 111 m 418 339 b 483 404 454 339 483 369 b 482 419 483 410 483 414 l 429 651 b 410 667 426 661 418 667 b 392 651 401 667 394 661 l 339 419 b 338 406 338 415 338 410 b 404 339 338 369 365 339 m 331 1207 b 347 1213 336 1211 342 1213 b 372 1200 357 1213 367 1208 l 483 1032 b 486 1024 485 1029 486 1026 b 481 1013 486 1019 483 1015 l 471 1004 b 463 1001 468 1003 465 1001 b 451 1006 458 1001 454 1003 l 314 1154 b 307 1174 308 1160 307 1167 b 318 1197 307 1182 310 1192 "},"":{"ha":843,"x_min":0,"x_max":0,"o":"m 824 111 b 842 65 835 99 842 82 l 842 60 b 775 0 839 26 808 0 l 571 0 b 504 63 536 0 506 26 l 504 67 b 517 106 504 81 510 94 b 536 150 529 121 536 135 b 531 169 536 157 535 163 b 403 208 515 196 479 208 b 292 163 321 208 292 185 b 318 118 292 144 307 128 l 322 114 b 344 65 336 101 344 85 l 344 57 b 278 0 340 24 311 0 l 118 0 b 50 61 83 0 53 26 l 50 65 b 69 113 50 83 60 94 b 229 588 69 113 147 239 l 238 622 b 243 667 242 639 243 653 b 169 860 243 760 169 801 b 171 874 169 864 169 869 b 260 939 185 935 244 939 l 458 939 b 614 815 532 939 597 888 l 719 356 b 822 113 758 186 813 124 b 824 111 824 113 824 111 m 418 339 b 483 404 454 339 483 369 b 482 419 483 410 483 414 l 429 651 b 410 667 426 661 418 667 b 392 651 401 667 394 661 l 339 419 b 338 406 338 415 338 410 b 404 339 338 369 365 339 m 485 1197 b 496 1174 493 1192 496 1182 b 489 1154 496 1167 494 1160 l 351 1006 b 340 1001 349 1003 344 1001 b 332 1004 338 1001 335 1003 l 322 1013 b 317 1022 318 1015 317 1018 b 319 1032 317 1025 318 1029 l 431 1200 b 456 1213 436 1208 446 1213 b 472 1207 461 1213 467 1211 "},"":{"ha":843,"x_min":0,"x_max":0,"o":"m 824 111 b 842 65 835 99 842 82 l 842 60 b 775 0 839 26 808 0 l 571 0 b 504 63 536 0 506 26 l 504 67 b 517 106 504 81 510 94 b 536 150 529 121 536 135 b 531 169 536 157 535 163 b 403 208 515 196 479 208 b 292 163 321 208 292 185 b 318 118 292 144 307 128 l 322 114 b 344 65 336 101 344 85 l 344 57 b 278 0 340 24 311 0 l 118 0 b 50 61 83 0 53 26 l 50 65 b 69 113 50 83 60 94 b 229 588 69 113 147 239 l 238 622 b 243 667 242 639 243 653 b 169 860 243 760 169 801 b 171 874 169 864 169 869 b 260 939 185 935 244 939 l 458 939 b 614 815 532 939 597 888 l 719 356 b 822 113 758 186 813 124 b 824 111 824 113 824 111 m 418 339 b 483 404 454 339 483 369 b 482 419 483 410 483 414 l 429 651 b 410 667 426 661 418 667 b 392 651 401 667 394 661 l 339 419 b 338 406 338 415 338 410 b 404 339 338 369 365 339 m 438 1201 b 551 1032 439 1201 551 1032 b 554 1024 553 1029 554 1026 b 549 1013 554 1019 551 1015 l 539 1004 b 531 1001 536 1003 533 1001 b 519 1007 526 1001 522 1004 l 414 1119 l 310 1007 b 297 1001 307 1004 301 1001 b 290 1004 294 1001 293 1003 l 281 1013 b 275 1024 278 1015 275 1019 b 278 1032 275 1026 276 1029 b 392 1201 278 1032 390 1201 b 413 1213 396 1208 404 1213 l 417 1213 b 438 1201 425 1213 432 1208 "},"":{"ha":843,"x_min":0,"x_max":0,"o":"m 824 111 b 842 65 835 99 842 82 l 842 60 b 775 0 839 26 808 0 l 571 0 b 504 63 536 0 506 26 l 504 67 b 517 106 504 81 510 94 b 536 150 529 121 536 135 b 531 169 536 157 535 163 b 403 208 515 196 479 208 b 292 163 321 208 292 185 b 318 118 292 144 307 128 l 322 114 b 344 65 336 101 344 85 l 344 57 b 278 0 340 24 311 0 l 118 0 b 50 61 83 0 53 26 l 50 65 b 69 113 50 83 60 94 b 229 588 69 113 147 239 l 238 622 b 243 667 242 639 243 653 b 169 860 243 760 169 801 b 171 874 169 864 169 869 b 260 939 185 935 244 939 l 458 939 b 614 815 532 939 597 888 l 719 356 b 822 113 758 186 813 124 b 824 111 824 113 824 111 m 418 339 b 483 404 454 339 483 369 b 482 419 483 410 483 414 l 429 651 b 410 667 426 661 418 667 b 392 651 401 667 394 661 l 339 419 b 338 406 338 415 338 410 b 404 339 338 369 365 339 m 544 1107 b 543 1104 543 1106 543 1106 b 542 1100 542 1103 542 1101 b 531 1082 539 1094 535 1089 b 514 1063 526 1075 521 1068 b 489 1050 507 1056 499 1051 b 476 1049 485 1049 481 1049 b 456 1053 471 1049 463 1050 b 415 1078 443 1057 431 1065 l 281 1051 l 282 1053 l 283 1056 b 286 1061 283 1057 285 1058 b 303 1085 290 1068 296 1076 b 331 1106 310 1093 319 1100 b 353 1110 338 1108 344 1110 b 368 1108 357 1110 363 1110 b 415 1081 382 1106 397 1096 "},"":{"ha":843,"x_min":0,"x_max":0,"o":"m 824 111 b 842 65 835 99 842 82 l 842 60 b 775 0 839 26 808 0 l 571 0 b 504 63 536 0 506 26 l 504 67 b 517 106 504 81 510 94 b 536 150 529 121 536 135 b 531 169 536 157 535 163 b 403 208 515 196 479 208 b 292 163 321 208 292 185 b 318 118 292 144 307 128 l 322 114 b 344 65 336 101 344 85 l 344 57 b 278 0 340 24 311 0 l 118 0 b 50 61 83 0 53 26 l 50 65 b 69 113 50 83 60 94 b 229 588 69 113 147 239 l 238 622 b 243 667 242 639 243 653 b 169 860 243 760 169 801 b 171 874 169 864 169 869 b 260 939 185 935 244 939 l 458 939 b 614 815 532 939 597 888 l 719 356 b 822 113 758 186 813 124 b 824 111 824 113 824 111 m 418 339 b 483 404 454 339 483 369 b 482 419 483 410 483 414 l 429 651 b 410 667 426 661 418 667 b 392 651 401 667 394 661 l 339 419 b 338 406 338 415 338 410 b 404 339 338 369 365 339 m 483 1011 b 414 1079 444 1011 414 1042 b 483 1149 414 1118 444 1149 b 551 1079 521 1149 551 1118 b 483 1011 551 1042 521 1011 m 321 1011 b 251 1079 282 1011 251 1042 b 321 1149 251 1118 282 1149 b 389 1079 358 1149 389 1118 b 321 1011 389 1042 358 1011 "},"":{"ha":843,"x_min":0,"x_max":0,"o":"m 824 111 b 842 65 835 99 842 82 l 842 60 b 775 0 839 26 808 0 l 571 0 b 504 63 536 0 506 26 l 504 67 b 517 106 504 81 510 94 b 536 150 529 121 536 135 b 531 169 536 157 535 163 b 403 208 515 196 479 208 b 292 163 321 208 292 185 b 318 118 292 144 307 128 l 322 114 b 344 65 336 101 344 85 l 344 57 b 278 0 340 24 311 0 l 118 0 b 50 61 83 0 53 26 l 50 65 b 69 113 50 83 60 94 b 229 588 69 113 147 239 l 238 622 b 243 667 242 639 243 653 b 169 860 243 760 169 801 b 171 874 169 864 169 869 b 260 939 185 935 244 939 l 458 939 b 614 815 532 939 597 888 l 719 356 b 822 113 758 186 813 124 b 824 111 824 113 824 111 m 418 339 b 483 404 454 339 483 369 b 482 419 483 410 483 414 l 429 651 b 410 667 426 661 418 667 b 392 651 401 667 394 661 l 339 419 b 338 406 338 415 338 410 b 404 339 338 369 365 339 m 417 1210 b 519 1107 474 1210 519 1164 b 417 1006 519 1051 474 1006 b 315 1107 361 1006 315 1051 b 417 1210 315 1164 361 1210 m 417 1075 b 450 1107 435 1075 450 1089 b 417 1139 450 1125 435 1139 b 385 1107 400 1139 385 1125 b 417 1075 385 1089 400 1075 "},"":{"ha":1157,"x_min":0,"x_max":0,"o":"m 418 339 b 469 364 439 339 457 347 b 483 403 479 375 483 389 b 482 419 483 408 483 414 l 429 651 b 418 664 428 658 424 663 b 410 665 415 665 413 665 b 400 664 407 665 404 665 b 392 651 396 663 393 658 l 339 419 b 338 406 338 414 338 410 b 356 360 338 389 343 374 b 404 339 367 346 383 339 l 418 339 m 1043 939 b 1124 906 1075 939 1101 928 b 1157 826 1146 883 1157 857 l 1157 672 b 1132 593 1157 640 1149 614 b 1065 564 1117 574 1094 564 l 1058 564 b 1000 596 1032 565 1013 576 b 965 675 988 614 975 640 b 815 808 931 764 881 808 l 807 808 b 781 804 799 808 789 807 b 742 776 768 800 756 792 b 719 700 726 761 719 735 l 719 564 b 728 543 719 556 722 549 b 749 535 733 538 740 535 b 782 544 758 535 769 538 b 807 571 794 550 803 558 b 831 619 814 592 821 607 b 871 639 840 632 853 638 b 918 621 889 639 906 633 b 938 574 931 608 938 592 l 938 365 b 918 319 938 347 931 332 b 871 300 906 307 889 300 b 807 368 838 300 817 322 b 783 397 803 383 796 393 b 749 404 771 401 758 404 b 728 396 740 404 733 401 b 719 375 722 390 719 383 l 719 249 b 726 204 719 238 722 222 b 754 153 731 186 740 168 b 811 129 767 138 786 129 l 811 131 b 965 264 885 131 936 175 b 1000 344 975 299 988 326 b 1058 376 1013 363 1032 374 l 1065 376 b 1133 346 1094 376 1117 367 b 1157 268 1149 325 1157 300 l 1157 114 b 1124 33 1157 82 1146 56 b 1043 0 1101 11 1075 0 l 507 0 l 503 1 b 460 22 485 3 471 10 b 442 65 447 35 442 49 b 456 107 442 81 446 94 b 497 196 476 135 490 164 b 490 199 494 197 492 197 b 403 208 469 206 440 208 b 317 194 363 208 333 204 b 292 163 300 185 292 174 b 301 138 292 153 294 144 b 318 118 307 129 313 122 b 322 114 319 117 321 115 b 344 64 338 101 344 85 l 344 57 b 322 17 342 40 335 26 b 278 0 310 6 294 0 l 118 0 b 72 18 100 0 85 6 b 50 61 60 29 51 43 b 54 83 50 69 51 76 b 64 103 56 90 60 96 b 69 113 65 106 68 108 l 69 114 l 71 114 b 93 160 72 119 81 135 b 151 310 108 190 128 240 b 229 588 175 379 201 472 l 238 622 b 243 671 240 639 243 656 b 232 728 243 689 239 708 b 200 786 225 747 214 767 b 176 829 190 801 182 815 b 169 860 172 839 169 849 b 171 874 169 864 169 869 b 188 908 175 888 181 899 b 211 928 194 917 201 924 b 236 936 219 932 228 935 b 256 939 243 938 250 939 l 1043 939 "},"":{"ha":796,"x_min":0,"x_max":0,"o":"m 408 -8 b 222 56 335 -4 272 18 b 92 229 164 99 121 156 b 49 469 63 301 49 382 b 96 711 49 557 64 638 b 231 885 128 783 172 842 b 440 949 289 928 358 949 b 590 913 499 949 549 936 l 590 911 b 629 903 603 906 617 903 b 657 907 639 903 647 904 b 701 915 669 913 685 915 b 740 906 717 915 731 913 b 765 882 750 899 758 892 b 785 822 778 864 785 843 l 785 679 b 783 671 783 676 783 674 b 776 642 782 663 781 653 b 760 606 772 629 767 618 b 728 575 753 593 742 583 b 675 563 714 567 696 563 b 615 585 651 563 631 569 b 576 638 600 600 586 617 b 550 693 565 657 557 675 b 538 722 546 706 542 715 l 538 724 l 536 724 b 535 728 536 725 536 726 b 532 736 533 729 533 732 b 514 765 528 744 521 754 b 483 796 506 776 496 786 b 440 808 471 804 456 808 b 343 710 399 808 367 775 b 308 469 319 643 308 563 b 342 231 308 376 319 296 b 440 131 363 164 396 131 b 510 179 465 131 489 147 b 557 292 531 211 546 249 b 667 376 575 344 611 372 l 671 376 b 763 324 714 375 744 357 b 778 258 774 304 778 282 b 771 207 778 242 776 225 b 715 101 761 169 742 133 b 606 21 688 68 651 42 b 478 -8 569 4 526 -6 l 478 -79 b 486 -103 478 -89 481 -96 b 507 -115 492 -110 499 -114 b 643 -253 597 -142 643 -187 b 586 -356 643 -293 624 -328 b 443 -399 547 -385 500 -399 b 297 -353 386 -399 338 -383 b 286 -328 290 -346 286 -337 b 297 -304 286 -318 290 -311 l 301 -300 b 322 -292 307 -296 314 -293 b 342 -299 329 -292 336 -294 b 443 -329 367 -319 400 -329 b 538 -304 482 -329 514 -321 b 574 -253 561 -289 574 -271 b 549 -210 574 -237 565 -224 b 478 -181 531 -196 507 -186 b 443 -178 468 -179 456 -178 l 440 -178 b 418 -168 432 -178 425 -175 b 408 -146 411 -162 408 -156 l 408 -8 "},"":{"ha":792,"x_min":0,"x_max":0,"o":"m 651 939 b 764 826 713 939 764 889 l 764 672 b 676 564 764 611 733 564 l 667 564 b 572 675 610 568 594 606 b 422 808 543 763 488 808 b 388 804 411 808 400 808 b 326 700 365 796 326 769 l 326 564 b 356 535 326 549 340 535 b 414 571 376 535 406 547 b 478 639 428 610 442 638 l 481 639 b 544 574 515 639 544 608 l 544 365 b 478 300 544 329 514 300 b 414 368 442 301 426 322 b 356 404 408 399 376 404 b 326 375 340 404 326 392 l 326 249 b 418 129 326 217 343 129 l 418 131 b 572 264 492 131 542 172 b 667 376 594 333 610 371 l 676 376 b 764 268 733 376 764 328 l 764 114 b 651 0 764 51 713 0 l 114 0 l 110 1 b 49 65 75 3 49 32 b 63 107 49 81 54 96 b 110 249 94 146 110 197 l 110 690 b 63 833 110 742 94 793 b 49 874 54 844 49 858 b 110 939 49 908 75 936 m 310 1207 b 326 1213 315 1211 321 1213 b 351 1200 336 1213 346 1208 l 463 1032 b 465 1024 464 1029 465 1026 b 460 1013 465 1019 463 1015 l 450 1004 b 442 1001 447 1003 444 1001 b 431 1006 438 1001 433 1003 l 293 1154 b 286 1174 288 1160 286 1167 b 297 1197 286 1182 289 1192 "},"":{"ha":792,"x_min":0,"x_max":0,"o":"m 651 939 b 764 826 713 939 764 889 l 764 672 b 676 564 764 611 733 564 l 667 564 b 572 675 610 568 594 606 b 422 808 543 763 488 808 b 388 804 411 808 400 808 b 326 700 365 796 326 769 l 326 564 b 356 535 326 549 340 535 b 414 571 376 535 406 547 b 478 639 428 610 442 638 l 481 639 b 544 574 515 639 544 608 l 544 365 b 478 300 544 329 514 300 b 414 368 442 301 426 322 b 356 404 408 399 376 404 b 326 375 340 404 326 392 l 326 249 b 418 129 326 217 343 129 l 418 131 b 572 264 492 131 542 172 b 667 376 594 333 610 371 l 676 376 b 764 268 733 376 764 328 l 764 114 b 651 0 764 51 713 0 l 114 0 l 110 1 b 49 65 75 3 49 32 b 63 107 49 81 54 96 b 110 249 94 146 110 197 l 110 690 b 63 833 110 742 94 793 b 49 874 54 844 49 858 b 110 939 49 908 75 936 m 514 1197 b 525 1174 522 1192 525 1182 b 518 1154 525 1167 524 1160 l 381 1006 b 369 1001 378 1003 374 1001 b 361 1004 367 1001 364 1003 l 351 1013 b 346 1022 347 1015 346 1018 b 349 1032 346 1025 347 1029 l 460 1200 b 485 1213 465 1208 475 1213 b 501 1207 490 1213 496 1211 "},"":{"ha":792,"x_min":0,"x_max":0,"o":"m 651 939 b 764 826 713 939 764 889 l 764 672 b 676 564 764 611 733 564 l 667 564 b 572 675 610 568 594 606 b 422 808 543 763 488 808 b 388 804 411 808 400 808 b 326 700 365 796 326 769 l 326 564 b 356 535 326 549 340 535 b 414 571 376 535 406 547 b 478 639 428 610 442 638 l 481 639 b 544 574 515 639 544 608 l 544 365 b 478 300 544 329 514 300 b 414 368 442 301 426 322 b 356 404 408 399 376 404 b 326 375 340 404 326 392 l 326 249 b 418 129 326 217 343 129 l 418 131 b 572 264 492 131 542 172 b 667 376 594 333 610 371 l 676 376 b 764 268 733 376 764 328 l 764 114 b 651 0 764 51 713 0 l 114 0 l 110 1 b 49 65 75 3 49 32 b 63 107 49 81 54 96 b 110 249 94 146 110 197 l 110 690 b 63 833 110 742 94 793 b 49 874 54 844 49 858 b 110 939 49 908 75 936 m 429 1201 b 543 1032 431 1201 543 1032 b 546 1024 544 1029 546 1026 b 540 1013 546 1019 543 1015 l 531 1004 b 522 1001 528 1003 525 1001 b 511 1007 518 1001 514 1004 l 406 1119 l 301 1007 b 289 1001 299 1004 293 1001 b 282 1004 286 1001 285 1003 l 272 1013 b 267 1024 269 1015 267 1019 b 269 1032 267 1026 268 1029 b 383 1201 269 1032 382 1201 b 404 1213 388 1208 396 1213 l 408 1213 b 429 1201 417 1213 424 1208 "},"":{"ha":792,"x_min":0,"x_max":0,"o":"m 651 939 b 764 826 713 939 764 889 l 764 672 b 676 564 764 611 733 564 l 667 564 b 572 675 610 568 594 606 b 422 808 543 763 488 808 b 388 804 411 808 400 808 b 326 700 365 796 326 769 l 326 564 b 356 535 326 549 340 535 b 414 571 376 535 406 547 b 478 639 428 610 442 638 l 481 639 b 544 574 515 639 544 608 l 544 365 b 478 300 544 329 514 300 b 414 368 442 301 426 322 b 356 404 408 399 376 404 b 326 375 340 404 326 392 l 326 249 b 418 129 326 217 343 129 l 418 131 b 572 264 492 131 542 172 b 667 376 594 333 610 371 l 676 376 b 764 268 733 376 764 328 l 764 114 b 651 0 764 51 713 0 l 114 0 l 110 1 b 49 65 75 3 49 32 b 63 107 49 81 54 96 b 110 249 94 146 110 197 l 110 690 b 63 833 110 742 94 793 b 49 874 54 844 49 858 b 110 939 49 908 75 936 m 488 1011 b 418 1079 449 1011 418 1042 b 488 1149 418 1118 449 1149 b 556 1079 525 1149 556 1118 b 488 1011 556 1042 525 1011 m 325 1011 b 256 1079 286 1011 256 1042 b 325 1149 256 1118 286 1149 b 393 1079 363 1149 393 1118 b 325 1011 393 1042 363 1011 "},"":{"ha":386,"x_min":0,"x_max":0,"o":"m 372 833 b 326 690 340 793 326 742 l 326 249 b 372 107 326 197 340 146 b 386 65 382 96 386 81 b 326 1 386 32 360 3 l 322 0 l 114 0 l 108 1 b 49 65 75 3 49 32 b 63 107 49 81 54 96 b 108 249 94 146 108 197 l 108 690 b 63 833 108 742 94 793 b 49 874 54 844 49 858 b 108 939 49 908 75 936 l 326 939 b 386 874 360 936 386 908 b 372 833 386 858 382 844 m 122 1207 b 139 1213 128 1211 133 1213 b 164 1200 149 1213 158 1208 l 275 1032 b 278 1024 276 1029 278 1026 b 272 1013 278 1019 275 1015 l 263 1004 b 254 1001 260 1003 257 1001 b 243 1006 250 1001 246 1003 l 106 1154 b 99 1174 100 1160 99 1167 b 110 1197 99 1182 101 1192 "},"":{"ha":386,"x_min":0,"x_max":0,"o":"m 372 833 b 326 690 340 793 326 742 l 326 249 b 372 107 326 197 340 146 b 386 65 382 96 386 81 b 326 1 386 32 360 3 l 322 0 l 114 0 l 108 1 b 49 65 75 3 49 32 b 63 107 49 81 54 96 b 108 249 94 146 108 197 l 108 690 b 63 833 108 742 94 793 b 49 874 54 844 49 858 b 108 939 49 908 75 936 l 326 939 b 386 874 360 936 386 908 b 372 833 386 858 382 844 m 326 1197 b 338 1174 335 1192 338 1182 b 331 1154 338 1167 336 1160 l 193 1006 b 182 1001 190 1003 186 1001 b 174 1004 179 1001 176 1003 l 164 1013 b 158 1022 160 1015 158 1018 b 161 1032 158 1025 160 1029 l 272 1200 b 297 1213 278 1208 288 1213 b 314 1207 303 1213 308 1211 "},"":{"ha":386,"x_min":0,"x_max":0,"o":"m 372 833 b 326 690 340 793 326 742 l 326 249 b 372 107 326 197 340 146 b 386 65 382 96 386 81 b 326 1 386 32 360 3 l 322 0 l 114 0 l 108 1 b 49 65 75 3 49 32 b 63 107 49 81 54 96 b 108 249 94 146 108 197 l 108 690 b 63 833 108 742 94 793 b 49 874 54 844 49 858 b 108 939 49 908 75 936 l 326 939 b 386 874 360 936 386 908 b 372 833 386 858 382 844 m 242 1201 b 356 1032 243 1201 356 1032 b 358 1024 357 1029 358 1026 b 353 1013 358 1019 356 1015 l 343 1004 b 335 1001 340 1003 338 1001 b 324 1007 331 1001 326 1004 l 218 1119 l 114 1007 b 101 1001 111 1004 106 1001 b 94 1004 99 1001 97 1003 l 85 1013 b 79 1024 82 1015 79 1019 b 82 1032 79 1026 81 1029 b 196 1201 82 1032 194 1201 b 217 1213 200 1208 208 1213 l 221 1213 b 242 1201 229 1213 236 1208 "},"":{"ha":386,"x_min":0,"x_max":0,"o":"m 372 833 b 326 690 340 793 326 742 l 326 249 b 372 107 326 197 340 146 b 386 65 382 96 386 81 b 326 1 386 32 360 3 l 322 0 l 114 0 l 108 1 b 49 65 75 3 49 32 b 63 107 49 81 54 96 b 108 249 94 146 108 197 l 108 690 b 63 833 108 742 94 793 b 49 874 54 844 49 858 b 108 939 49 908 75 936 l 326 939 b 386 874 360 936 386 908 b 372 833 386 858 382 844 m 300 1011 b 231 1079 261 1011 231 1042 b 300 1149 231 1118 261 1149 b 368 1079 338 1149 368 1118 b 300 1011 368 1042 338 1011 m 138 1011 b 68 1079 99 1011 68 1042 b 138 1149 68 1118 99 1149 b 206 1079 175 1149 206 1118 b 138 1011 206 1042 175 1011 "},"":{"ha":844,"x_min":0,"x_max":0,"o":"m 326 247 b 353 164 326 214 335 186 b 428 131 371 142 396 131 b 532 231 472 131 507 164 b 568 469 556 296 568 376 b 554 640 568 532 564 589 b 510 763 544 692 531 732 b 428 808 489 793 461 808 b 353 775 396 808 371 797 b 326 692 335 753 326 725 l 326 535 l 453 535 b 488 521 465 535 478 531 b 501 485 497 511 501 499 l 501 454 b 488 419 501 440 497 429 b 453 404 478 410 465 404 l 326 404 m 110 690 b 63 833 110 742 94 790 b 49 874 53 844 49 858 b 67 918 49 892 54 906 b 110 939 78 931 92 938 l 442 939 b 625 897 507 939 568 925 b 761 769 682 868 728 826 b 821 631 785 729 804 682 b 844 469 836 578 844 524 b 731 115 844 331 807 213 b 614 29 699 78 660 49 b 469 0 567 10 518 0 l 114 0 l 110 1 b 67 22 92 3 78 10 b 49 65 54 35 49 49 b 63 107 49 81 53 94 b 110 249 94 150 110 197 l 110 404 l -115 404 b -150 419 -129 404 -140 410 b -165 454 -160 429 -165 440 l -165 485 b -150 521 -165 499 -160 511 b -115 535 -140 531 -129 535 l 110 535 "},"":{"ha":840,"x_min":0,"x_max":0,"o":"m 840 874 b 771 665 840 810 771 783 l 771 292 b 840 68 771 181 840 153 l 840 65 b 775 0 840 29 811 0 l 638 0 b 497 203 544 0 569 92 l 493 211 l 299 490 b 276 501 293 499 285 501 b 250 475 263 501 250 492 l 250 361 b 379 67 250 249 379 154 l 379 65 b 314 0 379 29 350 0 l 115 0 b 50 64 79 0 50 29 l 50 67 b 119 275 50 139 119 163 l 119 639 b 50 874 119 758 50 810 b 115 939 50 910 81 939 l 254 939 b 324 888 293 939 317 917 b 396 729 329 872 350 800 l 593 447 b 614 436 599 440 606 436 b 642 464 628 436 642 447 l 642 665 b 572 874 642 785 572 810 b 638 939 572 910 603 939 l 775 939 b 840 874 811 939 840 910 m 614 1107 b 613 1104 613 1106 613 1106 b 611 1100 611 1103 611 1101 b 600 1082 608 1094 604 1089 b 583 1063 596 1075 590 1068 b 558 1050 576 1056 568 1051 b 546 1049 554 1049 550 1049 b 525 1053 540 1049 532 1050 b 485 1078 513 1057 500 1065 l 350 1051 l 351 1053 l 353 1056 b 356 1061 353 1057 354 1058 b 372 1085 360 1068 365 1076 b 400 1106 379 1093 389 1100 b 422 1110 407 1108 414 1110 b 438 1108 426 1110 432 1110 b 485 1081 451 1106 467 1096 "},"":{"ha":829,"x_min":0,"x_max":0,"o":"m 439 949 b 829 469 674 949 829 735 b 439 -10 829 204 690 -10 b 49 469 175 -10 49 204 b 439 949 49 735 193 949 m 439 131 b 569 469 524 131 569 282 b 439 808 569 657 521 808 b 307 469 356 808 307 657 b 439 131 307 282 350 131 m 342 1207 b 358 1213 347 1211 353 1213 b 383 1200 368 1213 378 1208 l 494 1032 b 497 1024 496 1029 497 1026 b 492 1013 497 1019 494 1015 l 482 1004 b 474 1001 479 1003 476 1001 b 463 1006 469 1001 465 1003 l 325 1154 b 318 1174 319 1160 318 1167 b 329 1197 318 1182 321 1192 "},"":{"ha":829,"x_min":0,"x_max":0,"o":"m 439 949 b 829 469 674 949 829 735 b 439 -10 829 204 690 -10 b 49 469 175 -10 49 204 b 439 949 49 735 193 949 m 439 131 b 569 469 524 131 569 282 b 439 808 569 657 521 808 b 307 469 356 808 307 657 b 439 131 307 282 350 131 m 546 1197 b 557 1174 554 1192 557 1182 b 550 1154 557 1167 556 1160 l 413 1006 b 401 1001 410 1003 406 1001 b 393 1004 399 1001 396 1003 l 383 1013 b 378 1022 379 1015 378 1018 b 381 1032 378 1025 379 1029 l 492 1200 b 517 1213 497 1208 507 1213 b 533 1207 522 1213 528 1211 "},"":{"ha":829,"x_min":0,"x_max":0,"o":"m 439 949 b 829 469 674 949 829 735 b 439 -10 829 204 690 -10 b 49 469 175 -10 49 204 b 439 949 49 735 193 949 m 439 131 b 569 469 524 131 569 282 b 439 808 569 657 521 808 b 307 469 356 808 307 657 b 439 131 307 282 350 131 m 461 1201 b 575 1032 463 1201 575 1032 b 578 1024 576 1029 578 1026 b 572 1013 578 1019 575 1015 l 563 1004 b 554 1001 560 1003 557 1001 b 543 1007 550 1001 546 1004 l 438 1119 l 333 1007 b 321 1001 331 1004 325 1001 b 314 1004 318 1001 317 1003 l 304 1013 b 299 1024 301 1015 299 1019 b 301 1032 299 1026 300 1029 b 415 1201 301 1032 414 1201 b 436 1213 419 1208 428 1213 l 440 1213 b 461 1201 449 1213 456 1208 "},"":{"ha":829,"x_min":0,"x_max":0,"o":"m 439 949 b 829 469 674 949 829 735 b 439 -10 829 204 690 -10 b 49 469 175 -10 49 204 b 439 949 49 735 193 949 m 439 131 b 569 469 524 131 569 282 b 439 808 569 657 521 808 b 307 469 356 808 307 657 b 439 131 307 282 350 131 m 569 1107 b 568 1104 568 1106 568 1106 b 567 1100 567 1103 567 1101 b 556 1082 564 1094 560 1089 b 539 1063 551 1075 546 1068 b 514 1050 532 1056 524 1051 b 501 1049 510 1049 506 1049 b 481 1053 496 1049 488 1050 b 440 1078 468 1057 456 1065 l 306 1051 l 307 1053 l 308 1056 b 311 1061 308 1057 310 1058 b 328 1085 315 1068 321 1076 b 356 1106 335 1093 344 1100 b 378 1110 363 1108 369 1110 b 393 1108 382 1110 388 1110 b 440 1081 407 1106 422 1096 "},"":{"ha":829,"x_min":0,"x_max":0,"o":"m 439 949 b 829 469 674 949 829 735 b 439 -10 829 204 690 -10 b 49 469 175 -10 49 204 b 439 949 49 735 193 949 m 439 131 b 569 469 524 131 569 282 b 439 808 569 657 521 808 b 307 469 356 808 307 657 b 439 131 307 282 350 131 m 519 1011 b 450 1079 481 1011 450 1042 b 519 1149 450 1118 481 1149 b 588 1079 557 1149 588 1118 b 519 1011 588 1042 557 1011 m 357 1011 b 288 1079 318 1011 288 1042 b 357 1149 288 1118 318 1149 b 425 1079 394 1149 425 1118 b 357 1011 425 1042 394 1011 "},"":{"ha":471,"x_min":0,"x_max":0,"o":"m 385 501 b 371 469 376 493 371 481 b 385 436 371 457 376 446 l 451 369 b 467 335 461 360 467 347 b 451 300 467 322 461 310 l 429 278 b 394 264 419 268 407 264 b 358 278 381 264 368 268 l 293 343 b 260 358 285 353 272 358 b 226 343 247 358 236 353 l 161 278 b 126 264 151 268 139 264 b 90 278 113 264 100 268 l 68 300 b 54 335 58 310 54 322 b 68 369 54 347 58 360 l 135 436 b 149 469 144 446 149 457 b 135 501 149 481 144 493 l 68 568 b 54 603 58 578 54 590 b 68 638 54 617 58 629 l 90 660 b 126 675 100 669 113 675 b 161 660 139 675 151 669 l 226 594 b 260 581 236 586 247 581 b 293 594 272 581 285 586 l 358 660 b 394 675 368 669 381 675 b 429 660 407 675 419 669 l 451 638 b 467 603 461 629 467 617 b 451 568 467 590 461 578 "},"":{"ha":831,"x_min":0,"x_max":0,"o":"m 544 933 b 831 469 721 881 831 692 b 544 3 831 243 729 54 b 506 -50 521 -4 506 -25 l 506 -103 b 457 -150 506 -129 483 -150 l 422 -150 b 375 -103 396 -150 375 -129 l 375 -51 b 335 1 375 -26 358 -4 b 49 469 142 51 49 242 b 336 935 49 694 154 883 b 375 988 358 942 375 963 l 375 1040 b 422 1088 375 1067 396 1088 l 457 1088 b 506 1040 483 1088 506 1067 l 506 986 b 544 933 506 961 521 940 m 506 167 b 571 469 549 224 571 338 b 506 769 571 599 547 713 b 440 808 486 794 465 808 b 375 771 415 808 393 794 b 308 469 332 714 308 600 b 375 165 308 336 331 219 b 440 131 393 143 414 131 b 506 167 465 131 488 143 "},"":{"ha":821,"x_min":0,"x_max":0,"o":"m 761 939 b 821 874 794 936 821 908 b 807 833 821 858 817 844 b 761 690 775 793 761 742 l 761 219 b 542 0 761 99 663 0 l 328 0 b 110 219 207 0 110 99 l 110 690 b 63 833 110 742 94 793 b 49 874 54 844 49 858 b 110 939 49 908 75 936 l 326 939 b 388 874 360 936 388 908 b 374 833 388 858 382 844 b 326 690 342 793 326 742 l 326 283 b 435 131 326 224 350 131 b 543 283 513 131 543 224 l 543 690 b 497 833 543 742 529 793 b 483 874 489 844 483 858 b 543 939 483 908 510 936 m 339 1207 b 356 1213 344 1211 350 1213 b 381 1200 365 1213 375 1208 l 492 1032 b 494 1024 493 1029 494 1026 b 489 1013 494 1019 492 1015 l 479 1004 b 471 1001 476 1003 474 1001 b 460 1006 467 1001 463 1003 l 322 1154 b 315 1174 317 1160 315 1167 b 326 1197 315 1182 318 1192 "},"":{"ha":821,"x_min":0,"x_max":0,"o":"m 761 939 b 821 874 794 936 821 908 b 807 833 821 858 817 844 b 761 690 775 793 761 742 l 761 219 b 542 0 761 99 663 0 l 328 0 b 110 219 207 0 110 99 l 110 690 b 63 833 110 742 94 793 b 49 874 54 844 49 858 b 110 939 49 908 75 936 l 326 939 b 388 874 360 936 388 908 b 374 833 388 858 382 844 b 326 690 342 793 326 742 l 326 283 b 435 131 326 224 350 131 b 543 283 513 131 543 224 l 543 690 b 497 833 543 742 529 793 b 483 874 489 844 483 858 b 543 939 483 908 510 936 m 543 1197 b 554 1174 551 1192 554 1182 b 547 1154 554 1167 553 1160 l 410 1006 b 399 1001 407 1003 403 1001 b 390 1004 396 1001 393 1003 l 381 1013 b 375 1022 376 1015 375 1018 b 378 1032 375 1025 376 1029 l 489 1200 b 514 1213 494 1208 504 1213 b 531 1207 519 1213 525 1211 "},"":{"ha":821,"x_min":0,"x_max":0,"o":"m 761 939 b 821 874 794 936 821 908 b 807 833 821 858 817 844 b 761 690 775 793 761 742 l 761 219 b 542 0 761 99 663 0 l 328 0 b 110 219 207 0 110 99 l 110 690 b 63 833 110 742 94 793 b 49 874 54 844 49 858 b 110 939 49 908 75 936 l 326 939 b 388 874 360 936 388 908 b 374 833 388 858 382 844 b 326 690 342 793 326 742 l 326 283 b 435 131 326 224 350 131 b 543 283 513 131 543 224 l 543 690 b 497 833 543 742 529 793 b 483 874 489 844 483 858 b 543 939 483 908 510 936 m 458 1201 b 572 1032 460 1201 572 1032 b 575 1024 574 1029 575 1026 b 569 1013 575 1019 572 1015 l 560 1004 b 551 1001 557 1003 554 1001 b 540 1007 547 1001 543 1004 l 435 1119 l 331 1007 b 318 1001 328 1004 322 1001 b 311 1004 315 1001 314 1003 l 301 1013 b 296 1024 299 1015 296 1019 b 299 1032 296 1026 297 1029 b 413 1201 299 1032 411 1201 b 433 1213 417 1208 425 1213 l 438 1213 b 458 1201 446 1213 453 1208 "},"":{"ha":821,"x_min":0,"x_max":0,"o":"m 761 939 b 821 874 794 936 821 908 b 807 833 821 858 817 844 b 761 690 775 793 761 742 l 761 219 b 542 0 761 99 663 0 l 328 0 b 110 219 207 0 110 99 l 110 690 b 63 833 110 742 94 793 b 49 874 54 844 49 858 b 110 939 49 908 75 936 l 326 939 b 388 874 360 936 388 908 b 374 833 388 858 382 844 b 326 690 342 793 326 742 l 326 283 b 435 131 326 224 350 131 b 543 283 513 131 543 224 l 543 690 b 497 833 543 742 529 793 b 483 874 489 844 483 858 b 543 939 483 908 510 936 m 517 1011 b 447 1079 478 1011 447 1042 b 517 1149 447 1118 478 1149 b 585 1079 554 1149 585 1118 b 517 1011 585 1042 554 1011 m 354 1011 b 285 1079 315 1011 285 1042 b 354 1149 285 1118 315 1149 b 422 1079 392 1149 422 1118 b 354 1011 422 1042 392 1011 "},"":{"ha":843,"x_min":0,"x_max":0,"o":"m 778 939 b 843 874 814 939 843 910 b 824 826 843 856 835 839 b 682 632 824 826 729 771 b 560 279 682 632 604 407 b 556 249 557 269 556 258 b 601 107 556 197 569 146 b 615 65 611 96 615 81 b 556 1 615 32 589 3 l 550 0 l 343 0 l 338 1 b 278 65 304 3 278 32 b 292 107 278 81 283 96 b 338 249 324 146 338 197 b 325 318 338 272 333 296 l 194 642 b 68 829 144 765 101 794 b 50 875 58 840 50 857 l 50 879 b 118 939 53 913 83 939 l 324 939 b 333 938 326 939 331 939 b 389 874 365 933 389 906 b 374 768 389 863 374 818 b 381 711 374 750 375 731 b 454 521 381 710 454 521 b 482 497 460 510 469 497 b 513 533 492 497 503 507 b 549 653 513 533 547 647 b 556 717 553 674 556 696 b 526 825 556 764 544 806 b 504 874 513 836 504 854 b 560 938 504 906 529 933 b 569 939 563 939 567 939 m 556 1197 b 567 1174 564 1192 567 1182 b 560 1154 567 1167 565 1160 l 422 1006 b 411 1001 419 1003 415 1001 b 403 1004 408 1001 406 1003 l 393 1013 b 388 1022 389 1015 388 1018 b 390 1032 388 1025 389 1029 l 501 1200 b 526 1213 507 1208 517 1213 b 543 1207 532 1213 538 1211 "},"":{"ha":761,"x_min":0,"x_max":0,"o":"m 328 643 b 350 572 331 615 338 592 b 407 535 365 547 385 535 b 496 575 444 535 475 549 b 526 672 517 601 526 635 b 496 768 526 710 517 742 b 407 808 475 794 444 808 b 363 793 390 808 375 803 b 335 753 349 783 339 769 b 329 718 332 743 331 731 b 328 711 328 715 328 714 l 328 643 m 494 939 b 683 861 568 939 631 913 b 761 672 735 808 761 746 b 683 483 761 599 735 535 b 494 404 631 431 568 404 l 439 404 b 360 372 407 404 381 393 b 326 293 338 350 326 324 l 326 231 b 374 107 326 185 342 144 b 388 65 383 94 388 81 b 371 22 388 49 382 35 b 326 1 358 10 344 3 l 322 0 l 114 0 l 110 1 b 67 22 92 3 78 10 b 49 65 54 35 49 49 b 64 107 49 81 54 94 b 110 249 94 150 110 197 l 99 938 b 64 1007 92 961 79 985 b 50 1047 54 1018 50 1032 b 68 1092 50 1065 56 1079 b 110 1113 79 1104 93 1111 l 328 1113 b 371 1092 346 1111 360 1104 b 388 1047 382 1079 388 1065 b 374 1007 388 1032 383 1018 b 339 939 358 985 347 963 "},"":{"ha":814,"x_min":0,"x_max":0,"o":"m 326 671 b 350 569 326 625 335 592 b 407 535 365 546 385 535 b 496 575 444 535 475 549 b 526 671 517 601 526 633 b 496 768 526 708 517 742 b 407 808 475 794 444 808 b 361 793 389 808 374 803 b 333 753 347 783 338 769 b 329 715 332 742 331 729 b 326 678 328 700 326 688 m 564 267 b 528 364 564 304 551 338 b 433 404 503 390 471 404 b 358 364 404 404 379 390 b 326 267 338 338 328 304 l 326 263 b 363 165 326 219 339 188 b 446 131 386 142 414 131 b 533 171 483 131 513 144 b 564 267 554 197 564 229 m 658 492 b 779 401 715 472 756 442 b 814 267 803 358 814 314 b 736 78 814 193 788 129 b 547 0 685 26 621 0 l 108 0 b 67 21 92 1 78 8 b 49 65 54 33 49 47 b 63 106 49 81 53 93 b 108 249 93 149 108 197 l 108 710 b 175 871 108 772 131 826 b 338 939 218 914 272 938 l 493 939 b 682 860 567 939 631 913 b 761 671 735 808 761 744 b 736 572 761 636 753 604 b 658 492 719 540 693 513 "},"":{"ha":757,"x_min":0,"x_max":0,"o":"m 700 229 b 757 108 700 169 757 161 b 607 -11 757 76 729 -11 b 519 19 571 -11 542 1 b 481 32 508 28 494 32 b 447 24 469 32 457 29 b 329 -8 411 3 371 -8 b 49 339 174 -8 49 147 b 329 694 49 532 174 694 b 460 663 379 694 422 683 b 508 650 474 654 492 650 b 543 657 519 650 532 653 l 607 682 b 639 689 618 686 629 689 b 700 631 674 689 700 663 m 482 339 b 372 561 482 449 432 561 b 265 339 314 561 265 449 b 372 122 265 231 314 122 b 472 254 415 122 454 181 b 482 339 479 281 482 310 m 342 957 b 358 963 347 961 353 963 b 383 950 368 963 378 958 l 494 782 b 497 774 496 779 497 776 b 492 763 497 769 494 765 l 482 754 b 474 751 479 753 476 751 b 463 756 469 751 465 753 l 325 904 b 318 924 319 910 318 917 b 329 947 318 932 321 942 "},"":{"ha":757,"x_min":0,"x_max":0,"o":"m 700 229 b 757 108 700 169 757 161 b 607 -11 757 76 729 -11 b 519 19 571 -11 542 1 b 481 32 508 28 494 32 b 447 24 469 32 457 29 b 329 -8 411 3 371 -8 b 49 339 174 -8 49 147 b 329 694 49 532 174 694 b 460 663 379 694 422 683 b 508 650 474 654 492 650 b 543 657 519 650 532 653 l 607 682 b 639 689 618 686 629 689 b 700 631 674 689 700 663 m 482 339 b 372 561 482 449 432 561 b 265 339 314 561 265 449 b 372 122 265 231 314 122 b 472 254 415 122 454 181 b 482 339 479 281 482 310 m 486 947 b 497 924 494 942 497 932 b 490 904 497 917 496 910 l 353 756 b 342 751 350 753 346 751 b 333 754 339 751 336 753 l 324 763 b 318 772 319 765 318 768 b 321 782 318 775 319 779 l 432 950 b 457 963 438 958 447 963 b 474 957 463 963 468 961 "},"":{"ha":757,"x_min":0,"x_max":0,"o":"m 700 229 b 757 108 700 169 757 161 b 607 -11 757 76 729 -11 b 519 19 571 -11 542 1 b 481 32 508 28 494 32 b 447 24 469 32 457 29 b 329 -8 411 3 371 -8 b 49 339 174 -8 49 147 b 329 694 49 532 174 694 b 460 663 379 694 422 683 b 508 650 474 654 492 650 b 543 657 519 650 532 653 l 607 682 b 639 689 618 686 629 689 b 700 631 674 689 700 663 m 482 339 b 372 561 482 449 432 561 b 265 339 314 561 265 449 b 372 122 265 231 314 122 b 472 254 415 122 454 181 b 482 339 479 281 482 310 m 431 951 b 544 782 432 951 544 782 b 547 774 546 779 547 776 b 542 763 547 769 544 765 l 532 754 b 524 751 529 753 526 751 b 513 757 519 751 515 754 l 407 869 l 303 757 b 290 751 300 754 294 751 b 283 754 288 751 286 753 l 274 763 b 268 774 271 765 268 769 b 271 782 268 776 269 779 b 385 951 271 782 383 951 b 406 963 389 958 397 963 l 410 963 b 431 951 418 963 425 958 "},"":{"ha":757,"x_min":0,"x_max":0,"o":"m 700 229 b 757 108 700 169 757 161 b 607 -11 757 76 729 -11 b 519 19 571 -11 542 1 b 481 32 508 28 494 32 b 447 24 469 32 457 29 b 329 -8 411 3 371 -8 b 49 339 174 -8 49 147 b 329 694 49 532 174 694 b 460 663 379 694 422 683 b 508 650 474 654 492 650 b 543 657 519 650 532 653 l 607 682 b 639 689 618 686 629 689 b 700 631 674 689 700 663 m 482 339 b 372 561 482 449 432 561 b 265 339 314 561 265 449 b 372 122 265 231 314 122 b 472 254 415 122 454 181 b 482 339 479 281 482 310 m 543 857 b 542 854 542 856 542 856 b 540 850 540 853 540 851 b 529 832 538 844 533 839 b 513 813 525 825 519 818 b 488 800 506 806 497 801 b 475 799 483 799 479 799 b 454 803 469 799 461 800 b 414 828 442 807 429 815 l 279 801 l 281 803 l 282 806 b 285 811 282 807 283 808 b 301 835 289 818 294 826 b 329 856 308 843 318 850 b 351 860 336 858 343 860 b 367 858 356 860 361 860 b 414 831 381 856 396 846 "},"":{"ha":757,"x_min":0,"x_max":0,"o":"m 700 229 b 757 108 700 169 757 161 b 607 -11 757 76 729 -11 b 519 19 571 -11 542 1 b 481 32 508 28 494 32 b 447 24 469 32 457 29 b 329 -8 411 3 371 -8 b 49 339 174 -8 49 147 b 329 694 49 532 174 694 b 460 663 379 694 422 683 b 508 650 474 654 492 650 b 543 657 519 650 532 653 l 607 682 b 639 689 618 686 629 689 b 700 631 674 689 700 663 m 482 339 b 372 561 482 449 432 561 b 265 339 314 561 265 449 b 372 122 265 231 314 122 b 472 254 415 122 454 181 b 482 339 479 281 482 310 m 483 761 b 414 829 444 761 414 792 b 483 899 414 868 444 899 b 551 829 521 899 551 868 b 483 761 551 792 521 761 m 321 761 b 251 829 282 761 251 792 b 321 899 251 868 282 899 b 389 829 358 899 389 868 b 321 761 389 792 358 761 "},"":{"ha":757,"x_min":0,"x_max":0,"o":"m 700 229 b 757 108 700 169 757 161 b 607 -11 757 76 729 -11 b 519 19 571 -11 542 1 b 481 32 508 28 494 32 b 447 24 469 32 457 29 b 329 -8 411 3 371 -8 b 49 339 174 -8 49 147 b 329 694 49 532 174 694 b 460 663 379 694 422 683 b 508 650 474 654 492 650 b 543 657 519 650 532 653 l 607 682 b 639 689 618 686 629 689 b 700 631 674 689 700 663 m 482 339 b 372 561 482 449 432 561 b 265 339 314 561 265 449 b 372 122 265 231 314 122 b 472 254 415 122 454 181 b 482 339 479 281 482 310 m 411 960 b 514 857 468 960 514 914 b 411 756 514 801 468 756 b 310 857 356 756 310 801 b 411 960 310 914 356 960 m 411 825 b 444 857 429 825 444 839 b 411 889 444 875 429 889 b 379 857 394 889 379 875 b 411 825 379 839 394 825 "},"":{"ha":1140,"x_min":0,"x_max":0,"o":"m 482 339 b 450 492 482 394 471 446 b 372 561 428 538 401 561 b 297 492 343 561 318 538 b 265 339 276 446 265 394 b 297 190 265 285 276 235 b 372 122 318 144 343 122 b 432 160 394 122 414 135 b 472 254 450 185 463 217 b 482 339 479 282 482 310 m 911 419 b 908 458 911 432 910 446 b 903 486 907 471 904 479 l 901 494 b 883 539 899 511 893 526 b 847 558 874 551 861 558 b 747 435 801 558 768 517 b 746 422 746 431 746 426 b 760 386 746 410 750 397 b 801 367 769 374 783 368 l 856 367 b 894 382 871 367 883 372 b 911 419 904 392 910 404 m 710 19 b 700 13 707 17 704 14 b 607 -11 679 -3 647 -11 b 519 19 571 -11 542 -1 b 481 32 507 28 494 32 b 447 24 469 32 458 29 b 329 -8 411 3 372 -8 b 131 93 251 -8 185 25 b 49 339 76 161 49 243 b 131 589 49 435 76 518 b 329 694 185 660 251 694 b 460 663 379 694 422 683 b 507 650 475 654 490 650 b 543 657 518 650 531 653 l 607 682 b 640 689 619 686 631 689 b 674 679 653 689 664 686 b 692 661 681 674 688 668 b 844 697 738 685 789 697 b 1044 631 919 697 986 675 b 1132 494 1093 588 1122 542 b 1139 433 1136 472 1139 451 b 1129 375 1139 411 1136 392 b 1092 338 1122 360 1110 347 b 1029 317 1072 328 1051 321 b 971 308 1007 313 988 310 l 965 308 b 951 307 960 307 956 307 l 803 307 b 763 286 785 307 772 300 b 754 260 757 278 754 269 b 758 239 754 253 756 246 b 824 171 776 201 797 178 b 857 167 835 168 846 167 b 903 174 868 167 883 169 b 954 201 921 178 939 186 b 1007 236 969 217 986 229 b 1025 239 1013 239 1018 239 b 1067 221 1039 239 1053 233 b 1093 160 1085 201 1093 182 b 1067 90 1093 143 1085 121 b 929 3 1049 61 1003 32 b 844 -8 903 -4 874 -8 b 710 19 796 -8 751 1 "},"":{"ha":644,"x_min":0,"x_max":0,"o":"m 351 -7 b 149 96 274 1 206 36 b 49 344 82 164 49 247 b 149 594 49 442 82 525 b 389 697 215 663 296 697 b 588 631 463 697 529 675 b 643 535 619 606 639 574 b 644 514 644 528 644 521 b 625 439 644 490 638 465 b 556 392 613 414 590 399 l 544 392 b 508 399 532 392 519 393 b 479 422 497 404 488 413 b 460 454 471 432 464 443 b 449 483 454 465 450 475 b 446 490 447 486 447 489 b 444 493 446 492 446 492 l 444 494 b 426 539 443 511 436 526 b 390 558 417 551 404 558 b 315 504 361 558 336 540 b 282 360 294 468 283 419 b 308 228 282 303 290 258 b 367 171 325 197 344 178 b 400 167 378 168 389 167 b 481 201 429 167 457 178 b 533 236 496 217 513 229 b 551 239 539 239 544 239 b 593 221 565 239 579 233 b 624 153 614 200 624 178 b 603 89 624 139 617 118 b 472 3 590 60 546 32 b 421 -7 456 -1 439 -6 l 421 -29 b 429 -53 421 -39 424 -46 b 450 -65 435 -60 442 -64 b 586 -203 540 -92 586 -137 b 529 -306 586 -243 567 -278 b 386 -349 490 -335 443 -349 b 240 -303 329 -349 281 -333 b 229 -278 233 -296 229 -287 b 240 -254 229 -268 233 -261 l 244 -250 b 265 -242 250 -246 257 -243 b 285 -249 272 -242 279 -244 b 386 -279 310 -269 343 -279 b 481 -254 425 -279 457 -271 b 517 -203 504 -239 517 -221 b 492 -160 517 -187 508 -174 b 421 -131 474 -146 450 -136 b 386 -128 411 -129 399 -128 l 383 -128 b 361 -118 375 -128 368 -125 b 351 -96 354 -112 351 -106 l 351 -7 "},"":{"ha":683,"x_min":0,"x_max":0,"o":"m 588 631 b 683 436 658 571 683 496 b 674 375 683 413 679 392 b 489 307 650 310 489 307 l 346 307 b 297 258 318 307 297 283 b 301 239 297 251 299 246 b 367 171 318 201 342 179 b 401 167 378 168 389 167 b 497 201 436 167 475 179 b 568 239 517 221 542 239 b 610 221 582 239 596 235 b 636 161 628 203 636 182 b 472 3 636 104 579 40 b 389 -8 446 -4 417 -8 b 49 344 201 -8 49 150 b 389 697 49 539 201 697 b 588 631 463 697 533 675 m 454 428 b 447 486 454 451 450 475 l 444 494 b 390 558 440 526 418 558 b 290 435 344 558 307 511 b 289 424 289 431 289 426 b 344 367 289 393 313 367 l 399 367 b 454 419 428 367 454 389 m 294 960 b 311 965 300 964 306 965 b 336 953 321 965 331 961 l 447 785 b 450 776 449 782 450 779 b 444 765 450 772 447 768 l 435 757 b 426 754 432 756 429 754 b 415 758 422 754 418 756 l 278 907 b 271 926 272 913 271 919 b 282 950 271 935 274 944 "},"":{"ha":683,"x_min":0,"x_max":0,"o":"m 588 631 b 683 436 658 571 683 496 b 674 375 683 413 679 392 b 489 307 650 310 489 307 l 346 307 b 297 258 318 307 297 283 b 301 239 297 251 299 246 b 367 171 318 201 342 179 b 401 167 378 168 389 167 b 497 201 436 167 475 179 b 568 239 517 221 542 239 b 610 221 582 239 596 235 b 636 161 628 203 636 182 b 472 3 636 104 579 40 b 389 -8 446 -4 417 -8 b 49 344 201 -8 49 150 b 389 697 49 539 201 697 b 588 631 463 697 533 675 m 454 428 b 447 486 454 451 450 475 l 444 494 b 390 558 440 526 418 558 b 290 435 344 558 307 511 b 289 424 289 431 289 426 b 344 367 289 393 313 367 l 399 367 b 454 419 428 367 454 389 m 499 950 b 510 926 507 944 510 935 b 503 907 510 919 508 913 l 365 758 b 354 754 363 756 358 754 b 346 757 351 754 349 756 l 336 765 b 331 775 332 768 331 771 b 333 785 331 778 332 782 l 444 953 b 469 965 450 961 460 965 b 486 960 475 965 481 964 "},"":{"ha":683,"x_min":0,"x_max":0,"o":"m 588 631 b 683 436 658 571 683 496 b 674 375 683 413 679 392 b 489 307 650 310 489 307 l 346 307 b 297 258 318 307 297 283 b 301 239 297 251 299 246 b 367 171 318 201 342 179 b 401 167 378 168 389 167 b 497 201 436 167 475 179 b 568 239 517 221 542 239 b 610 221 582 239 596 235 b 636 161 628 203 636 182 b 472 3 636 104 579 40 b 389 -8 446 -4 417 -8 b 49 344 201 -8 49 150 b 389 697 49 539 201 697 b 588 631 463 697 533 675 m 454 428 b 447 486 454 451 450 475 l 444 494 b 390 558 440 526 418 558 b 290 435 344 558 307 511 b 289 424 289 431 289 426 b 344 367 289 393 313 367 l 399 367 b 454 419 428 367 454 389 m 414 954 b 528 785 415 954 528 785 b 531 776 529 782 531 779 b 525 765 531 772 528 768 l 515 757 b 507 754 513 756 510 754 b 496 760 503 754 499 757 l 390 872 l 286 760 b 274 754 283 757 278 754 b 267 757 271 754 269 756 l 257 765 b 251 776 254 768 251 772 b 254 785 251 779 253 782 b 368 954 254 785 367 954 b 389 965 372 961 381 965 l 393 965 b 414 954 401 965 408 961 "},"":{"ha":683,"x_min":0,"x_max":0,"o":"m 588 631 b 683 436 658 571 683 496 b 674 375 683 413 679 392 b 489 307 650 310 489 307 l 346 307 b 297 258 318 307 297 283 b 301 239 297 251 299 246 b 367 171 318 201 342 179 b 401 167 378 168 389 167 b 497 201 436 167 475 179 b 568 239 517 221 542 239 b 610 221 582 239 596 235 b 636 161 628 203 636 182 b 472 3 636 104 579 40 b 389 -8 446 -4 417 -8 b 49 344 201 -8 49 150 b 389 697 49 539 201 697 b 588 631 463 697 533 675 m 454 428 b 447 486 454 451 450 475 l 444 494 b 390 558 440 526 418 558 b 290 435 344 558 307 511 b 289 424 289 431 289 426 b 344 367 289 393 313 367 l 399 367 b 454 419 428 367 454 389 m 472 764 b 403 832 433 764 403 794 b 472 901 403 871 433 901 b 540 832 510 901 540 871 b 472 764 540 794 510 764 m 310 764 b 240 832 271 764 240 794 b 310 901 240 871 271 901 b 378 832 347 901 378 871 b 310 764 378 794 347 764 "},"":{"ha":388,"x_min":0,"x_max":0,"o":"m 110 0 b 50 64 76 1 50 31 b 64 106 50 79 54 94 b 110 247 96 144 110 196 l 110 374 b 64 517 110 425 96 476 b 50 553 56 526 50 539 l 50 557 b 79 611 50 579 65 599 b 121 638 92 622 106 631 l 235 682 b 267 689 246 686 257 689 b 328 631 301 689 328 663 l 328 247 b 374 106 328 196 342 144 b 388 64 382 94 388 79 b 328 0 388 31 361 1 m 167 957 b 183 963 172 961 178 963 b 208 950 193 963 203 958 l 319 782 b 322 774 321 779 322 776 b 317 763 322 769 319 765 l 307 754 b 299 751 304 753 301 751 b 288 756 294 751 290 753 l 150 904 b 143 924 144 910 143 917 b 154 947 143 932 146 942 "},"":{"ha":388,"x_min":0,"x_max":0,"o":"m 110 0 b 50 64 76 1 50 31 b 64 106 50 79 54 94 b 110 247 96 144 110 196 l 110 374 b 64 517 110 425 96 476 b 50 553 56 526 50 539 l 50 557 b 79 611 50 579 65 599 b 121 638 92 622 106 631 l 235 682 b 267 689 246 686 257 689 b 328 631 301 689 328 663 l 328 247 b 374 106 328 196 342 144 b 388 64 382 94 388 79 b 328 0 388 31 361 1 m 296 947 b 307 924 304 942 307 932 b 300 904 307 917 306 910 l 163 756 b 151 751 160 753 156 751 b 143 754 149 751 146 753 l 133 763 b 128 772 129 765 128 768 b 131 782 128 775 129 779 l 242 950 b 267 963 247 958 257 963 b 283 957 272 963 278 961 "},"":{"ha":388,"x_min":0,"x_max":0,"o":"m 110 0 b 50 64 76 1 50 31 b 64 106 50 79 54 94 b 110 247 96 144 110 196 l 110 374 b 64 517 110 425 96 476 b 50 553 56 526 50 539 l 50 557 b 79 611 50 579 65 599 b 121 638 92 622 106 631 l 235 682 b 267 689 246 686 257 689 b 328 631 301 689 328 663 l 328 247 b 374 106 328 196 342 144 b 388 64 382 94 388 79 b 328 0 388 31 361 1 m 239 969 b 353 800 240 969 353 800 b 356 792 354 797 356 794 b 350 781 356 788 353 783 l 340 772 b 332 769 338 771 335 769 b 321 775 328 769 324 772 l 215 888 l 111 775 b 99 769 108 772 103 769 b 92 772 96 769 94 771 l 82 781 b 76 792 79 783 76 788 b 79 800 76 794 78 797 b 193 969 79 800 192 969 b 214 981 197 976 206 981 l 218 981 b 239 969 226 981 233 976 "},"":{"ha":388,"x_min":0,"x_max":0,"o":"m 110 0 b 50 64 76 1 50 31 b 64 106 50 79 54 94 b 110 247 96 144 110 196 l 110 374 b 64 517 110 425 96 476 b 50 553 56 526 50 539 l 50 557 b 79 611 50 579 65 599 b 121 638 92 622 106 631 l 235 682 b 267 689 246 686 257 689 b 328 631 301 689 328 663 l 328 247 b 374 106 328 196 342 144 b 388 64 382 94 388 79 b 328 0 388 31 361 1 m 300 799 b 231 867 261 799 231 829 b 300 936 231 906 261 936 b 368 867 338 936 368 906 b 300 799 368 829 338 799 m 138 799 b 68 867 99 799 68 829 b 138 936 68 906 99 936 b 206 867 175 936 206 906 b 138 799 206 829 175 799 "},"":{"ha":757,"x_min":0,"x_max":0,"o":"m 374 124 b 451 193 404 125 431 149 b 483 340 472 236 483 286 b 451 493 483 396 472 447 b 374 563 429 539 403 563 b 299 493 344 563 319 539 b 267 340 278 447 267 396 b 299 192 267 286 278 236 b 374 124 319 146 344 124 m 432 839 b 422 872 425 849 422 860 b 433 903 424 883 426 893 b 453 926 439 913 446 919 b 494 953 465 938 479 946 l 608 997 b 643 1004 621 1003 632 1004 b 681 992 654 1004 667 1000 b 700 946 693 982 700 967 l 700 839 l 772 839 b 808 825 786 839 799 835 b 822 789 818 815 822 803 l 822 757 b 808 724 822 744 818 733 b 772 708 799 714 786 708 l 700 708 l 700 231 b 711 193 701 215 704 203 b 731 165 717 183 724 174 b 750 142 738 158 744 150 b 757 108 754 132 757 121 b 746 64 757 99 753 83 b 701 13 738 44 722 28 b 608 -11 681 -3 649 -11 b 519 21 572 -11 543 0 b 479 35 507 31 493 35 b 451 29 469 35 461 33 b 411 11 439 24 425 18 b 331 -7 385 -1 357 -7 b 132 94 253 -7 186 26 b 49 340 76 163 49 244 b 78 518 49 404 58 464 b 164 649 96 572 125 615 b 313 697 203 681 253 697 b 375 689 331 697 351 694 b 433 664 399 683 418 675 b 451 658 439 660 446 658 b 471 664 457 658 463 661 b 483 689 478 668 482 676 b 482 708 483 696 483 701 l 379 708 b 344 724 365 708 354 714 b 329 757 335 733 329 744 l 329 789 b 344 825 329 803 335 815 b 379 839 354 835 365 839 l 432 839 "},"":{"ha":815,"x_min":0,"x_max":0,"o":"m 760 229 b 815 108 760 169 815 161 b 667 -11 815 76 788 -11 b 528 150 549 -11 528 82 b 533 217 528 182 532 208 b 544 350 542 279 544 350 b 438 563 542 457 494 563 b 354 479 404 563 374 529 b 326 342 338 440 328 390 l 326 247 b 374 106 326 196 342 144 b 388 64 382 94 388 79 b 326 0 388 31 361 1 l 110 0 b 50 64 76 1 50 31 b 64 106 50 79 54 94 b 110 247 96 144 110 196 l 110 374 b 64 517 110 425 96 476 b 50 553 56 526 50 539 l 50 557 b 79 611 50 579 65 599 b 121 638 92 622 106 631 l 235 682 b 267 689 246 686 257 689 b 326 629 301 689 326 663 b 332 622 326 629 326 624 b 344 633 335 622 339 625 b 497 696 379 676 446 696 b 761 340 679 696 761 533 b 760 238 761 340 761 265 m 564 858 b 563 856 563 857 563 857 b 561 851 561 854 561 853 b 550 833 558 846 554 840 b 533 814 546 826 540 819 b 508 801 526 807 518 803 b 496 800 504 800 500 800 b 475 804 490 800 482 801 b 435 829 463 808 450 817 l 300 803 l 301 804 l 303 807 b 306 813 303 808 304 810 b 322 836 310 819 315 828 b 350 857 329 844 339 851 b 372 861 357 860 364 861 b 388 860 376 861 382 861 b 435 832 401 857 417 847 "},"":{"ha":728,"x_min":0,"x_max":0,"o":"m 388 697 b 728 344 575 697 728 539 b 388 -8 728 150 575 -8 b 49 344 200 -8 49 150 b 388 697 49 539 200 697 m 390 129 b 499 344 450 129 499 225 b 390 558 499 463 450 558 b 282 344 331 558 282 463 b 390 129 282 225 331 129 m 292 960 b 308 965 297 964 303 965 b 333 953 318 965 328 961 l 444 785 b 447 776 446 782 447 779 b 442 765 447 772 444 768 l 432 757 b 424 754 429 756 426 754 b 413 758 419 754 415 756 l 275 907 b 268 926 269 913 268 919 b 279 950 268 935 271 944 "},"":{"ha":728,"x_min":0,"x_max":0,"o":"m 388 697 b 728 344 575 697 728 539 b 388 -8 728 150 575 -8 b 49 344 200 -8 49 150 b 388 697 49 539 200 697 m 390 129 b 499 344 450 129 499 225 b 390 558 499 463 450 558 b 282 344 331 558 282 463 b 390 129 282 225 331 129 m 496 950 b 507 926 504 944 507 935 b 500 907 507 919 506 913 l 363 758 b 351 754 360 756 356 754 b 343 757 349 754 346 756 l 333 765 b 328 775 329 768 328 771 b 331 785 328 778 329 782 l 442 953 b 467 965 447 961 457 965 b 483 960 472 965 478 964 "},"":{"ha":728,"x_min":0,"x_max":0,"o":"m 388 697 b 728 344 575 697 728 539 b 388 -8 728 150 575 -8 b 49 344 200 -8 49 150 b 388 697 49 539 200 697 m 390 129 b 499 344 450 129 499 225 b 390 558 499 463 450 558 b 282 344 331 558 282 463 b 390 129 282 225 331 129 m 411 954 b 525 785 413 954 525 785 b 528 776 526 782 528 779 b 522 765 528 772 525 768 l 513 757 b 504 754 510 756 507 754 b 493 760 500 754 496 757 l 388 872 l 283 760 b 271 754 281 757 275 754 b 264 757 268 754 267 756 l 254 765 b 249 776 251 768 249 772 b 251 785 249 779 250 782 b 365 954 251 785 364 954 b 386 965 369 961 378 965 l 390 965 b 411 954 399 965 406 961 "},"":{"ha":728,"x_min":0,"x_max":0,"o":"m 388 697 b 728 344 575 697 728 539 b 388 -8 728 150 575 -8 b 49 344 200 -8 49 150 b 388 697 49 539 200 697 m 390 129 b 499 344 450 129 499 225 b 390 558 499 463 450 558 b 282 344 331 558 282 463 b 390 129 282 225 331 129 m 519 860 b 518 857 518 858 518 858 b 517 853 517 856 517 854 b 506 835 514 847 510 842 b 489 815 501 828 496 821 b 464 803 482 808 474 804 b 451 801 460 801 456 801 b 431 806 446 801 438 803 b 390 831 418 810 406 818 l 256 804 l 257 806 l 258 808 b 261 814 258 810 260 811 b 278 838 265 821 271 829 b 306 858 285 846 294 853 b 328 863 313 861 319 863 b 343 861 332 863 338 863 b 390 833 357 858 372 849 "},"":{"ha":728,"x_min":0,"x_max":0,"o":"m 388 697 b 728 344 575 697 728 539 b 388 -8 728 150 575 -8 b 49 344 200 -8 49 150 b 388 697 49 539 200 697 m 390 129 b 499 344 450 129 499 225 b 390 558 499 463 450 558 b 282 344 331 558 282 463 b 390 129 282 225 331 129 m 469 764 b 400 832 431 764 400 794 b 469 901 400 871 431 901 b 538 832 507 901 538 871 b 469 764 538 794 507 764 m 307 764 b 238 832 268 764 238 794 b 307 901 238 871 268 901 b 375 832 344 901 375 871 b 307 764 375 794 344 764 "},"":{"ha":542,"x_min":0,"x_max":0,"o":"m 492 535 b 542 485 519 535 542 513 l 542 453 b 492 404 542 426 519 404 l 99 404 b 49 453 71 404 49 426 l 49 485 b 99 535 49 513 71 535 m 296 378 b 406 267 357 378 406 328 b 296 156 406 206 357 156 b 185 267 235 156 185 206 b 296 378 185 328 235 378 m 296 782 b 406 671 357 782 406 732 b 296 560 406 610 357 560 b 185 671 235 560 185 610 b 296 782 185 732 235 782 "},"":{"ha":728,"x_min":0,"x_max":0,"o":"m 390 129 b 467 193 419 129 446 150 b 499 344 488 235 499 285 b 467 496 499 404 488 454 b 390 558 446 538 419 558 b 314 496 360 558 335 538 b 282 344 293 454 282 404 b 314 193 282 285 293 235 b 390 129 335 150 360 129 m 365 -67 b 278 -125 346 -106 317 -125 l 178 -125 b 139 -104 160 -125 147 -118 b 131 -78 133 -96 131 -87 b 133 -60 131 -72 132 -65 l 183 63 b 149 96 171 72 160 83 b 49 344 82 164 49 247 b 149 594 49 442 82 525 b 388 697 214 663 294 697 b 438 693 406 697 422 696 l 463 756 b 550 814 483 794 513 814 l 651 814 b 690 794 668 814 681 807 b 699 768 696 786 699 778 b 694 749 699 763 697 756 l 631 592 b 728 344 696 524 728 440 b 628 96 728 247 694 164 b 389 -8 561 26 482 -8 "},"":{"ha":818,"x_min":0,"x_max":0,"o":"m 761 240 b 818 119 761 181 818 172 b 669 -1 818 88 790 -1 b 543 78 597 -1 561 36 b 525 54 543 78 526 57 b 372 -8 492 13 424 -8 b 110 347 150 -8 110 156 l 110 374 b 63 517 110 425 94 476 b 49 557 54 528 49 542 b 78 611 50 579 64 599 b 121 638 90 622 106 631 l 233 682 b 265 689 244 686 256 689 b 326 631 301 689 326 663 l 326 339 b 433 125 329 232 343 125 b 517 210 467 125 497 160 b 543 346 533 249 543 297 l 543 374 b 497 517 543 425 528 476 b 482 557 488 528 482 542 b 513 611 483 579 497 599 b 554 638 525 622 539 631 l 668 682 b 700 689 679 686 690 689 b 760 631 735 689 760 663 m 338 888 b 354 893 343 892 349 893 b 379 881 364 893 374 889 l 490 713 b 493 704 492 710 493 707 b 488 693 493 700 490 696 l 478 685 b 469 682 475 683 472 682 b 458 686 465 682 461 683 l 321 835 b 314 854 315 840 314 847 b 325 878 314 863 317 872 "},"":{"ha":818,"x_min":0,"x_max":0,"o":"m 761 240 b 818 119 761 181 818 172 b 669 -1 818 88 790 -1 b 543 78 597 -1 561 36 b 525 54 543 78 526 57 b 372 -8 492 13 424 -8 b 110 347 150 -8 110 156 l 110 374 b 63 517 110 425 94 476 b 49 557 54 528 49 542 b 78 611 50 579 64 599 b 121 638 90 622 106 631 l 233 682 b 265 689 244 686 256 689 b 326 631 301 689 326 663 l 326 339 b 433 125 329 232 343 125 b 517 210 467 125 497 160 b 543 346 533 249 543 297 l 543 374 b 497 517 543 425 528 476 b 482 557 488 528 482 542 b 513 611 483 579 497 599 b 554 638 525 622 539 631 l 668 682 b 700 689 679 686 690 689 b 760 631 735 689 760 663 m 542 914 b 553 890 550 908 553 899 b 546 871 553 883 551 876 l 408 722 b 397 718 406 719 401 718 b 389 721 394 718 392 719 l 379 729 b 374 739 375 732 374 735 b 376 749 374 742 375 746 l 488 917 b 513 929 493 925 503 929 b 529 924 518 929 524 928 "},"":{"ha":818,"x_min":0,"x_max":0,"o":"m 761 240 b 818 119 761 181 818 172 b 669 -1 818 88 790 -1 b 543 78 597 -1 561 36 b 525 54 543 78 526 57 b 372 -8 492 13 424 -8 b 110 347 150 -8 110 156 l 110 374 b 63 517 110 425 94 476 b 49 557 54 528 49 542 b 78 611 50 579 64 599 b 121 638 90 622 106 631 l 233 682 b 265 689 244 686 256 689 b 326 631 301 689 326 663 l 326 339 b 433 125 329 232 343 125 b 517 210 467 125 497 160 b 543 346 533 249 543 297 l 543 374 b 497 517 543 425 528 476 b 482 557 488 528 482 542 b 513 611 483 579 497 599 b 554 638 525 622 539 631 l 668 682 b 700 689 679 686 690 689 b 760 631 735 689 760 663 m 457 915 b 571 746 458 915 571 746 b 574 738 572 743 574 740 b 568 726 574 733 571 729 l 558 718 b 550 715 556 717 553 715 b 539 721 546 715 542 718 l 433 833 l 329 721 b 317 715 326 718 321 715 b 310 718 314 715 313 717 l 300 726 b 294 738 297 729 294 733 b 297 746 294 740 296 743 b 411 915 297 746 410 915 b 432 926 415 922 424 926 l 436 926 b 457 915 444 926 451 922 "},"":{"ha":818,"x_min":0,"x_max":0,"o":"m 761 240 b 818 119 761 181 818 172 b 669 -1 818 88 790 -1 b 543 78 597 -1 561 36 b 525 54 543 78 526 57 b 372 -8 492 13 424 -8 b 110 347 150 -8 110 156 l 110 374 b 63 517 110 425 94 476 b 49 557 54 528 49 542 b 78 611 50 579 64 599 b 121 638 90 622 106 631 l 233 682 b 265 689 244 686 256 689 b 326 631 301 689 326 663 l 326 339 b 433 125 329 232 343 125 b 517 210 467 125 497 160 b 543 346 533 249 543 297 l 543 374 b 497 517 543 425 528 476 b 482 557 488 528 482 542 b 513 611 483 579 497 599 b 554 638 525 622 539 631 l 668 682 b 700 689 679 686 690 689 b 760 631 735 689 760 663 m 515 764 b 446 832 476 764 446 794 b 515 901 446 871 476 901 b 583 832 553 901 583 871 b 515 764 583 794 553 764 m 353 764 b 283 832 314 764 283 794 b 353 901 283 871 314 901 b 421 832 390 901 421 871 b 353 764 421 794 390 764 "},"":{"ha":725,"x_min":0,"x_max":0,"o":"m 657 689 b 724 636 689 689 717 667 b 725 624 725 632 725 628 b 708 581 725 607 718 592 b 608 369 708 581 650 488 b 456 -131 608 369 518 72 b 206 -317 422 -240 321 -317 l 161 -317 b 51 -190 146 -317 65 -315 b 50 -167 50 -182 50 -175 b 144 -74 50 -81 119 -74 l 154 -74 b 267 -87 157 -74 218 -81 b 285 -89 272 -89 279 -89 b 339 -51 308 -89 329 -81 b 340 -40 340 -47 340 -44 b 296 3 340 -10 296 3 b 231 67 264 13 239 36 l 154 313 b 65 517 151 322 119 449 b 51 553 57 526 51 539 l 51 557 b 81 611 51 579 67 599 b 122 638 93 622 107 631 l 236 682 b 268 689 247 686 258 689 b 328 632 303 689 328 664 b 367 360 331 539 340 447 l 399 260 b 419 244 401 250 410 244 b 439 260 428 244 436 250 l 475 376 b 483 442 482 397 483 419 b 451 594 483 521 451 594 b 447 624 449 604 447 617 b 513 689 447 660 476 689 m 496 938 b 507 914 504 932 507 922 b 500 894 507 907 506 900 l 363 746 b 351 742 360 743 356 742 b 343 744 349 742 346 743 l 333 753 b 328 763 329 756 328 758 b 331 772 328 765 329 769 l 442 940 b 467 953 447 949 457 953 b 483 947 472 953 478 951 "},"":{"ha":761,"x_min":0,"x_max":0,"o":"m 438 124 b 513 192 467 124 492 146 b 544 340 533 236 544 286 b 513 493 544 396 533 447 b 438 563 492 539 467 563 b 360 493 408 563 382 539 b 326 340 338 447 326 396 b 360 192 326 286 338 236 b 438 124 382 146 408 124 m 326 628 b 328 625 326 626 326 626 b 329 624 328 624 328 624 b 331 622 329 622 329 622 b 336 624 332 622 335 622 b 340 628 338 625 339 626 b 343 632 342 629 342 631 l 344 633 b 481 696 383 675 429 696 b 679 590 558 696 625 661 b 761 340 733 519 761 436 b 679 94 761 244 733 163 b 481 -7 625 26 558 -7 b 400 11 453 -7 426 -1 b 378 24 393 14 385 18 b 358 31 371 28 365 31 b 339 24 354 31 347 28 b 326 -1 331 19 326 11 l 326 -68 b 374 -211 326 -119 342 -167 b 388 -251 383 -222 388 -236 b 371 -294 388 -268 382 -282 b 326 -315 358 -307 344 -314 l 326 -317 l 110 -317 l 110 -315 b 67 -294 92 -314 78 -307 b 49 -251 54 -282 49 -268 b 63 -211 49 -236 53 -222 b 110 -68 94 -167 110 -119 l 110 381 b 111 456 111 407 111 432 b 93 622 111 533 106 589 b 63 681 86 643 75 663 b 49 721 53 692 49 706 b 58 751 49 732 51 742 b 78 775 64 761 71 768 b 119 801 90 786 104 794 l 233 846 b 267 853 246 850 257 853 b 306 839 279 853 292 849 b 326 794 319 829 326 815 l 326 628 "},"":{"ha":725,"x_min":0,"x_max":0,"o":"m 657 689 b 724 636 689 689 717 667 b 725 624 725 632 725 628 b 708 581 725 607 718 592 b 608 369 708 581 650 488 b 456 -131 608 369 518 72 b 206 -317 422 -240 321 -317 l 161 -317 b 51 -190 146 -317 65 -315 b 50 -167 50 -182 50 -175 b 144 -74 50 -81 119 -74 l 154 -74 b 267 -87 157 -74 218 -81 b 285 -89 272 -89 279 -89 b 339 -51 308 -89 329 -81 b 340 -40 340 -47 340 -44 b 296 3 340 -10 296 3 b 231 67 264 13 239 36 l 154 313 b 65 517 151 322 119 449 b 51 553 57 526 51 539 l 51 557 b 81 611 51 579 67 599 b 122 638 93 622 107 631 l 236 682 b 268 689 247 686 258 689 b 328 632 303 689 328 664 b 367 360 331 539 340 447 l 399 260 b 419 244 401 250 410 244 b 439 260 428 244 436 250 l 475 376 b 483 442 482 397 483 419 b 451 594 483 521 451 594 b 447 624 449 604 447 617 b 513 689 447 660 476 689 m 469 756 b 400 824 431 756 400 786 b 469 893 400 863 431 893 b 538 824 507 893 538 863 b 469 756 538 786 507 756 m 307 756 b 238 824 268 756 238 786 b 307 893 238 863 268 893 b 375 824 344 893 375 863 b 307 756 375 786 344 756 "},"":{"ha":388,"x_min":0,"x_max":0,"o":"m 110 0 b 50 64 76 1 50 31 b 64 106 50 79 54 94 b 110 247 96 144 110 196 l 110 374 b 64 517 110 425 96 476 b 50 553 56 526 50 539 l 50 557 b 79 611 50 579 65 599 b 121 638 92 622 106 631 l 235 682 b 267 689 246 686 257 689 b 328 631 301 689 328 663 l 328 247 b 374 106 328 196 342 144 b 388 64 382 94 388 79 b 328 0 388 31 361 1 "},"":{"ha":233,"x_min":0,"x_max":0,"o":"m 76 1207 b 93 1213 82 1211 88 1213 b 118 1200 103 1213 113 1208 l 229 1032 b 232 1024 231 1029 232 1026 b 226 1013 232 1019 229 1015 l 217 1004 b 208 1001 214 1003 211 1001 b 197 1006 204 1001 200 1003 l 60 1154 b 53 1174 54 1160 53 1167 b 64 1197 53 1182 56 1192 "},"":{"ha":233,"x_min":0,"x_max":0,"o":"m 218 1197 b 229 1174 226 1192 229 1182 b 222 1154 229 1167 228 1160 l 85 1006 b 74 1001 82 1003 78 1001 b 65 1004 71 1001 68 1003 l 56 1013 b 50 1022 51 1015 50 1018 b 53 1032 50 1025 51 1029 l 164 1200 b 189 1213 169 1208 179 1213 b 206 1207 194 1213 200 1211 "},"":{"ha":331,"x_min":0,"x_max":0,"o":"m 213 1201 b 326 1032 214 1201 326 1032 b 329 1024 328 1029 329 1026 b 324 1013 329 1019 326 1015 l 314 1004 b 306 1001 311 1003 308 1001 b 294 1007 301 1001 297 1004 l 189 1119 l 85 1007 b 72 1001 82 1004 76 1001 b 65 1004 69 1001 68 1003 l 56 1013 b 50 1024 53 1015 50 1019 b 53 1032 50 1026 51 1029 b 167 1201 53 1032 165 1201 b 188 1213 171 1208 179 1213 l 192 1213 b 213 1201 200 1213 207 1208 "},"":{"ha":313,"x_min":0,"x_max":0,"o":"m 313 1107 b 311 1104 311 1106 311 1106 b 310 1100 310 1103 310 1101 b 299 1082 307 1094 303 1089 b 282 1063 294 1075 289 1068 b 257 1050 275 1056 267 1051 b 244 1049 253 1049 249 1049 b 224 1053 239 1049 231 1050 b 183 1078 211 1057 199 1065 l 49 1051 l 50 1053 l 51 1056 b 54 1061 51 1057 53 1058 b 71 1085 58 1068 64 1076 b 99 1106 78 1093 88 1100 b 121 1110 106 1108 113 1110 b 136 1108 125 1110 131 1110 b 183 1081 150 1106 165 1096 "},"":{"ha":282,"x_min":0,"x_max":0,"o":"m 258 1110 b 282 1088 271 1110 282 1100 l 282 1072 b 258 1049 282 1060 271 1049 l 72 1049 b 49 1072 60 1049 49 1060 l 49 1088 b 72 1110 49 1100 60 1110 "},"":{"ha":186,"x_min":0,"x_max":0,"o":"m 118 1011 b 49 1079 79 1011 49 1042 b 118 1149 49 1118 79 1149 b 186 1079 156 1149 186 1118 b 118 1011 186 1042 156 1011 "},"":{"ha":349,"x_min":0,"x_max":0,"o":"m 281 1011 b 211 1079 242 1011 211 1042 b 281 1149 211 1118 242 1149 b 349 1079 318 1149 349 1118 b 281 1011 349 1042 318 1011 m 118 1011 b 49 1079 79 1011 49 1042 b 118 1149 49 1118 79 1149 b 186 1079 156 1149 186 1118 b 118 1011 186 1042 156 1011 "},"":{"ha":253,"x_min":0,"x_max":0,"o":"m 150 1210 b 253 1107 207 1210 253 1164 b 150 1006 253 1051 207 1006 b 49 1107 94 1006 49 1051 b 150 1210 49 1164 94 1210 m 150 1075 b 183 1107 168 1075 183 1089 b 150 1139 183 1125 168 1139 b 118 1107 133 1139 118 1125 b 150 1075 118 1089 133 1075 "},"":{"ha":331,"x_min":0,"x_max":0,"o":"m 213 1013 b 192 1001 207 1006 200 1001 l 188 1001 b 167 1013 179 1001 171 1006 b 53 1183 165 1014 53 1183 b 50 1190 51 1186 50 1188 b 56 1203 50 1194 53 1200 l 65 1210 b 74 1213 68 1211 71 1213 b 85 1208 78 1213 82 1211 l 189 1096 l 294 1208 b 304 1213 297 1211 300 1213 b 314 1210 307 1213 311 1211 l 324 1203 b 329 1190 326 1200 329 1194 b 326 1183 329 1188 328 1186 b 213 1013 326 1183 214 1014 "},"":{"ha":410,"x_min":0,"x_max":0,"o":"m 274 -129 b 410 -267 353 -149 410 -201 b 210 -412 410 -349 322 -412 b 64 -367 151 -412 100 -394 b 53 -342 57 -360 53 -351 b 64 -318 53 -333 57 -324 l 68 -314 b 89 -307 74 -308 82 -307 b 108 -312 96 -307 103 -308 b 210 -343 132 -331 168 -343 b 340 -267 286 -343 340 -303 b 244 -194 340 -237 303 -204 b 210 -192 235 -193 222 -192 l 207 -192 b 175 -160 190 -192 175 -178 l 175 39 b 206 69 175 56 189 69 l 215 69 b 244 39 232 69 244 56 l 244 -93 b 274 -129 244 -111 257 -125 "},"":{"ha":542,"x_min":0,"x_max":0,"o":"m 492 535 b 542 485 519 535 542 513 l 542 453 b 492 404 542 426 519 404 l 99 404 b 49 453 71 404 49 426 l 49 485 b 99 535 49 513 71 535 "},"":{"ha":783,"x_min":0,"x_max":0,"o":"m 99 404 b 64 419 85 404 74 410 b 49 453 54 429 49 440 l 49 485 b 64 521 49 499 54 511 b 99 535 74 531 85 535 l 733 535 b 769 521 747 535 760 531 b 783 485 779 511 783 499 l 783 453 b 769 419 783 440 779 429 b 733 404 760 410 747 404 l 99 404 "},"":{"ha":288,"x_min":0,"x_max":0,"o":"m 174 686 b 63 796 113 686 63 735 l 63 807 b 178 989 63 840 71 939 b 185 990 181 990 183 990 b 203 972 194 990 203 982 b 201 967 203 971 201 968 b 190 932 200 963 190 949 b 215 899 190 921 196 908 b 285 796 256 881 285 842 l 285 789 b 179 686 281 733 235 688 "},"":{"ha":288,"x_min":0,"x_max":0,"o":"m 163 990 b 274 879 224 990 274 942 l 274 868 b 158 688 274 835 265 738 b 151 686 156 686 153 686 b 133 704 142 686 133 694 b 135 710 133 706 135 708 b 146 743 136 714 146 728 b 121 776 146 756 140 768 b 51 881 81 794 51 833 l 51 888 b 157 990 56 943 101 989 "},"":{"ha":288,"x_min":0,"x_max":0,"o":"m 163 221 b 274 110 224 221 274 172 l 274 99 b 158 -82 274 65 265 -32 b 151 -83 156 -83 153 -83 b 133 -65 142 -83 133 -75 b 135 -60 133 -64 135 -61 b 146 -26 136 -56 146 -42 b 121 7 146 -14 140 -1 b 51 111 81 25 51 64 l 51 118 b 157 221 56 174 101 219 "},"":{"ha":528,"x_min":0,"x_max":0,"o":"m 174 686 b 63 796 113 686 63 735 l 63 807 b 178 989 63 840 71 939 b 185 990 181 990 183 990 b 203 972 194 990 203 982 b 201 967 203 971 201 968 b 190 932 200 963 190 949 b 215 899 190 921 196 908 b 285 796 256 881 285 842 l 285 789 b 179 686 281 733 235 688 m 414 686 b 303 796 353 686 303 735 l 303 807 b 418 989 303 840 311 939 b 425 990 421 990 424 990 b 443 972 435 990 443 982 b 442 967 443 971 442 968 b 431 932 440 963 431 949 b 456 899 431 921 436 908 b 525 796 496 881 525 842 l 525 789 b 419 686 521 733 475 688 "},"":{"ha":529,"x_min":0,"x_max":0,"o":"m 404 990 b 515 879 465 990 515 942 l 515 868 b 400 688 515 835 507 738 b 393 686 397 686 394 686 b 375 704 383 686 375 694 b 376 710 375 706 376 708 b 388 743 378 714 388 728 b 363 776 388 756 382 768 b 293 881 322 794 293 833 l 293 888 b 399 990 297 943 343 989 m 163 990 b 274 879 224 990 274 942 l 274 868 b 158 688 274 835 265 738 b 151 686 156 686 153 686 b 133 704 142 686 133 694 b 135 710 133 706 135 708 b 146 743 136 714 146 728 b 121 776 146 756 140 768 b 51 881 81 794 51 833 l 51 888 b 157 990 56 943 101 989 "},"":{"ha":528,"x_min":0,"x_max":0,"o":"m 403 221 b 514 110 464 221 514 172 l 514 99 b 399 -82 514 65 506 -32 b 392 -83 396 -83 393 -83 b 374 -65 382 -83 374 -75 b 375 -60 374 -64 375 -61 b 386 -26 376 -56 386 -42 b 361 7 386 -14 381 -1 b 292 111 321 25 292 64 l 292 118 b 397 221 296 174 342 219 m 163 221 b 274 110 224 221 274 172 l 274 99 b 158 -82 274 65 265 -32 b 151 -83 156 -83 153 -83 b 133 -65 142 -83 133 -75 b 135 -60 133 -64 135 -61 b 146 -26 136 -56 146 -42 b 121 7 146 -14 140 -1 b 51 111 81 25 51 64 l 51 118 b 157 221 56 174 101 219 "},"":{"ha":567,"x_min":0,"x_max":0,"o":"m 517 685 b 567 636 544 685 567 663 l 567 604 b 517 556 567 576 544 556 l 404 556 b 372 524 386 556 372 540 l 372 99 b 319 46 372 69 349 46 l 296 46 b 242 99 267 46 242 69 l 242 524 b 211 556 242 540 228 556 l 97 556 b 49 604 71 556 49 576 l 49 636 b 97 685 49 663 71 685 l 211 685 b 242 717 228 685 242 699 l 242 844 b 296 897 242 874 267 897 l 319 897 b 372 844 349 897 372 874 l 372 717 b 404 685 372 699 386 685 "},"":{"ha":568,"x_min":0,"x_max":0,"o":"m 518 683 b 568 633 546 683 568 661 l 568 601 b 518 553 568 575 546 553 l 397 553 b 374 529 385 553 374 542 l 374 414 b 397 390 374 401 385 390 l 518 390 b 568 342 546 390 568 369 l 568 310 b 518 261 568 283 546 261 l 397 261 b 374 238 385 261 374 250 l 374 99 b 321 46 374 69 350 46 l 296 46 b 243 99 267 46 243 69 l 243 238 b 219 261 243 250 233 261 l 99 261 b 49 310 71 261 49 283 l 49 342 b 99 390 49 369 71 390 l 219 390 b 243 414 233 390 243 401 l 243 529 b 219 553 243 542 233 553 l 99 553 b 49 601 71 553 49 575 l 49 633 b 99 683 49 661 71 683 l 219 683 b 243 706 233 683 243 693 l 243 844 b 296 897 243 874 267 897 l 321 897 b 374 844 350 897 374 874 l 374 706 b 397 683 374 693 385 683 "},"":{"ha":451,"x_min":0,"x_max":0,"o":"m 250 286 b 107 344 193 286 146 306 b 49 488 68 383 49 432 b 108 629 49 543 69 590 b 250 688 147 668 194 688 b 392 628 306 688 353 668 b 451 488 431 589 451 542 b 392 344 451 432 431 385 b 250 286 351 306 304 286 "},"":{"ha":1389,"x_min":0,"x_max":0,"o":"m 160 221 b 271 110 221 221 271 172 b 160 0 271 49 221 0 b 49 110 99 0 49 49 b 160 221 49 172 99 221 m 622 221 b 733 110 683 221 733 172 b 622 0 733 49 683 0 b 511 110 561 0 511 49 b 622 221 511 172 561 221 m 1085 221 b 1196 110 1146 221 1196 172 b 1085 0 1196 49 1146 0 b 974 110 1024 0 974 49 b 1085 221 974 172 1024 221 "},"":{"ha":456,"x_min":0,"x_max":0,"o":"m 443 614 b 449 592 447 607 449 599 b 421 547 449 574 439 556 l 269 469 l 421 390 b 449 346 439 382 449 364 b 443 324 449 339 447 331 l 429 296 b 385 269 419 279 403 269 b 361 275 376 269 368 271 l 128 396 l 93 413 b 60 468 71 425 60 446 b 93 524 60 490 71 513 l 128 542 l 361 663 b 385 668 368 667 376 668 b 429 642 403 668 419 658 "},"":{"ha":456,"x_min":0,"x_max":0,"o":"m 61 324 b 56 346 57 331 56 339 b 82 390 56 364 65 382 l 233 469 l 82 547 b 56 592 65 556 56 574 b 61 614 56 599 57 607 l 75 642 b 119 668 83 658 101 668 b 142 663 126 668 135 667 l 376 542 l 410 525 b 444 469 433 513 444 492 b 411 414 444 447 433 425 l 376 396 l 142 275 b 119 269 135 271 126 269 b 75 296 101 269 83 279 "},"":{"ha":636,"x_min":0,"x_max":0,"o":"m 579 939 b 626 892 606 939 626 917 b 622 874 626 886 625 879 l 293 58 b 206 0 279 22 244 0 l 106 0 b 58 47 78 0 58 22 b 61 64 58 53 58 58 l 392 879 b 478 939 406 915 440 939 "},"":{"ha":836,"x_min":0,"x_max":0,"o":"m 739 568 b 644 681 682 574 668 611 b 486 814 601 806 510 814 l 481 814 b 372 696 481 814 372 813 l 372 575 b 404 542 372 557 388 542 l 492 542 b 542 493 519 542 542 519 l 542 461 b 492 413 542 435 519 413 l 407 413 b 375 381 390 413 375 399 l 375 378 b 468 140 379 240 400 140 b 565 226 533 140 565 226 b 703 386 588 269 617 386 b 813 265 810 386 813 265 l 813 128 b 793 67 813 106 807 83 b 729 33 781 50 761 33 b 686 42 713 33 699 38 b 658 46 676 44 667 46 b 619 38 644 46 632 43 l 618 36 b 468 0 571 13 526 0 b 349 15 419 0 382 3 b 158 379 211 68 171 210 b 125 413 158 397 143 413 l 99 413 b 49 461 71 413 49 435 l 49 493 b 99 542 49 519 71 542 l 121 542 b 156 576 140 542 156 558 l 156 694 b 108 839 156 746 140 797 b 94 879 100 850 94 864 b 156 943 94 913 121 942 l 160 944 l 724 944 b 836 831 785 944 836 893 l 836 676 b 749 568 836 617 806 568 l 739 568 "},"":{"ha":826,"x_min":0,"x_max":0,"o":"m 739 375 b 826 267 796 375 826 328 l 826 113 b 714 0 826 50 776 0 l 146 0 b 85 65 111 3 85 31 b 99 106 85 81 90 94 b 146 249 131 146 146 197 l 146 285 b 117 313 146 300 133 313 l 99 313 b 49 363 71 313 49 335 l 49 393 b 99 443 49 421 71 443 l 119 443 b 146 468 135 443 146 454 l 146 469 b 119 494 146 483 133 494 l 99 494 b 49 544 71 494 49 517 l 49 576 b 99 625 49 603 71 625 l 131 625 b 158 649 144 625 157 636 b 339 928 178 781 225 885 b 458 944 379 943 410 944 b 608 907 517 944 561 931 l 610 907 b 647 897 622 900 635 897 b 676 903 657 897 667 899 b 719 910 689 907 703 910 b 783 876 751 910 771 894 b 803 817 797 860 803 838 l 803 678 b 693 557 803 678 800 557 b 556 717 607 557 578 674 b 458 803 556 717 524 803 b 371 656 406 803 382 744 l 371 653 b 399 625 371 639 383 625 l 492 625 b 542 576 519 625 542 603 l 542 544 b 492 494 542 517 519 494 l 389 494 b 363 469 375 494 363 483 b 389 443 363 454 375 443 l 492 443 b 542 393 519 443 542 421 l 542 363 b 492 313 542 335 519 313 l 390 313 b 363 285 375 313 363 300 l 363 247 b 471 131 363 131 471 131 l 478 131 b 635 264 503 131 592 139 b 729 375 658 332 672 369 "},"":{"ha":1449,"x_min":0,"x_max":0,"o":"m 371 535 b 450 575 406 535 432 549 b 478 672 468 601 478 635 b 450 768 478 710 468 742 b 371 808 432 794 406 808 b 329 793 356 808 342 803 b 306 753 317 783 310 769 b 300 718 303 743 301 731 b 299 682 299 706 299 693 l 299 672 b 371 535 299 589 322 543 m 661 546 b 619 483 650 524 636 503 b 449 404 572 431 515 404 l 399 404 b 328 372 371 404 347 393 b 299 293 308 350 299 324 l 299 231 b 340 107 299 185 313 144 b 353 65 349 94 353 81 b 338 22 353 49 347 35 b 299 1 328 10 314 3 l 294 0 l 107 0 l 103 1 b 64 22 88 3 74 10 b 49 65 54 35 49 49 b 61 107 49 81 53 94 b 103 249 89 150 103 197 l 103 690 b 61 833 103 742 89 790 b 49 874 53 844 49 858 b 64 918 49 892 54 906 b 103 939 74 931 88 938 l 449 939 b 619 861 515 939 572 913 b 672 774 643 835 660 806 b 697 818 682 789 690 803 b 786 876 718 857 747 876 b 856 857 814 876 838 869 b 885 796 875 843 885 822 l 885 771 b 886 743 885 763 885 753 b 907 704 888 728 894 714 b 947 689 918 694 932 689 l 978 689 b 1022 672 996 689 1010 683 b 1146 688 1054 682 1096 688 l 1250 688 b 1447 540 1382 688 1447 639 b 1350 443 1447 478 1415 444 b 1238 517 1304 443 1267 468 b 1210 550 1231 528 1222 539 b 1168 565 1197 560 1183 565 b 1154 564 1165 565 1161 565 b 1135 558 1147 563 1142 561 b 1121 542 1128 554 1124 549 b 1118 526 1118 536 1118 531 b 1124 507 1118 521 1119 514 b 1143 488 1128 500 1133 494 b 1168 471 1153 481 1161 475 b 1178 465 1172 469 1176 467 b 1290 403 1215 442 1253 421 b 1299 399 1293 401 1296 400 b 1385 343 1332 382 1361 364 b 1432 279 1403 328 1418 307 b 1449 201 1443 257 1449 231 l 1447 183 b 1371 49 1440 126 1415 82 b 1172 -1 1325 15 1260 -1 b 1011 24 1103 -1 1049 7 b 975 44 997 31 985 38 b 932 17 963 35 949 25 b 826 -6 903 1 868 -6 b 739 24 789 -6 760 4 b 690 94 717 43 700 67 b 672 175 681 122 674 149 b 668 233 669 200 668 219 l 668 526 b 661 546 668 533 665 540 m 910 550 b 901 543 907 549 904 546 b 885 504 890 532 885 519 l 885 336 b 897 253 885 299 889 271 b 910 236 900 246 904 240 b 911 244 910 238 910 240 b 921 275 913 253 915 263 b 943 310 925 288 933 299 b 985 332 953 319 967 328 b 1008 335 993 333 1000 335 b 1051 328 1019 335 1035 332 b 1094 271 1068 322 1082 303 b 1133 221 1104 247 1117 231 b 1179 200 1150 210 1165 203 b 1204 197 1188 197 1196 197 b 1233 201 1214 197 1224 199 b 1258 215 1243 203 1251 208 b 1267 240 1264 221 1267 229 l 1267 244 b 1222 286 1263 258 1249 272 b 1136 324 1196 299 1167 311 b 1097 340 1122 329 1110 335 b 999 389 1060 356 1026 372 b 932 446 969 404 947 424 b 908 529 917 468 908 496 b 910 550 908 536 908 543 "},"":{"ha":882,"x_min":0,"x_max":0,"o":"m 788 914 b 851 882 818 914 839 899 b 871 821 864 865 871 843 l 871 683 b 761 563 871 683 868 563 b 622 722 674 563 644 678 b 526 808 622 722 590 808 b 417 671 475 808 439 754 b 415 661 415 668 415 665 b 451 625 415 642 431 625 l 492 625 b 540 576 518 625 540 603 l 540 544 b 492 494 540 517 518 494 l 413 494 b 394 476 403 494 394 486 l 394 461 b 413 443 394 451 403 443 l 492 443 b 540 393 518 443 540 421 l 540 363 b 492 313 540 335 518 313 l 450 313 b 414 276 429 313 414 296 b 415 268 414 274 414 271 b 526 131 436 185 472 131 b 643 290 575 131 621 208 b 753 376 656 340 701 376 l 757 376 b 864 257 826 376 864 321 b 857 207 864 240 863 224 b 526 -11 825 93 719 -11 b 157 286 326 -11 206 111 b 124 313 153 301 139 313 l 97 313 b 49 363 71 313 49 335 l 49 393 b 97 443 49 421 71 443 l 121 443 b 135 457 128 443 135 450 l 135 481 b 121 494 135 489 128 494 l 97 494 b 49 544 71 494 49 517 l 49 576 b 97 625 49 603 71 625 l 125 625 b 160 651 142 625 156 636 b 526 949 211 826 340 949 b 676 911 585 949 629 936 b 715 903 689 906 701 903 b 743 907 724 903 733 904 b 788 914 757 911 771 914 "},"":{"ha":1560,"x_min":0,"x_max":0,"o":"m 1503 158 b 1551 108 1529 158 1551 136 l 1551 76 b 1503 28 1551 50 1529 28 l 935 28 b 886 76 907 28 886 50 l 886 108 b 935 158 886 136 907 158 m 1218 910 b 1558 557 1406 910 1558 751 b 1218 204 1558 363 1406 204 b 879 557 1031 204 879 363 b 1218 910 879 751 1031 910 m 1221 342 b 1329 557 1281 342 1329 438 b 1221 771 1329 675 1281 771 b 1113 557 1161 771 1113 675 b 1221 342 1113 438 1161 342 m 840 874 b 771 665 840 810 771 783 l 771 292 b 840 68 771 181 840 153 l 840 65 b 775 0 840 29 811 0 l 638 0 b 497 203 544 0 569 92 l 493 211 l 299 490 b 276 501 293 499 285 501 b 250 475 263 501 250 492 l 250 361 b 379 67 250 249 379 154 l 379 65 b 314 0 379 29 350 0 l 115 0 b 50 64 79 0 50 29 l 50 67 b 119 275 50 139 119 163 l 119 639 b 50 874 119 758 50 810 b 115 939 50 910 81 939 l 254 939 b 324 888 293 939 317 917 b 396 729 329 872 350 800 l 593 447 b 614 436 599 440 606 436 b 642 464 628 436 642 447 l 642 665 b 572 874 642 785 572 810 b 638 939 572 910 603 939 l 775 939 b 840 874 811 939 840 910 "},"":{"ha":507,"x_min":0,"x_max":0,"o":"m 235 939 b 265 908 251 939 265 925 l 265 867 b 242 838 265 851 257 838 l 239 838 b 217 868 224 839 222 849 b 207 892 214 876 210 886 b 197 904 203 899 200 904 b 189 890 194 904 192 900 b 186 872 188 886 186 876 l 186 753 b 199 715 186 739 190 726 b 203 704 201 713 203 708 b 186 686 203 694 194 688 l 128 686 b 111 704 118 688 111 694 b 115 715 111 708 113 713 b 128 753 124 726 128 739 l 128 872 b 125 890 128 876 126 886 b 117 904 122 900 119 904 b 107 892 113 904 110 899 b 97 868 104 886 100 876 b 75 838 92 849 90 839 l 72 838 b 49 867 56 838 49 851 l 49 908 b 79 939 49 925 63 939 m 503 910 b 490 872 494 899 490 886 l 490 753 b 503 715 490 739 494 726 b 507 704 506 713 507 708 b 490 686 507 694 499 688 l 432 686 b 415 704 422 688 415 694 b 419 715 415 708 417 713 b 432 753 428 726 432 739 l 432 839 b 426 844 432 842 429 844 b 422 842 425 844 424 843 l 408 822 l 388 792 b 374 785 385 788 379 785 b 360 792 368 785 363 788 l 351 801 l 338 824 b 332 826 336 826 333 826 b 328 821 329 826 328 825 l 328 783 b 364 706 328 753 364 729 l 364 704 b 347 686 364 694 357 686 l 292 686 b 274 704 282 686 274 694 b 293 760 274 724 293 731 l 293 858 b 274 921 293 890 274 903 b 292 939 274 931 282 939 l 328 939 b 347 925 339 939 346 932 b 367 882 349 921 354 901 l 382 860 b 388 857 383 858 385 857 b 392 860 389 857 390 858 l 408 883 b 425 921 422 900 425 921 b 442 939 425 931 432 938 l 490 939 b 507 921 499 938 507 931 b 503 910 507 917 506 913 "},"":{"ha":542,"x_min":0,"x_max":0,"o":"m 492 535 b 542 485 519 535 542 513 l 542 453 b 492 404 542 426 519 404 l 99 404 b 49 453 71 404 49 426 l 49 485 b 99 535 49 513 71 535 "},"":{"ha":313,"x_min":0,"x_max":0,"o":"m 313 447 b 311 444 311 446 311 446 b 310 440 310 443 310 442 b 299 422 307 435 303 429 b 282 403 294 415 289 408 b 257 390 275 396 267 392 b 244 389 253 389 249 389 b 224 393 239 389 231 390 b 183 418 211 397 199 406 l 49 392 l 50 393 l 51 396 b 54 401 51 397 53 399 b 71 425 58 408 64 417 b 99 446 78 433 88 440 b 121 450 106 449 113 450 b 136 449 125 450 131 450 b 183 421 150 446 165 436 m 313 546 b 311 543 311 544 311 544 b 310 539 310 542 310 540 b 299 521 307 533 303 528 b 282 501 294 514 289 507 b 257 489 275 494 267 490 b 244 488 253 488 249 488 b 224 492 239 488 231 489 b 183 517 211 496 199 504 l 49 490 l 50 492 l 51 494 b 54 500 51 496 53 497 b 71 524 58 507 64 515 b 99 544 78 532 88 539 b 121 549 106 547 113 549 b 136 547 125 549 131 549 b 183 519 150 544 165 535 "},"":{"ha":442,"x_min":0,"x_max":0,"o":"m 432 710 b 438 686 436 701 438 693 b 433 665 438 681 436 675 b 411 643 431 657 424 650 l 260 565 l 411 486 b 436 458 424 479 432 471 b 438 444 438 454 438 449 b 432 419 438 436 436 428 l 418 392 b 390 368 411 379 403 372 b 374 365 385 367 379 365 b 351 371 367 365 358 367 l 117 492 l 83 508 b 49 565 60 522 49 542 b 82 619 49 589 60 607 l 117 638 l 351 758 b 376 764 360 763 368 764 b 396 760 381 764 388 763 b 418 738 404 757 411 750 l 432 710 m 99 175 b 64 190 85 175 74 181 b 49 224 54 200 49 211 l 49 256 b 64 292 49 269 54 282 b 99 306 74 301 85 306 l 388 306 b 424 292 401 306 414 301 b 438 256 433 282 438 269 l 438 224 b 424 190 438 211 433 200 b 388 175 414 181 401 175 l 99 175 "},"":{"ha":442,"x_min":0,"x_max":0,"o":"m 72 738 b 101 763 79 750 89 758 b 115 764 106 764 110 764 b 139 758 122 764 131 763 l 374 638 l 408 619 b 442 565 431 607 442 589 b 407 508 442 542 431 522 l 374 492 l 139 371 b 117 365 132 367 124 365 b 96 369 111 365 104 367 b 72 392 86 372 79 379 l 58 419 b 53 442 54 426 53 435 b 57 464 53 447 54 454 b 79 486 60 472 67 479 l 231 565 l 79 643 b 56 672 67 650 60 660 b 53 688 54 678 53 682 b 58 710 53 694 54 703 m 103 175 b 68 190 89 175 78 181 b 53 224 58 200 53 211 l 53 256 b 68 292 53 269 58 282 b 103 306 78 301 89 306 l 392 306 b 428 292 406 306 418 301 b 442 256 438 282 442 269 l 442 224 b 428 190 442 211 438 200 b 392 175 418 181 406 175 "},"":{"ha":936,"x_min":0,"x_max":0,"o":"m 457 689 b 522 622 493 689 522 658 b 454 558 521 586 489 558 l 418 558 b 364 504 388 558 364 535 l 364 247 b 410 106 364 196 379 144 b 425 64 419 94 425 79 b 364 0 425 31 397 1 l 147 0 b 86 64 113 1 86 31 b 100 106 86 79 92 94 b 147 247 132 144 147 196 l 147 526 b 115 558 147 544 132 558 b 50 624 79 558 50 588 b 65 668 50 638 54 653 b 110 689 75 683 92 689 l 118 689 b 146 717 133 689 146 701 b 368 1004 146 829 182 1004 b 549 875 507 1004 549 938 b 489 771 549 821 517 771 b 393 835 426 771 438 835 b 363 767 375 835 363 807 b 364 747 363 760 364 754 b 419 689 367 715 388 689 m 658 0 b 599 64 625 1 599 31 b 613 106 599 79 603 94 b 658 247 644 144 658 196 l 658 374 b 613 517 658 425 644 476 b 599 553 604 526 599 539 l 599 557 b 628 611 599 579 614 599 b 669 638 640 622 654 631 l 783 682 b 815 689 794 686 806 689 b 876 631 850 689 876 663 l 876 247 b 922 106 876 196 890 144 b 936 64 931 94 936 79 b 876 0 936 31 910 1 m 771 722 b 661 831 711 722 661 771 b 771 940 661 892 711 940 b 881 831 832 940 881 892 b 771 722 881 771 832 722 "},"":{"ha":936,"x_min":0,"x_max":0,"o":"m 457 689 b 522 622 493 689 522 658 b 454 558 521 586 489 558 l 418 558 b 364 504 388 558 364 535 l 364 247 b 410 106 364 196 379 144 b 425 64 419 94 425 79 b 364 0 425 31 397 1 l 147 0 b 86 64 113 1 86 31 b 100 106 86 79 92 94 b 147 247 132 144 147 196 l 147 526 b 115 558 147 544 132 558 b 50 624 79 558 50 588 b 65 668 50 638 54 653 b 110 689 75 683 92 689 l 118 689 b 146 717 133 689 146 701 b 368 1004 146 829 182 1004 b 549 875 507 1004 549 938 b 489 771 549 821 517 771 b 393 835 426 771 438 835 b 363 767 375 835 363 807 b 364 747 363 760 364 754 b 419 689 367 715 388 689 m 875 247 b 922 106 875 196 890 144 b 936 64 931 94 936 79 b 875 0 936 31 910 1 l 658 0 b 597 64 625 1 597 31 b 613 106 597 79 603 94 b 658 247 644 144 658 196 l 658 689 b 613 832 658 740 644 792 b 597 872 603 843 597 857 b 628 926 599 896 613 914 b 669 953 640 938 654 946 l 783 997 b 815 1004 794 1001 806 1004 b 875 946 850 1004 875 978 "},"":{"ha":1164,"x_min":0,"x_max":0,"o":"m 1050 939 b 1131 906 1082 939 1108 928 b 1164 826 1153 883 1164 857 l 1164 672 b 1139 593 1164 640 1156 614 b 1072 564 1124 574 1101 564 l 1065 564 b 1007 596 1039 565 1019 576 b 972 675 994 614 982 640 b 822 808 938 764 888 808 l 814 808 b 788 804 806 808 796 807 b 749 776 775 800 763 792 b 726 700 733 761 726 735 l 726 564 b 735 543 726 556 729 549 b 756 535 740 538 747 535 b 789 544 765 535 776 538 b 814 571 801 550 810 558 b 838 619 821 592 828 607 b 878 639 847 632 860 638 b 925 621 896 639 913 633 b 944 574 938 608 944 592 l 944 365 b 925 319 944 347 938 332 b 878 300 913 307 896 300 b 814 368 844 300 824 322 b 790 397 810 383 803 393 b 756 404 778 401 765 404 b 735 396 747 404 740 401 b 726 375 729 390 726 383 l 726 249 b 733 204 726 238 729 222 b 761 153 738 186 747 168 b 818 129 774 138 793 129 l 818 131 b 972 264 892 131 943 175 b 1007 344 982 299 994 326 b 1065 376 1019 363 1039 374 l 1072 376 b 1140 346 1101 376 1124 367 b 1164 268 1156 325 1164 300 l 1164 114 b 1131 33 1164 82 1153 56 b 1050 0 1108 11 1082 0 l 529 0 b 439 -10 500 -7 471 -10 b 221 56 351 -10 278 13 b 92 229 163 99 119 156 b 49 469 63 301 49 382 b 96 711 49 557 64 638 b 229 885 126 783 171 842 b 439 949 288 928 357 949 b 525 939 468 949 497 946 m 488 149 b 510 249 503 181 510 214 l 510 690 b 489 788 510 725 503 757 b 439 808 474 801 457 808 b 342 710 397 808 365 775 b 307 469 318 643 307 563 b 340 231 307 376 318 296 b 439 131 361 164 394 131 b 488 149 457 131 474 136 "},"":{"ha":1165,"x_min":0,"x_max":0,"o":"m 390 129 b 467 193 419 129 446 150 b 499 344 488 235 499 285 b 467 496 499 404 488 454 b 390 558 446 538 419 558 b 314 496 360 558 335 538 b 282 344 293 454 282 404 b 314 193 282 285 293 235 b 390 129 335 150 360 129 m 938 419 b 935 458 938 432 936 446 b 929 486 933 471 931 479 l 926 494 b 908 539 925 511 918 526 b 872 558 899 551 886 558 b 772 435 826 558 793 517 b 771 424 772 431 771 428 b 785 386 771 411 776 399 b 826 367 794 374 808 368 l 881 367 b 919 382 896 367 910 372 b 938 419 929 392 936 404 m 628 96 b 388 -8 561 26 481 -8 b 149 96 294 -8 214 26 b 49 344 82 164 49 247 b 149 594 49 442 82 525 b 388 697 214 663 294 697 b 628 594 481 697 561 663 b 629 593 628 593 628 593 l 631 594 b 871 697 696 663 776 697 b 1069 631 944 697 1011 675 b 1158 494 1118 588 1147 542 b 1165 433 1163 472 1165 451 b 1156 375 1165 411 1163 392 b 1118 338 1149 360 1136 347 b 1056 317 1099 328 1078 321 b 996 308 1032 313 1013 310 l 990 308 b 976 307 985 307 981 307 l 828 307 b 788 286 810 307 797 300 b 779 260 782 278 779 269 b 783 239 779 253 781 246 b 849 171 801 201 822 178 b 882 167 860 168 871 167 b 928 174 893 167 908 169 b 979 201 946 178 964 186 b 1032 236 994 217 1011 229 b 1050 239 1038 239 1044 239 b 1092 221 1064 239 1078 233 b 1118 160 1110 201 1118 182 b 1093 90 1118 143 1110 121 b 954 3 1075 61 1029 32 b 871 -8 928 -4 900 -8 b 631 96 776 -8 696 26 l 628 96 "},"":{"ha":746,"x_min":0,"x_max":0,"o":"m 532 525 b 744 289 532 525 739 451 l 744 274 b 400 -10 744 86 614 -10 b 54 238 135 -10 54 107 b 157 375 54 335 111 375 b 214 333 185 375 208 360 b 394 174 244 178 381 174 l 396 174 b 525 260 492 174 525 218 b 511 307 525 278 519 293 b 222 454 450 404 306 418 b 49 688 129 493 49 578 b 75 800 49 724 57 761 b 383 949 138 921 261 949 b 535 913 442 949 486 936 l 535 911 b 574 903 547 906 560 903 b 601 907 582 903 592 904 b 644 915 614 913 629 915 b 708 882 676 915 696 899 b 729 822 722 865 729 843 l 729 683 b 619 563 729 683 725 563 b 479 722 532 563 479 722 b 383 808 479 722 451 808 b 317 769 358 808 336 794 b 303 722 317 769 303 751 b 532 525 303 675 339 599 m 421 1013 b 400 1001 415 1006 408 1001 l 396 1001 b 375 1013 388 1001 379 1006 b 261 1183 374 1014 261 1183 b 258 1190 260 1186 258 1188 b 264 1203 258 1194 261 1200 l 274 1210 b 282 1213 276 1211 279 1213 b 293 1208 286 1213 290 1211 l 397 1096 l 503 1208 b 513 1213 506 1211 508 1213 b 522 1210 515 1213 519 1211 l 532 1203 b 538 1190 535 1200 538 1194 b 535 1183 538 1188 536 1186 b 421 1013 535 1183 422 1014 "},"":{"ha":589,"x_min":0,"x_max":0,"o":"m 525 343 b 589 201 557 317 589 265 b 588 183 589 196 588 190 b 313 -1 575 72 488 -1 b 49 210 106 -1 49 78 l 49 231 b 125 332 49 231 56 317 b 153 335 133 333 143 335 b 235 271 183 335 219 322 b 319 200 251 224 293 207 b 344 197 328 199 336 197 b 374 201 354 197 364 199 b 407 239 390 207 407 217 l 407 244 b 238 340 401 279 299 314 b 49 529 125 389 49 428 b 286 688 49 615 113 688 l 390 688 b 588 540 522 688 588 639 b 490 443 588 476 556 443 b 378 517 446 443 407 467 b 308 565 365 536 340 565 b 261 542 300 565 271 564 b 258 526 258 536 258 532 b 318 465 258 494 306 475 b 439 399 358 439 401 418 b 525 343 471 382 503 363 m 342 782 b 321 771 336 775 329 771 l 317 771 b 296 782 308 771 300 775 b 182 953 294 783 182 953 b 179 960 181 956 179 957 b 185 972 179 964 182 969 l 194 979 b 203 982 197 981 200 982 b 214 978 207 982 211 981 l 318 865 l 424 978 b 433 982 426 981 429 982 b 443 979 436 982 440 981 l 453 972 b 458 960 456 969 458 964 b 456 953 458 957 457 956 b 342 782 456 953 343 783 "},"":{"ha":843,"x_min":0,"x_max":0,"o":"m 778 939 b 843 874 814 939 843 910 b 824 826 843 856 835 839 b 682 632 824 826 729 771 b 560 279 682 632 604 407 b 556 249 557 269 556 258 b 601 107 556 197 569 146 b 615 65 611 96 615 81 b 556 1 615 32 589 3 l 550 0 l 343 0 l 338 1 b 278 65 304 3 278 32 b 292 107 278 81 283 96 b 338 249 324 146 338 197 b 325 318 338 272 333 296 l 194 642 b 68 829 144 765 101 794 b 50 875 58 840 50 857 l 50 879 b 118 939 53 913 83 939 l 324 939 b 333 938 326 939 331 939 b 389 874 365 933 389 906 b 374 768 389 863 374 818 b 381 711 374 750 375 731 b 454 521 381 710 454 521 b 482 497 460 510 469 497 b 513 533 492 497 503 507 b 549 653 513 533 547 647 b 556 717 553 674 556 696 b 526 825 556 764 544 806 b 504 874 513 836 504 854 b 560 938 504 906 529 933 b 569 939 563 939 567 939 m 529 1011 b 460 1079 490 1011 460 1042 b 529 1149 460 1118 490 1149 b 597 1079 567 1149 597 1118 b 529 1011 597 1042 567 1011 m 367 1011 b 297 1079 328 1011 297 1042 b 367 1149 297 1118 328 1149 b 435 1079 404 1149 435 1118 b 367 1011 435 1042 404 1011 "},"":{"ha":700,"x_min":0,"x_max":0,"o":"m 349 150 b 346 142 346 147 346 144 b 358 129 346 135 350 129 l 383 129 b 494 181 435 129 472 132 b 603 271 525 246 546 271 b 700 161 668 271 700 224 l 700 90 b 599 0 700 29 660 0 l 140 0 b 49 96 89 0 49 44 l 49 100 b 71 163 49 124 56 144 l 399 540 b 401 547 400 542 401 544 b 389 558 401 553 397 558 l 358 558 b 253 508 308 558 274 554 b 146 418 222 442 203 418 b 49 528 79 418 49 465 l 49 588 b 150 689 49 643 93 689 l 603 689 b 700 593 656 689 700 646 b 676 529 700 569 692 547 m 397 764 b 376 753 392 757 385 753 l 372 753 b 351 764 364 753 356 757 b 238 935 350 765 238 935 b 235 942 236 938 235 939 b 240 954 235 946 238 951 l 250 961 b 258 964 253 963 256 964 b 269 960 263 964 267 963 l 374 847 l 479 960 b 489 964 482 963 485 964 b 499 961 492 964 496 963 l 508 954 b 514 942 511 951 514 946 b 511 935 514 939 513 938 b 397 764 511 935 399 765 "},"":{"ha":1338,"x_min":0,"x_max":0,"o":"m 714 939 b 744 908 732 939 744 925 b 742 897 744 906 743 901 l 396 40 b 335 0 386 15 361 0 l 281 0 b 250 29 263 0 250 14 b 253 40 250 32 251 36 l 599 897 b 660 939 608 922 633 939 m 414 726 b 231 503 414 603 349 503 b 163 515 206 503 182 507 b 111 549 142 524 125 535 b 49 726 69 590 49 654 b 231 950 49 850 117 950 b 296 938 254 950 276 946 b 346 903 314 929 332 918 b 414 726 389 863 414 799 m 172 674 b 175 671 172 672 174 671 b 178 672 176 671 178 671 l 258 843 b 261 854 260 847 261 851 b 232 885 261 869 249 883 l 231 885 b 169 726 192 885 169 814 b 172 674 169 713 171 690 m 231 568 b 292 726 271 568 292 639 b 289 790 292 744 290 772 b 288 792 289 792 289 792 l 286 790 l 201 599 b 200 592 200 597 200 594 b 204 581 200 589 201 585 b 231 568 211 572 221 568 m 826 429 b 878 394 846 421 863 410 b 944 218 919 354 944 290 b 763 -6 944 94 879 -6 b 693 7 736 -6 714 -1 b 642 40 674 15 657 26 b 581 218 600 81 581 146 b 763 442 581 342 649 442 b 826 429 786 442 807 438 m 704 165 b 707 163 704 164 706 163 b 708 164 708 163 708 163 l 789 335 b 792 347 790 339 792 343 b 764 376 792 361 781 375 l 763 376 b 701 218 724 376 701 306 b 704 165 701 204 703 181 m 763 60 b 824 218 801 60 824 131 b 821 282 824 236 822 264 l 819 283 b 818 282 818 283 818 283 l 733 90 b 732 82 732 88 732 85 b 736 72 732 78 733 75 b 763 60 743 64 753 60 m 1219 429 b 1271 394 1239 421 1256 410 b 1338 218 1313 354 1338 290 b 1156 -6 1338 94 1272 -6 b 1086 7 1129 -6 1107 -1 b 1035 40 1067 15 1050 26 b 974 218 993 81 974 146 b 1156 442 974 342 1042 442 b 1219 429 1179 442 1200 438 m 1097 165 b 1100 163 1097 164 1099 163 b 1101 164 1101 163 1101 163 l 1182 335 b 1185 347 1183 339 1185 343 b 1157 376 1185 361 1174 375 l 1156 376 b 1094 218 1117 376 1094 306 b 1097 165 1094 204 1096 181 m 1156 60 b 1217 218 1194 60 1217 131 b 1214 282 1217 236 1215 264 l 1213 283 b 1211 282 1211 283 1211 283 l 1126 90 b 1125 82 1125 88 1125 85 b 1129 72 1125 78 1126 75 b 1156 60 1136 64 1146 60 "},"":{"ha":1067,"x_min":0,"x_max":0,"o":"m 910 493 b 1032 403 968 475 1007 442 b 1067 268 1057 363 1067 315 b 800 0 1067 121 947 0 l 367 0 l 361 1 b 301 65 328 3 301 32 b 315 107 301 81 306 96 b 361 249 347 146 361 197 l 361 536 b 436 713 361 604 364 663 b 508 735 436 713 472 735 b 574 688 533 735 560 724 b 581 639 579 671 581 654 l 581 611 b 654 535 581 571 614 536 l 660 535 b 789 672 735 535 789 596 b 774 754 789 699 783 733 b 611 858 740 829 678 858 b 479 822 567 858 519 846 b 367 708 426 792 383 738 b 247 572 332 644 317 572 b 192 583 232 572 214 575 b 67 672 139 603 93 635 b 49 729 50 697 49 710 l 49 738 b 572 1060 49 836 269 1060 b 1039 719 999 1060 1039 790 l 1039 715 b 910 493 1039 617 981 535 m 697 131 b 815 268 774 131 815 192 b 686 404 815 343 763 404 b 579 268 626 404 579 342 l 579 264 b 697 131 579 179 633 131 "},"":{"ha":1153,"x_min":0,"x_max":0,"o":"m 942 492 b 1089 401 1000 474 1063 440 b 1153 183 1129 344 1153 265 b 938 -162 1153 56 1093 -82 b 608 -232 844 -211 728 -232 b 147 -117 440 -232 267 -189 b 49 17 78 -74 53 -57 l 49 21 b 110 160 49 68 89 138 b 190 203 138 192 165 203 b 325 114 253 203 306 136 b 629 -6 392 42 506 -6 b 703 0 653 -6 678 -4 b 904 193 886 29 904 193 b 906 224 906 203 906 214 b 743 406 906 329 839 406 b 718 404 735 406 726 406 b 611 267 660 396 611 342 l 611 131 b 543 63 611 92 579 63 b 515 69 535 63 525 65 l 454 97 b 393 190 417 114 393 150 l 393 690 b 347 833 393 742 379 793 b 333 874 339 844 333 858 b 393 938 333 907 360 936 l 399 939 l 778 939 b 967 860 851 939 918 908 b 1046 671 1015 811 1046 744 b 942 492 1046 603 1013 535 m 692 535 b 811 671 767 535 811 596 b 692 808 811 747 767 808 b 618 753 657 808 626 785 b 611 678 614 732 611 699 l 611 671 b 635 569 611 626 619 592 b 692 535 649 546 669 535 "},"":{"ha":975,"x_min":0,"x_max":0,"o":"m 764 492 b 911 401 822 474 885 440 b 975 183 951 344 975 265 b 760 -162 975 56 915 -82 b 433 -232 667 -211 551 -232 l 432 -232 b 49 83 417 -232 49 -190 b 50 104 49 90 50 97 l 50 106 b 68 186 50 114 51 149 b 204 292 88 226 126 271 b 215 294 208 293 213 293 b 240 297 224 296 232 297 l 256 297 b 425 188 333 297 396 249 l 433 167 b 442 117 439 150 442 133 b 424 49 442 93 436 69 b 389 -1 411 26 400 11 b 453 -6 410 -4 431 -6 b 525 0 476 -6 501 -4 b 726 193 708 29 726 193 b 728 224 728 203 728 214 b 565 406 728 329 661 406 b 540 404 557 406 549 406 b 433 267 482 396 433 342 b 421 254 433 258 426 254 b 410 260 417 254 413 256 b 242 344 363 328 293 344 l 229 344 b 215 358 222 344 215 350 l 215 690 b 169 833 215 742 201 793 b 156 874 161 844 156 858 b 215 938 156 907 182 936 l 221 939 l 600 939 b 789 860 674 939 740 908 b 867 671 838 811 867 744 b 764 492 867 603 835 535 m 514 535 b 633 671 589 535 633 596 b 514 808 633 747 589 808 b 440 753 479 808 449 785 b 433 678 436 732 433 699 l 433 671 b 457 569 433 626 442 592 b 514 535 471 546 492 535 "},"":{"ha":1128,"x_min":0,"x_max":0,"o":"m 971 492 b 1128 267 1086 456 1128 361 b 860 0 1128 119 1008 0 l 422 0 b 361 65 389 3 361 31 b 376 106 361 81 367 94 b 422 249 407 146 422 197 l 422 690 b 404 782 422 738 414 765 b 367 803 396 796 382 803 b 336 789 356 803 344 799 b 328 771 332 785 329 778 l 328 768 b 350 722 328 747 350 722 l 365 703 b 390 621 379 685 390 658 b 389 596 390 614 390 606 b 242 482 375 511 308 482 b 196 486 226 482 211 483 b 49 693 131 497 49 575 b 58 768 49 717 51 742 b 371 938 101 929 324 938 l 381 938 l 807 939 b 1074 671 954 939 1074 818 b 971 492 1074 603 1042 535 m 639 671 b 719 535 639 581 675 535 b 839 671 796 535 839 596 b 719 808 839 747 796 808 b 647 753 686 808 656 785 b 639 678 642 732 639 699 m 758 131 b 876 267 835 131 876 192 b 747 404 876 343 822 404 b 639 267 688 404 639 342 l 639 263 b 758 131 639 179 694 131 "},"":{"ha":761,"x_min":0,"x_max":0,"o":"m 989 -51 b 1076 -135 1042 -56 1076 -79 b 1060 -214 1076 -156 1071 -182 b 954 -319 1038 -274 1015 -299 b 851 -335 921 -332 883 -335 b 781 -329 811 -335 781 -329 b 356 368 426 -249 388 240 b 344 381 353 375 349 381 b 326 293 336 381 326 358 l 326 286 b 356 106 326 240 326 142 b 369 65 364 94 369 81 b 310 0 369 31 343 3 l 110 0 b 49 65 75 3 49 31 b 63 106 49 81 54 94 b 110 249 94 146 110 197 l 110 690 b 63 833 110 742 94 793 b 49 874 54 844 49 858 b 110 938 49 908 75 936 l 110 939 l 493 939 b 682 860 568 939 635 908 b 761 671 731 813 761 744 b 546 410 761 549 685 431 b 525 381 531 407 525 394 b 526 367 525 375 525 371 b 688 -3 554 233 590 94 b 840 -74 743 -58 794 -74 b 983 -51 896 -74 943 -51 m 407 535 b 526 671 482 535 526 596 b 407 808 526 747 482 808 b 335 753 372 808 343 786 b 326 682 329 732 326 703 l 326 671 b 350 572 326 631 336 596 b 407 535 364 549 385 535 "},"":{"ha":1089,"x_min":0,"x_max":0,"o":"m 1317 -51 b 1404 -135 1369 -56 1404 -79 b 1388 -214 1404 -156 1399 -182 b 1282 -319 1365 -274 1343 -299 b 1179 -335 1249 -332 1211 -335 b 1108 -329 1139 -335 1108 -329 b 683 368 754 -249 715 240 b 672 381 681 375 676 381 b 654 293 664 381 654 358 l 654 286 b 683 106 654 240 654 142 b 697 65 692 94 697 81 b 636 0 697 31 671 3 l 438 0 b 376 65 403 3 376 31 b 390 106 376 81 382 94 b 438 249 422 146 438 197 l 438 690 b 425 765 438 715 433 742 b 374 804 418 789 397 804 b 357 801 368 804 363 803 l 356 801 b 328 771 343 796 329 786 l 328 767 b 349 722 328 747 349 722 l 364 703 b 390 624 378 685 390 658 b 388 596 390 615 389 606 b 239 482 375 511 307 482 b 194 486 224 482 208 483 b 49 693 129 497 49 575 b 58 768 49 717 51 742 b 372 939 101 931 328 939 l 821 939 b 1010 860 894 939 963 908 b 1089 671 1058 813 1089 744 b 882 411 1089 551 1015 436 b 851 374 865 407 851 392 b 853 367 851 372 853 369 b 1015 -3 882 235 918 94 b 1168 -74 1071 -58 1122 -74 b 1311 -51 1224 -74 1271 -51 m 735 535 b 854 671 810 535 854 596 b 735 808 854 747 810 808 b 661 753 700 808 669 786 b 654 682 657 732 654 703 l 654 671 b 678 572 654 631 663 596 b 735 535 692 549 713 535 "},"":{"ha":761,"x_min":0,"x_max":0,"o":"m 704 69 b 763 -26 740 51 763 14 l 763 -140 b 665 -236 763 -201 715 -236 b 581 -200 636 -236 604 -225 b 354 368 408 -25 379 269 b 344 381 351 375 349 381 b 326 293 336 381 326 358 l 326 286 b 356 106 326 240 326 142 b 369 65 364 94 369 81 b 308 0 369 31 342 3 l 108 0 b 49 65 75 3 49 31 b 63 106 49 81 53 94 b 108 249 94 146 108 197 l 108 690 b 63 833 108 742 94 793 b 49 874 53 844 49 858 b 108 938 49 908 75 936 l 108 939 l 493 939 b 682 860 567 939 633 908 b 760 671 731 813 760 744 b 546 410 760 549 683 431 b 524 379 529 407 524 394 b 525 367 524 375 524 371 b 704 69 565 168 647 97 m 406 535 b 525 671 482 535 525 596 b 406 808 525 747 482 808 b 333 753 372 808 342 786 b 326 682 328 732 326 703 l 326 671 b 349 572 326 631 335 596 b 406 535 364 549 383 535 "},"":{"ha":811,"x_min":0,"x_max":0,"o":"m 733 208 b 803 135 761 165 788 193 b 804 119 804 131 804 125 b 656 0 804 72 753 4 l 647 0 b 482 251 528 0 482 125 l 482 278 b 472 344 482 306 479 328 b 449 383 465 361 457 374 b 403 403 436 396 419 403 b 369 393 392 403 381 399 b 326 313 342 378 326 347 l 326 231 b 372 106 326 185 344 142 b 388 65 382 94 388 81 b 326 0 388 31 360 3 l 110 0 b 49 65 75 3 49 31 b 63 106 49 81 54 94 b 110 249 94 146 110 197 l 110 690 b 63 832 110 742 94 793 b 49 874 54 843 49 858 b 110 938 49 907 75 936 l 110 939 l 493 939 b 761 671 642 939 761 818 b 615 433 761 500 615 433 b 626 428 619 432 624 429 b 733 208 743 369 711 244 m 407 535 b 526 671 482 535 526 596 b 407 808 526 747 482 808 b 333 753 372 808 343 785 b 326 682 329 732 326 703 l 326 671 b 407 535 326 589 363 535 "},"":{"ha":831,"x_min":0,"x_max":0,"o":"m 1143 -40 b 1219 -175 1208 -44 1219 -114 l 1219 -201 b 1096 -328 1214 -308 1096 -328 b 910 -354 1028 -346 967 -354 b 528 -189 728 -354 600 -275 b 439 -53 494 -149 440 -56 b 383 -11 426 -31 410 -14 l 378 -11 b 313 -47 351 -11 328 -29 b 276 -64 303 -58 289 -64 b 253 -58 268 -64 260 -62 l 251 -58 b 226 -15 236 -49 226 -32 b 233 10 226 -7 229 1 b 251 35 239 18 244 26 b 49 469 115 113 49 278 b 439 949 49 733 194 949 b 831 469 674 949 831 733 b 624 39 831 294 760 129 b 604 3 611 31 604 17 b 613 -21 604 -6 607 -14 b 756 -124 653 -74 711 -107 b 847 -139 785 -135 817 -139 b 1019 -99 913 -139 976 -118 b 1138 -40 1072 -75 1086 -40 m 439 131 b 571 469 524 131 571 282 b 439 808 571 656 521 808 b 308 469 356 808 308 656 b 439 131 308 282 350 131 "},"":{"ha":829,"x_min":0,"x_max":0,"o":"m 1143 -40 b 1219 -175 1208 -44 1219 -114 l 1219 -201 b 1096 -328 1214 -308 1096 -328 b 908 -354 1028 -346 965 -354 b 528 -189 728 -354 600 -275 b 439 -53 493 -149 440 -56 b 383 -11 425 -29 410 -14 l 372 -11 b 233 8 319 -10 272 -3 b 149 60 193 21 163 38 b 135 96 139 74 135 85 b 168 139 135 117 153 132 b 186 143 174 142 181 143 b 221 135 204 143 221 135 b 335 104 260 115 300 104 b 351 106 340 104 346 106 b 571 469 560 128 571 300 b 439 808 571 657 521 808 b 308 497 360 808 313 671 b 426 390 310 474 324 390 l 435 390 b 499 304 478 390 499 351 b 396 147 499 244 465 171 b 344 139 381 143 364 139 b 282 150 326 139 306 143 b 49 504 53 226 51 450 b 439 949 61 753 204 949 b 829 469 674 949 829 735 b 624 39 829 294 760 129 b 604 4 611 31 604 18 b 613 -21 604 -6 607 -14 b 756 -124 651 -74 711 -107 b 846 -139 785 -135 815 -139 b 1019 -99 911 -139 976 -118 b 1138 -40 1072 -75 1086 -40 "},"":{"ha":779,"x_min":0,"x_max":0,"o":"m 718 938 b 779 874 753 936 779 907 b 765 833 779 858 774 844 b 718 690 733 793 718 742 l 718 92 b 408 -197 718 -108 569 -197 l 400 -197 b 203 -124 322 -197 253 -169 b 124 54 154 -79 124 -17 b 125 89 124 65 125 81 b 296 263 131 181 208 263 b 332 257 307 263 319 260 b 414 176 375 244 406 214 b 417 149 417 167 417 157 b 365 65 417 101 388 76 b 349 47 358 61 353 54 b 342 24 343 40 342 32 b 408 -43 342 -12 368 -43 b 435 -39 417 -43 425 -42 b 501 57 483 -25 501 33 l 501 690 b 490 758 501 708 499 743 b 392 808 464 807 399 808 b 356 801 379 808 367 806 b 328 771 343 796 331 786 l 328 768 b 350 722 328 747 350 722 l 365 703 b 390 625 379 685 390 660 b 388 596 390 615 389 606 b 242 482 375 511 308 482 b 196 486 226 482 211 483 b 49 693 129 497 49 574 b 58 768 49 717 51 742 b 354 938 101 929 308 938 l 363 938 l 714 939 "},"":{"ha":704,"x_min":0,"x_max":0,"o":"m 643 938 b 704 874 676 936 704 907 b 689 832 704 858 699 844 b 643 690 657 793 643 742 l 643 92 b 333 -197 643 -108 494 -197 l 325 -197 b 128 -124 247 -197 178 -169 b 49 54 79 -79 49 -17 b 50 89 49 65 49 81 b 219 263 56 181 133 263 b 256 257 231 263 243 260 b 339 176 300 244 331 214 b 342 149 342 167 342 157 b 290 65 342 101 313 76 b 272 47 283 61 276 54 b 267 24 268 40 267 32 b 333 -43 267 -12 293 -43 b 360 -39 342 -43 350 -42 b 426 57 408 -25 426 33 l 426 690 b 415 758 426 708 421 743 b 363 808 400 793 382 808 b 313 765 343 808 325 792 b 278 675 303 744 290 708 b 194 563 257 606 251 568 l 185 563 b 97 671 128 563 97 611 l 97 825 b 210 939 97 888 147 939 l 639 939 "},"":{"ha":804,"x_min":0,"x_max":0,"o":"m 1351 -100 b 1444 -203 1408 -110 1444 -149 b 1392 -329 1444 -239 1429 -283 b 1276 -375 1358 -371 1324 -375 l 1224 -375 b 356 367 476 -375 361 343 b 344 379 353 375 349 379 b 326 293 336 379 326 357 l 326 231 b 372 106 326 185 344 142 b 386 65 382 94 386 81 b 326 0 386 31 360 3 l 110 0 b 49 65 75 3 49 31 b 63 106 49 81 54 94 b 110 249 94 146 110 197 l 110 690 b 63 833 110 742 94 793 b 49 874 54 844 49 858 b 110 938 49 907 75 936 l 114 939 l 322 939 l 326 938 b 386 874 360 936 386 907 b 372 833 386 858 382 844 b 326 690 340 793 326 742 l 326 671 b 350 572 326 631 335 596 b 407 535 364 547 385 538 b 425 533 413 533 419 533 b 524 635 482 533 517 582 b 526 658 525 643 526 650 l 526 690 b 479 833 526 742 511 793 b 465 874 471 844 465 858 b 526 938 465 907 492 936 l 531 939 l 739 939 l 743 938 b 804 874 776 936 804 907 b 789 833 804 858 799 844 b 743 690 758 793 743 742 l 743 671 b 689 483 743 603 738 540 b 532 410 653 442 592 421 b 515 389 522 408 515 400 b 517 382 515 388 515 385 b 760 10 544 310 633 101 b 1163 -96 889 -85 1038 -96 b 1261 -94 1197 -96 1231 -94 b 1351 -100 1296 -94 1326 -96 "},"":{"ha":804,"x_min":0,"x_max":0,"o":"m 949 -56 b 1032 -165 999 -69 1032 -114 l 1032 -221 b 921 -335 1032 -285 981 -335 b 890 -331 911 -335 900 -333 b 356 367 492 -218 360 349 b 346 379 353 375 350 379 b 326 293 336 379 326 357 l 326 231 b 374 106 326 185 344 142 b 388 65 382 94 388 81 b 326 0 388 31 361 3 l 110 0 b 49 65 76 3 49 31 b 64 106 49 81 54 94 b 110 249 94 146 110 197 l 110 690 b 64 833 110 742 94 793 b 49 874 54 844 49 858 b 110 938 49 907 76 936 l 114 939 l 324 939 l 326 938 b 388 874 361 936 388 907 b 374 833 388 858 382 844 b 326 690 342 793 326 742 l 326 671 b 350 572 326 631 336 596 b 407 535 365 547 385 538 b 425 533 413 533 419 533 b 525 635 482 533 518 582 b 526 658 526 643 526 650 l 526 690 b 481 833 526 742 513 793 b 467 874 471 844 467 858 b 526 938 467 907 493 936 l 532 939 l 739 939 l 744 938 b 804 874 778 936 804 907 b 790 833 804 858 799 844 b 744 690 758 793 744 742 l 744 671 b 689 483 744 603 738 540 b 533 410 654 442 592 421 b 517 390 524 408 517 400 b 518 382 517 388 517 385 b 949 -56 543 317 667 25 "},"":{"ha":1157,"x_min":0,"x_max":0,"o":"m 1704 -100 b 1797 -203 1761 -110 1797 -149 b 1743 -329 1797 -239 1781 -282 b 1629 -375 1711 -371 1676 -375 l 1576 -375 b 707 367 829 -375 714 343 b 697 379 704 375 701 379 b 679 293 689 379 679 357 l 679 231 b 725 106 679 185 697 142 b 739 65 735 94 739 81 b 679 0 739 31 713 3 l 461 0 b 401 65 428 3 401 31 b 415 106 401 81 406 94 b 461 249 447 146 461 197 l 461 690 b 456 744 461 708 460 726 b 381 806 447 781 415 806 b 356 801 372 806 364 804 l 354 801 b 328 771 342 796 329 786 l 328 767 b 349 722 328 747 349 722 l 364 703 b 389 621 378 685 389 658 b 388 596 389 614 389 606 b 240 482 374 511 307 482 b 194 486 225 482 210 483 b 49 693 129 497 49 574 b 58 768 49 717 51 742 b 372 939 101 931 328 939 l 675 939 l 679 938 b 739 874 713 936 739 907 b 725 833 739 858 735 844 b 679 690 693 793 679 742 l 679 671 b 703 572 679 631 688 596 b 760 535 717 547 738 538 b 778 533 765 533 772 533 b 876 635 835 533 869 582 b 878 658 878 643 878 650 l 878 690 b 832 833 878 742 864 793 b 818 874 824 844 818 858 b 878 938 818 907 844 936 l 883 939 l 1092 939 l 1096 938 b 1156 874 1129 936 1156 907 b 1142 833 1156 858 1151 844 b 1096 690 1110 793 1096 742 l 1096 671 b 1042 483 1096 603 1090 540 b 893 411 1007 443 950 422 b 869 383 879 408 869 397 b 872 374 869 381 871 376 b 1113 10 903 296 990 99 b 1515 -96 1242 -85 1390 -96 b 1614 -94 1550 -96 1583 -94 b 1704 -100 1649 -94 1679 -96 "},"":{"ha":819,"x_min":0,"x_max":0,"o":"m 756 297 b 800 268 776 293 790 283 b 817 219 808 253 814 236 b 819 188 818 203 819 192 l 819 160 b 804 81 819 128 814 101 b 767 32 794 60 782 43 b 721 7 751 19 736 11 b 682 -3 706 1 692 -1 b 672 -4 678 -3 675 -3 l 667 -4 b 519 54 610 -4 561 15 b 415 197 476 93 442 140 b 354 367 388 254 367 310 b 344 379 351 375 349 379 b 332 361 340 379 336 374 b 326 293 328 349 326 325 l 326 231 b 372 106 326 185 342 143 b 386 65 382 94 386 81 b 369 21 386 47 381 33 b 326 0 357 8 343 1 l 108 0 b 67 21 92 1 78 8 b 49 65 54 33 49 47 b 63 106 49 81 53 94 b 108 249 93 150 108 197 l 108 690 b 63 832 108 742 93 789 b 49 874 53 844 49 858 b 67 918 49 890 54 906 b 108 938 78 931 92 936 l 113 939 l 322 939 l 326 938 b 369 918 343 936 357 931 b 386 874 381 906 386 890 b 372 832 386 858 382 844 b 326 690 342 789 326 742 l 326 671 b 350 572 326 631 335 599 b 407 535 365 549 383 536 b 425 533 414 533 419 533 b 493 564 454 533 476 543 b 524 635 510 583 519 607 b 525 647 525 639 525 643 b 526 658 525 651 525 654 l 526 690 b 479 832 526 742 511 789 b 465 874 469 844 465 858 b 483 918 465 890 471 906 b 526 938 494 931 508 936 l 531 939 l 739 939 l 743 938 b 788 918 761 936 775 931 b 804 874 799 906 804 890 b 789 832 804 858 799 844 b 743 690 758 789 743 742 l 743 671 b 733 574 743 636 740 604 b 689 483 726 542 713 513 b 607 431 668 460 640 443 b 507 407 574 418 540 411 b 506 404 506 407 506 406 b 526 360 506 397 513 382 b 578 296 539 338 557 317 b 647 258 599 275 622 263 l 654 258 b 682 265 665 258 675 261 b 701 278 689 269 694 274 b 721 293 707 283 714 289 b 744 299 728 297 735 299 b 756 297 749 299 751 299 "},"":{"ha":844,"x_min":0,"x_max":0,"o":"m 783 469 b 844 404 818 467 844 439 b 831 364 844 389 839 375 b 783 221 799 324 783 272 l 783 -103 b 614 -418 783 -147 775 -374 b 539 -428 588 -425 563 -428 b 331 -281 421 -428 343 -346 b 326 -237 328 -267 326 -253 b 442 -87 326 -171 356 -101 b 467 -86 451 -86 460 -86 b 549 -111 504 -86 531 -97 l 568 -126 b 613 -149 568 -126 592 -149 l 615 -149 b 646 -121 631 -146 640 -133 b 653 -85 651 -110 653 -97 l 653 -83 b 561 8 653 -32 611 8 b 542 6 556 8 549 7 b 439 -11 506 -3 467 -11 b 49 469 175 -11 49 204 b 439 949 49 735 194 949 b 590 911 497 949 542 936 b 629 903 603 906 615 903 b 657 907 638 903 647 904 b 700 914 669 911 685 914 b 764 882 732 914 751 899 b 783 821 778 865 783 843 l 783 683 b 675 563 783 683 781 563 b 522 722 588 563 524 718 b 518 729 521 725 519 726 b 439 808 497 778 475 808 b 308 469 356 808 308 657 b 439 131 308 282 350 131 b 542 231 497 131 526 185 b 550 278 547 246 550 261 b 521 363 550 308 540 338 b 519 364 521 363 521 364 b 506 404 511 375 506 389 b 567 469 506 439 533 467 "},"":{"ha":844,"x_min":0,"x_max":0,"o":"m 754 415 b 844 194 796 378 844 292 b 693 -67 844 108 806 13 b 457 -140 614 -122 531 -140 b 235 -89 331 -140 235 -89 b 49 193 99 0 49 103 b 186 406 49 296 114 381 b 249 417 208 413 229 417 b 417 261 349 417 413 329 l 417 257 b 393 190 417 231 406 208 b 382 175 390 185 386 181 b 368 133 372 164 368 149 b 415 68 368 103 386 69 l 429 68 b 583 188 519 68 575 119 b 585 207 585 194 585 200 b 543 325 585 249 571 297 b 278 460 476 389 343 432 b 106 693 186 499 106 583 b 132 806 106 728 114 765 b 440 956 194 928 318 956 b 592 918 499 956 543 942 b 629 908 604 911 617 908 b 658 914 639 908 649 910 b 701 921 671 918 686 921 b 765 889 733 921 753 906 b 785 828 779 871 785 849 l 785 689 b 675 569 785 689 782 569 b 536 728 589 569 536 728 b 440 814 536 728 508 814 b 374 775 415 814 393 800 b 358 726 374 775 358 757 b 589 531 358 679 396 604 b 754 415 589 531 678 492 "},"":{"ha":1297,"x_min":0,"x_max":0,"o":"m 1756 1135 b 1818 1032 1786 1108 1807 1079 b 1825 971 1822 1013 1825 992 b 1686 783 1825 883 1782 796 b 1654 781 1675 782 1664 781 b 1508 889 1558 781 1522 843 b 1438 943 1499 921 1468 943 b 1408 936 1428 943 1418 942 b 1115 351 1208 829 1128 406 l 1107 317 b 1097 219 1100 285 1097 251 b 1110 85 1097 147 1110 85 b 1113 64 1111 79 1113 72 b 1111 50 1113 60 1113 54 b 1044 0 1103 21 1075 0 l 815 0 b 740 68 769 0 750 29 b 669 385 726 161 669 385 b 615 65 667 374 632 167 b 560 0 610 29 596 0 l 294 0 b 229 65 258 0 229 29 b 231 78 229 69 231 74 b 233 88 232 82 232 85 b 253 200 238 104 253 146 b 233 310 253 232 243 269 l 171 583 b 68 826 132 753 78 815 b 67 828 67 826 67 828 b 49 872 56 840 49 856 l 49 878 b 115 939 51 913 81 939 l 319 939 b 386 876 354 939 385 911 l 386 872 b 374 833 386 858 381 844 b 354 786 361 818 354 801 b 461 288 354 783 461 288 b 481 274 464 278 472 274 b 499 288 489 274 497 278 b 583 658 499 288 576 625 b 586 685 585 667 586 676 b 582 719 586 696 585 708 b 521 826 554 789 528 819 l 519 828 b 501 872 508 840 501 856 l 501 878 b 517 914 503 892 508 904 l 517 915 b 519 918 518 915 519 917 b 567 939 532 931 549 939 l 817 939 b 883 876 851 939 882 911 l 883 872 b 871 833 883 858 878 844 l 869 833 b 825 769 858 818 829 783 b 819 724 821 757 819 742 b 915 288 819 583 915 288 b 929 274 918 278 924 274 b 942 288 935 274 940 278 b 1042 810 942 288 956 538 l 1042 811 b 1528 1204 1147 1113 1357 1204 b 1756 1135 1625 1204 1711 1174 "},"":{"ha":842,"x_min":0,"x_max":0,"o":"m 1292 1135 b 1356 1032 1322 1108 1343 1079 b 1363 971 1360 1013 1363 992 b 1222 783 1363 883 1319 796 b 1190 781 1211 782 1200 781 b 1046 889 1096 781 1058 843 b 975 943 1036 921 1006 943 b 946 936 965 943 956 942 b 665 317 736 821 665 317 b 650 181 653 268 650 219 b 657 85 650 124 657 85 b 660 65 658 79 660 72 b 594 0 660 29 631 0 l 296 0 b 231 65 260 0 231 29 b 232 78 231 69 231 74 b 235 88 233 82 233 85 b 254 200 239 104 254 146 b 235 310 254 232 244 269 l 172 583 b 69 826 133 753 79 815 b 67 828 68 826 68 828 b 49 874 56 840 49 856 b 114 939 49 910 78 939 l 322 939 b 388 874 358 939 388 910 b 375 833 388 858 383 844 b 356 786 363 818 356 801 b 463 288 356 783 463 288 b 481 274 465 278 472 274 b 500 288 489 274 497 278 b 600 814 500 288 538 672 b 1064 1204 692 1113 896 1204 b 1292 1135 1161 1204 1246 1174 "},"":{"ha":701,"x_min":0,"x_max":0,"o":"m 1000 1019 b 900 846 1000 957 983 886 b 738 814 850 821 797 817 b 646 736 693 813 654 781 b 642 690 643 722 642 708 l 642 249 b 688 106 642 197 656 146 b 701 65 696 94 701 81 b 642 0 701 31 675 3 l 424 0 b 364 65 390 3 364 31 b 378 106 364 81 369 94 b 424 249 410 146 424 197 l 424 690 b 375 810 424 708 419 779 b 340 818 365 815 353 818 b 307 813 329 818 318 817 b 283 779 292 807 283 793 b 310 746 283 765 293 750 b 376 699 335 739 363 726 b 388 651 383 686 388 669 b 215 533 388 599 350 533 b 49 739 215 533 49 539 b 214 928 49 844 133 908 b 319 939 249 936 285 939 l 661 939 b 722 944 675 939 699 940 b 749 975 739 947 749 961 b 735 1000 749 985 743 994 b 707 1031 725 1008 715 1018 b 693 1086 699 1044 693 1065 b 824 1215 693 1144 729 1215 l 836 1215 b 1000 1035 944 1208 996 1131 "},"":{"ha":874,"x_min":0,"x_max":0,"o":"m 789 375 b 876 267 846 375 876 328 l 876 93 b 782 0 876 42 835 0 l 324 0 b 225 99 265 0 225 47 b 238 149 225 115 229 132 l 590 758 b 599 782 594 765 599 775 b 581 797 599 790 594 797 l 578 797 b 539 796 578 797 563 796 b 404 818 506 796 454 799 b 396 819 401 819 399 819 b 383 810 389 819 383 815 b 393 799 383 806 386 801 b 450 743 418 786 438 767 b 463 689 458 726 463 708 b 404 579 463 651 446 613 b 261 531 363 546 313 531 b 49 751 154 531 49 606 b 300 999 49 917 174 999 b 526 951 403 997 476 961 b 693 938 588 940 650 938 b 749 939 726 938 749 939 l 781 939 b 876 844 836 939 876 894 b 863 796 876 828 872 811 l 500 167 b 496 154 497 163 496 158 b 521 131 496 142 507 131 l 532 131 b 685 264 599 131 656 176 b 779 375 707 333 722 371 "},"":{"ha":465,"x_min":0,"x_max":0,"o":"m 990 953 b 1042 864 1025 929 1042 897 b 1013 785 1042 838 1032 810 b 908 751 993 758 950 751 b 850 756 888 751 867 753 b 786 760 829 758 807 760 b 661 743 744 760 701 754 b 349 483 450 682 358 503 b 326 360 333 443 326 408 l 326 247 b 372 106 326 196 342 144 b 388 65 382 94 388 81 b 326 0 388 31 360 3 l 110 0 b 49 65 75 3 49 31 b 63 106 49 81 54 94 b 110 247 94 144 110 196 l 110 374 b 63 517 110 425 94 476 b 49 557 54 528 49 542 b 78 611 50 581 64 599 b 121 638 90 622 106 631 l 233 682 b 265 689 244 686 256 689 b 326 631 301 689 326 663 l 326 629 b 331 622 326 626 326 624 b 344 633 333 622 338 625 b 594 921 406 739 474 853 b 853 979 664 961 767 979 b 990 953 913 979 965 969 "},"":{"ha":815,"x_min":0,"x_max":0,"o":"m 838 -54 b 871 -47 849 -49 860 -47 b 944 -118 911 -47 944 -82 l 944 -124 b 885 -243 942 -162 936 -199 b 754 -281 847 -275 788 -281 b 732 -279 740 -281 732 -279 b 531 58 560 -262 531 -81 b 539 210 531 128 538 186 b 544 350 544 276 544 350 b 438 563 542 457 494 563 b 328 342 378 563 328 450 l 328 247 b 374 106 328 196 342 144 b 388 65 383 94 388 81 b 328 0 388 31 361 3 l 110 0 b 50 65 76 3 50 31 b 64 106 50 81 56 94 b 110 247 96 144 110 196 l 110 690 b 64 832 110 740 96 792 b 50 868 57 842 50 854 l 50 872 b 79 926 50 896 65 914 b 121 953 92 938 106 947 l 235 997 b 267 1004 246 1001 257 1004 b 328 946 303 1004 328 978 l 328 700 b 364 663 328 679 344 663 b 385 669 371 663 378 665 b 499 697 414 688 464 697 b 761 340 678 697 761 533 b 760 254 761 340 761 288 b 772 22 760 254 761 88 b 822 -58 781 -28 799 -58 b 838 -54 826 -58 832 -57 "},"":{"ha":1222,"x_min":0,"x_max":0,"o":"m 1269 -54 b 1303 -47 1281 -49 1292 -47 b 1378 -119 1344 -47 1378 -83 l 1378 -124 b 1318 -243 1375 -162 1369 -197 b 1188 -281 1281 -275 1219 -281 b 1165 -279 1174 -281 1165 -279 b 963 57 993 -262 963 -83 b 964 108 963 75 963 92 b 976 331 965 146 974 281 b 978 354 978 339 978 346 b 976 378 978 361 978 369 b 871 564 967 474 924 564 b 768 417 825 564 785 497 b 761 342 764 392 761 367 b 758 239 761 342 760 260 l 758 231 b 815 110 758 171 815 163 b 667 -11 815 78 788 -11 b 526 151 547 -11 526 83 b 532 217 526 183 531 208 b 543 350 542 279 543 350 b 436 564 540 457 494 564 b 351 476 403 564 372 528 b 326 342 336 438 326 389 l 326 247 b 374 106 326 197 342 146 b 388 65 382 94 388 81 b 326 0 388 31 360 3 l 110 0 b 49 65 75 3 49 31 b 63 106 49 81 54 94 b 110 247 94 146 110 197 l 110 375 b 63 517 110 426 94 476 b 49 557 54 528 49 542 b 78 613 50 581 64 599 b 121 638 90 624 106 632 l 233 683 b 265 690 244 688 256 690 b 326 631 301 690 326 664 b 332 624 326 631 326 624 b 344 633 336 624 344 633 b 497 697 378 676 446 697 b 676 594 592 697 626 657 b 711 578 685 583 697 578 b 746 597 724 578 738 585 b 932 697 776 647 844 697 b 1194 342 1119 697 1194 533 l 1194 286 b 1204 22 1194 213 1196 83 b 1254 -58 1213 -28 1231 -58 b 1269 -54 1258 -58 1264 -57 "},"":{"ha":792,"x_min":0,"x_max":0,"o":"m 836 -54 b 869 -47 847 -49 858 -47 b 944 -119 911 -47 944 -83 l 944 -124 b 883 -243 942 -162 935 -197 b 753 -281 846 -275 786 -281 b 731 -279 739 -281 731 -279 b 529 56 560 -262 529 -83 b 531 108 529 75 529 92 b 543 331 532 146 540 279 b 544 354 544 339 544 346 b 543 376 544 361 544 369 b 438 564 533 474 490 564 b 354 479 404 564 374 529 b 328 342 338 440 328 390 l 328 247 b 374 106 328 196 342 146 b 388 65 382 94 388 81 b 328 0 388 31 361 3 l 110 0 b 50 65 76 3 50 31 b 64 106 50 81 54 94 b 110 247 96 146 110 196 l 110 375 b 64 517 110 425 96 476 b 50 553 56 526 50 539 l 50 557 b 79 611 50 581 65 599 b 121 638 92 622 106 631 l 235 682 b 267 689 246 686 257 689 b 328 631 301 689 328 663 l 328 629 b 332 624 328 626 328 624 l 333 624 b 346 633 336 624 340 626 b 499 697 379 676 446 697 b 761 340 679 697 761 533 b 760 218 761 340 760 226 b 771 22 761 165 764 68 l 771 21 b 821 -58 779 -28 797 -58 b 836 -54 825 -58 831 -57 "},"":{"ha":818,"x_min":0,"x_max":0,"o":"m 836 -58 b 869 -51 847 -53 858 -51 b 943 -122 911 -51 943 -86 l 943 -128 b 883 -247 940 -167 935 -201 b 753 -285 846 -279 786 -285 b 731 -283 739 -285 731 -283 b 529 21 572 -268 535 -112 b 510 39 529 32 519 39 b 499 36 506 39 501 39 b 372 -8 469 17 424 -8 b 110 349 150 -8 110 156 l 110 375 b 63 517 110 425 94 476 b 49 557 54 528 49 542 b 78 613 50 581 64 599 b 121 638 90 624 106 632 l 233 683 b 264 689 244 688 254 689 b 326 631 300 689 326 664 l 326 339 b 433 125 329 232 343 125 b 517 210 467 125 496 160 b 543 347 533 249 543 299 l 543 375 b 496 517 543 425 528 476 b 482 557 488 528 482 542 b 513 613 483 581 497 599 b 554 638 524 624 539 632 l 667 683 b 697 689 678 688 688 689 b 760 631 733 689 760 664 l 760 326 b 769 29 760 204 760 100 b 771 18 769 25 771 21 b 821 -62 779 -32 797 -62 b 836 -58 825 -62 831 -61 "}}}
